<?xml version="1.0" encoding="UTF-8" standalone="no"?>
<svg
   xmlns:dc="http://purl.org/dc/elements/1.1/"
   xmlns:cc="http://creativecommons.org/ns#"
   xmlns:rdf="http://www.w3.org/1999/02/22-rdf-syntax-ns#"
   xmlns:svg="http://www.w3.org/2000/svg"
   xmlns="http://www.w3.org/2000/svg"
   xmlns:sodipodi="http://sodipodi.sourceforge.net/DTD/sodipodi-0.dtd"
   xmlns:inkscape="http://www.inkscape.org/namespaces/inkscape"
   inkscape:export-ydpi="96"
   inkscape:export-xdpi="96"
   inkscape:export-filename="C:\Users\ashley\Pictures\Games\horseplays\icons\appIcons\androidIcon.png"
   sodipodi:docname="androidIcon.svg"
   inkscape:version="1.0 (4035a4fb49, 2020-05-01)"
   id="svg963"
   version="1.1"
   viewBox="0 0 270.93333 270.93334"
   height="1024"
   width="1024">
  <defs
     id="defs957">
    <mask
       id="mask2979"
       maskUnits="userSpaceOnUse">
      <rect
         ry="33.866669"
         rx="33.866669"
         style="display:inline;fill:#ffff00;fill-opacity:1;stroke-width:0.264583"
         id="rect2981"
         width="270.93335"
         height="270.93335"
         x="2.220446e-16"
         y="7.1054274e-15" />
    </mask>
  </defs>
  <sodipodi:namedview
     inkscape:guide-bbox="true"
     showguides="true"
     inkscape:window-maximized="1"
     inkscape:window-y="302"
     inkscape:window-x="1072"
     inkscape:window-height="1017"
     inkscape:window-width="1920"
     units="px"
     showgrid="false"
     inkscape:document-rotation="0"
     inkscape:current-layer="layer2"
     inkscape:document-units="px"
     inkscape:cy="560"
     inkscape:cx="348.57143"
     inkscape:zoom="0.5"
     inkscape:pageshadow="2"
     inkscape:pageopacity="0.0"
     borderopacity="1.0"
     bordercolor="#666666"
     pagecolor="#ffffff"
     id="base">
    <sodipodi:guide
       inkscape:color="rgb(0,0,255)"
       inkscape:locked="false"
       inkscape:label=""
       id="guide839"
       orientation="0,1"
       position="-269.11904,135.46667" />
    <sodipodi:guide
       inkscape:color="rgb(0,0,255)"
       inkscape:locked="false"
       inkscape:label=""
       id="guide841"
       orientation="-1,0"
       position="135.46667,264.12984" />
  </sodipodi:namedview>
  <metadata
     id="metadata960">
    <rdf:RDF>
      <cc:Work
         rdf:about="">
        <dc:format>image/svg+xml</dc:format>
        <dc:type
           rdf:resource="http://purl.org/dc/dcmitype/StillImage" />
        <dc:title></dc:title>
      </cc:Work>
    </rdf:RDF>
  </metadata>
  <g
     style="display:none"
     inkscape:label="Circle"
     id="layer2"
     inkscape:groupmode="layer">
    <circle
       r="135.33438"
       cy="135.46667"
       cx="135.46667"
       id="path846"
       style="fill:none;stroke:#000000;stroke-width:0.264583;stroke-miterlimit:4;stroke-dasharray:none;stroke-opacity:1" />
  </g>
  <g
     style="display:inline"
     id="layer1"
     inkscape:groupmode="layer"
     inkscape:label="Horse">
    <path
       mask="none"
       d="m 179.71849,44.172101 -3.195,0.290825 -4.55186,1.452084 -4.16374,1.74394 -3.58209,2.323549 -0.38811,0.290826 -3.58312,3.872912 -2.71063,3.38856 -2.80791,2.615385 -0.79364,1.903699 -5.30657,-0.451615 -0.26318,-0.03488 -0.31847,-0.06242 -12.5875,-2.130002 -4.6645,-0.08798 -5.50318,-0.88068 -6.68084,-0.967712 -5.90666,-0.677919 -4.93893,0.0973 -5.51958,0.58062 -7.165202,0.871465 -7.55332,2.227281 -4.55083,-0.871445 h -3.58311 l -3.87292,-0.29085 h -6.77812 l -4.35729,1.74293 -1.93646,2.420827 -6.19748,0.677899 -4.841662,-0.0973 -7.456031,0.677919 -5.228747,0.0973 -5.519571,-0.677918 h -6.971664 l -4.357284,0.09631 -4.841661,1.453115 -4.938941,1.936456 -4.7443762,1.065012 -10.4574928,1.16227 1.742909,-3.776645 -4.551841,2.227282 2.32456,-3.389571 -8.908114,4.261035 -1.646661,-0.677918 4.357284,-3.679385 -4.550831,0.09631 -3.97019,2.711653 c 0,0 -2.711614,3.001765 -3.583118,4.163737 -0.871465,1.161993 -3.872912,3.872932 -3.872912,3.872932 l -3.292292,-0.580639 c 0,0 -3.001448,-3.388759 -3.872913,-3.872913 -0.871484,-0.484153 -9.102691,-3.196024 -9.102691,-3.196024 0,0 5.035995,3.970647 5.423306,4.067469 0.387331,0.0969 1.161259,2.904189 1.161259,2.904189 l -3.97019,0.194597 -7.067926,-3.680396 -5.326027,-1.064992 3.776664,2.518107 2.130002,2.517095 -3.389571,-0.967713 -8.617309,5.035202 -8.521021,5.519574 -3.97021,5.906647 6.874379,-3.873943 -3.485819,2.420828 c 0,0 -2.420827,6.003707 -2.420827,6.391038 0,0.387331 -6.196462,6.58457 -6.196462,6.58457 l 3.292273,-1.54937 -5.035202,3.195 -2.614374,4.74541 -2.672734,4.0081 -5.752035,-0.52226 -12.006864,-0.3871 -6.1975,1.74291 -9.29621,2.9052 -10.26395,4.84065 -9.48876,7.16621 -7.9404,7.74585 -8.52104,9.29623 -4.64811,6.97166 -3.67936,5.8104 -4.45459,8.90811 -3.67936,9.68331 -1.74293,6.97166 -2.32456,10.26397 -0.38709,6.00393 -2.51708,10.4575 -1.16229,15.49269 -1.16229,10.65206 v 7.1652 l 0.7752,12.39499 1.16126,6.39 1.35583,8.13393 1.54937,6.39104 1.93647,12.58851 2.13102,7.5523 2.51709,10.0704 1.74291,5.42331 2.9052,9.10168 2.9052,8.71457 1.54938,8.32749 0.38708,5.0352 v 5.22875 l 0.38709,6.00395 180.10602,-0.19361 3.485831,-7.55333 5.0352,-11.42622 2.905201,-8.71459 0.775195,-4.26 0.774178,-7.55331 2.130003,-11.23269 0.388109,-2.71063 0.580628,-5.61685 -0.580628,-7.16522 0.580628,-6.39102 2.323547,-5.4223 1.742915,-6.00394 0.581657,-6.77811 0.774172,-5.61582 0.775201,-6.1975 0.967716,-6.19749 -0.193546,-7.1652 0.387087,-4.45355 v -6.77915 l -1.354808,-7.93937 -1.355824,-8.71559 -0.581657,-5.61585 -1.161259,-6.97165 -1.162286,-3.2923 4.261026,-3.67936 4.647096,-3.48584 8.133946,-5.22976 9.87686,-6.39001 6.97166,-4.26103 8.52103,-5.03521 8.90914,-4.45456 6.39104,-1.74293 5.809372,-1.74291 0.10035,-0.0275 -1.94056,4.09513 2.6154,-1.93645 0.58063,0.0963 -1.25855,4.16376 v 4.84166 l 0.67792,-2.13001 1.16126,1.35582 1.25856,2.61437 1.54936,-5.51957 -0.38708,-6.19747 0.25396,-2.57855 0.30824,-0.0543 0.12698,3.25236 1.1121,4.58769 1.52889,3.61383 1.94567,3.75312 3.19706,3.47456 3.19704,2.36245 4.16989,1.9467 3.75311,2.2232 1.38962,0.13931 2.641,4.30915 1.39065,2.08494 2.91851,4.72595 2.78027,3.33529 1.1121,2.08494 2.08494,3.33633 2.08393,3.7531 0.41781,0.4168 0.13823,4.03061 v 2.78028 l 0.55606,4.58665 0.27854,2.78028 0.41678,2.64099 0.83357,1.80642 0.97284,1.25136 0.83459,1.25036 2.641,2.08494 3.47456,2.3635 5.14273,2.64099 4.86521,0.97284 2.08494,-0.4168 1.38962,-0.55604 1.25138,-1.11212 1.11211,-1.52887 v -0.69534 l 0.0789,-0.0159 0.0707,0.0236 -0.0225,-0.0339 1.95797,-0.39117 4.58667,-1.94567 2.08495,-2.64101 1.94567,-1.25136 1.9467,-0.97285 3.89135,-2.22421 1.94568,-3.05778 -0.13825,-1.94568 1.52889,-6.67161 1.25138,-2.78028 1.52889,-3.19706 -0.41781,-2.22421 -1.25035,-3.75207 -0.69533,-3.61383 -1.66816,-5.42128 -0.69429,-3.47457 0.55605,-4.44842 0.13824,-4.44741 0.13928,-3.61383 0.41678,-4.30915 -0.97284,-3.89237 0.97284,-4.86419 2.78027,-5.69879 1.94567,-4.72595 1.80743,-4.30915 1.94568,-3.19705 0.97283,-1.38962 0.0655,-0.19559 0.19764,-0.0198 0.82128,-0.41064 0.99332,-1.30053 0.37582,-0.71887 0.51407,-1.47258 0.17101,-0.75266 0.13722,-0.30823 0.0338,-0.9585 -0.31336,-0.41065 0.33999,-0.67996 1.25034,-1.80743 -0.27751,-1.25036 -0.69532,-4.58768 -0.69533,-2.91852 -2.77924,-4.44842 -0.69532,-1.38962 -0.69532,-1.66817 -1.52889,-7.78373 -1.94568,-10.563993 v -0.33997 l 2.14741,5.564623 3.42336,6.84673 -1.7808,-8.07967 -1.0947,-4.792513 -0.41473,-2.277456 1.13668,-0.504862 3.67016,-2.310232 5.03008,-5.437633 3.12639,-3.671201 2.71883,-5.980384 1.35992,-4.35011 2.31126,-6.525195 0.54376,-4.893872 -0.27239,-2.855024 -1.22373,-3.670171 -1.76647,-2.175045 -1.49612,0.271365 -1.76646,3.806349 -3.80636,3.670171 -4.21495,2.447441 -4.07772,3.670151 c 0,0 -1.49557,2.311263 -1.7675,2.855044 -0.2719,0.543623 -2.85388,2.717856 -2.85502,2.718807 l -3.53396,2.718826 -1.22373,0.815147 -0.64719,0.251906 -3.01887,-4.592822 -6.43609,-4.381856 -3.36909,-1.010734 1.44697,-2.327631 0.38709,-4.163738 -0.0963,-2.227301 0.19355,-4.261015 c 0,0 0.0965,-2.42059 0.38709,-2.807921 0.29041,-0.387331 1.74291,-2.807921 1.74291,-2.807921 l 1.06603,-2.130002 z"
       style="display:inline;fill:#000000;fill-opacity:1;fill-rule:evenodd;stroke:none;stroke-width:4.03473;stroke-linecap:round;stroke-miterlimit:4;stroke-dasharray:none;stroke-opacity:1"
       id="path4536" />
  </g>
</svg>
