<?xml version="1.0" encoding="UTF-8" standalone="no"?>
<!-- Created with Inkscape (http://www.inkscape.org/) -->

<svg
   xmlns:dc="http://purl.org/dc/elements/1.1/"
   xmlns:cc="http://creativecommons.org/ns#"
   xmlns:rdf="http://www.w3.org/1999/02/22-rdf-syntax-ns#"
   xmlns:svg="http://www.w3.org/2000/svg"
   xmlns="http://www.w3.org/2000/svg"
   xmlns:sodipodi="http://sodipodi.sourceforge.net/DTD/sodipodi-0.dtd"
   xmlns:inkscape="http://www.inkscape.org/namespaces/inkscape"
   width="118.58831mm"
   height="139.32164mm"
   viewBox="0 0 118.58831 139.32164"
   version="1.1"
   id="svg6632"
   inkscape:version="0.92.1 r15371"
   sodipodi:docname="horseFace02.svg"
   inkscape:export-filename="/home/ashley/Pictures/games/horseplays/export/horseFace02.png"
   inkscape:export-xdpi="96"
   inkscape:export-ydpi="96">
  <defs
     id="defs6626">
    <clipPath
       clipPathUnits="userSpaceOnUse"
       id="clipPath5939">
      <rect
         style="fill:none;fill-opacity:1;fill-rule:evenodd;stroke:#000000;stroke-width:0.52916664;stroke-linecap:round;stroke-miterlimit:4;stroke-dasharray:none;stroke-opacity:1"
         id="rect5941"
         width="127"
         height="142.875"
         x="0"
         y="-2.8125e-06" />
    </clipPath>
  </defs>
  <sodipodi:namedview
     id="base"
     pagecolor="#ffffff"
     bordercolor="#666666"
     borderopacity="1.0"
     inkscape:pageopacity="0.0"
     inkscape:pageshadow="2"
     inkscape:zoom="1"
     inkscape:cx="6.53246"
     inkscape:cy="246.71356"
     inkscape:document-units="mm"
     inkscape:current-layer="layer1"
     showgrid="false"
     fit-margin-top="0"
     fit-margin-left="0"
     fit-margin-right="0"
     fit-margin-bottom="0"
     inkscape:window-width="1873"
     inkscape:window-height="1056"
     inkscape:window-x="47"
     inkscape:window-y="24"
     inkscape:window-maximized="1" />
  <metadata
     id="metadata6629">
    <rdf:RDF>
      <cc:Work
         rdf:about="">
        <dc:format>image/svg+xml</dc:format>
        <dc:type
           rdf:resource="http://purl.org/dc/dcmitype/StillImage" />
        <dc:title />
      </cc:Work>
    </rdf:RDF>
  </metadata>
  <g
     inkscape:label="Layer 1"
     inkscape:groupmode="layer"
     id="layer1"
     transform="translate(128.08582,-29.279655)">
    <g
       transform="translate(-128.08582,25.726299)"
       style="display:inline"
       id="g5935"
       clip-path="url(#clipPath5939)">
      <path
         inkscape:connector-curvature="0"
         id="path4536"
         d="m 111.45186,49.830737 -0.0172,0.483733 -0.0691,0.155486 -0.0863,0.380075 -0.25915,0.742874 -0.19004,0.3628 -0.501,0.65649 -0.41463,0.207317 -0.34552,0.03454 -0.93291,-0.60466 c 0,0 0.81198,-1.053846 0.88108,-1.0884 0.0691,-0.03454 0.74287,-1.451191 0.74287,-1.451191 l 0.63922,-0.604665 z"
         style="display:inline;fill:#000000;fill-opacity:1;fill-rule:evenodd;stroke:none;stroke-width:4.03472948;stroke-linecap:round;stroke-miterlimit:4;stroke-dasharray:none;stroke-opacity:1" />
      <path
         inkscape:connector-curvature="0"
         id="path4511"
         d="m 20.59665,160.55435 1.759114,-3.81141 2.540944,-5.76598 1.465929,-4.39779 0.390913,-2.15003 0.390918,-3.81141 1.075012,-5.66827 0.195459,-1.36819 0.293184,-2.83413 -0.293184,-3.61596 0.293184,-3.22505 1.172742,-2.7364 0.879558,-3.02959 0.293189,-3.4205 0.390912,-2.83412 0.390913,-3.12732 0.488646,-3.12732 -0.09773,-3.61595 0.195454,-2.247759 v -3.420503 l -0.684096,-4.006873 -0.6841,-4.397787 -0.293188,-2.834131 -0.586372,-3.518228 -0.58637,-1.661389 2.15003,-1.856842 2.345484,-1.759114 4.104603,-2.638672 4.984158,-3.225044 3.518228,-2.15003 4.300061,-2.540945 4.495517,-2.247756 3.225043,-0.879557 2.931857,-0.87956 2.15003,-0.586372 3.322777,-0.58637 6.938746,-11.043334 3.322746,-9.18649 2.736408,-7.036459 2.834126,-9.577403 4.593248,-6.156901 1.85684,-4.104601 -5.961437,-1.172744 -6.352354,-1.075015 -5.179617,-0.09773 h -8.991043 l -9.284213,1.172744 -8.404661,1.368201 -7.622834,0.684099 -7.525101,0.977287 -8.795574,0.977286 -7.622833,0.879556 -6.3523591,0.488644 -3.7136854,0.488643 -8.893302,1.661387 -7.8182885,1.075012 -7.62283,2.736402 -4.690975,5.961446 -2.638671,3.811415 -3.225044,3.909145 -0.293189,1.075013 -4.300057,-0.390913 -6.059175,-0.195459 -3.127313,0.87956 -4.690974,1.465929 -5.179615,2.443215 -4.788702,3.615957 -4.006873,3.909145 -4.300059,4.690975 -2.345485,3.518231 -1.856845,2.931856 -2.247757,4.495516 -1.856844,4.886432 -0.879556,3.518227 -1.172744,5.179616 -0.195458,3.029585 -1.270472,5.277346 -0.586372,7.81829 -0.58637,5.375071 v 3.61596 l 0.390913,6.25463 0.586372,3.22504 0.6841,4.1046 0.781829,3.22505 0.977287,6.35235 1.075013,3.81142 1.270473,5.0819 0.879558,2.73639 1.465928,4.59325 1.465929,4.39778 0.78183,4.20233 0.195457,2.54095 v 2.63866 l 0.195457,3.0296 z"
         style="display:inline;fill:#c0c0c0;fill-opacity:1;fill-rule:evenodd;stroke:none;stroke-width:4.03472948;stroke-linecap:round;stroke-miterlimit:4;stroke-dasharray:none;stroke-opacity:1" />
      <path
         inkscape:connector-curvature="0"
         id="path4513"
         d="m 106.85768,17.775931 -1.78362,1.372003 -0.61741,0.411602 -1.23478,0.4802 -3.841625,1.509203 -0.274397,4.116008 2.744022,6.174016 c 0,0 2.74398,-0.2058 3.01839,-0.343001 0.2744,-0.137199 2.401,-1.577806 2.401,-1.577806 l 1.85221,-0.8232 1.8522,-1.166204 2.5382,-2.744002 1.5778,-1.852207 1.37201,-3.018405 0.68602,-2.195205 1.16618,-3.292808 0.27443,-2.469604 -0.13725,-1.440605 -0.6174,-1.8522039 -0.89178,-1.097601 -0.75462,0.1371986 -0.8918,1.9208033 -1.92079,1.852204 -2.12662,1.234801 -2.05801,1.852205 c 0,0 -0.75458,1.166203 -0.8918,1.440603 -0.13724,0.2744 -1.44059,1.372002 -1.44059,1.372002 z"
         style="display:inline;fill:#7f898b;fill-opacity:1;fill-rule:evenodd;stroke:none;stroke-width:4.03472948;stroke-linecap:round;stroke-miterlimit:4;stroke-dasharray:none;stroke-opacity:1" />
      <path
         inkscape:connector-curvature="0"
         id="path4517"
         d="m 84.250048,96.696524 1.332688,1.052132 1.753556,1.192415 2.595275,1.332699 2.454966,0.491 1.05213,-0.21043 0.701425,-0.28057 0.631279,-0.561133 0.561146,-0.771566 v -0.35071 l 1.052146,-0.210423 2.314671,-0.981994 1.05213,-1.332703 0.982,-0.631277 0.98198,-0.490994 1.96398,-1.122276 0.982,-1.543132 -0.0701,-0.981987 0.77155,-3.366825 0.6313,-1.402843 0.77154,-1.613271 -0.21043,-1.122276 -0.63128,-1.89384 -0.3507,-1.823699 -0.84171,-2.735542 -0.35072,-1.753558 0.28058,-2.244548 0.0701,-2.244548 0.0701,-1.823699 0.21043,-2.174407 -0.49099,-1.963982 0.49099,-2.45498 1.40285,-2.87583 0.98198,-2.384831 0.91185,-2.174409 0.982,-1.613269 0.49099,-0.701422 0.42085,-1.26256 0.42086,-0.841709 0.56114,-0.981989 0.28057,-0.561137 0.63128,-0.91185 -0.1403,-0.631277 -0.3507,-2.314693 -0.35069,-1.472987 -1.40287,-2.244552 -0.3507,-0.701422 -0.35072,-0.841705 -0.77156,-3.927962 -0.982,-5.330809 v -1.332701 l -0.56113,-2.945972 -1.12228,-2.59526 -1.47298,-3.436969 -1.54313,-2.034123 -2.10426,-2.034124 -2.174408,-1.192417 -2.805686,-0.841706 -4.138389,-0.490997 -4.208522,-0.981989 -2.454996,-0.210426 -1.753556,0.70142 -5.962092,4.278674 -1.402835,4.839814 -3.016113,7.224642 -3.016106,9.609483 -2.244556,5.330807 -1.402843,4.348817 -0.631278,3.22654 -0.771565,3.717536 -0.561137,3.086258 0.140279,3.57725 0.561137,2.314692 0.771566,1.823698 0.981988,1.893838 1.613278,1.753557 1.613263,1.192417 2.10427,0.981992 1.893835,1.122272 0.701425,0.07015 1.332704,2.174404 0.70141,1.052135 1.472997,2.384837 1.402836,1.68341 0.561146,1.052128 1.052146,1.683419 1.052115,1.893836 0.210426,0.210428 0.07015,2.034125 v 1.402843 l 0.280558,2.314692 0.140294,1.402843 0.210426,1.332699 0.420852,0.911853 0.491,0.631278 z"
         style="display:inline;fill:#c0c0c0;fill-opacity:1;fill-rule:evenodd;stroke:none;stroke-width:4.03472948;stroke-linecap:round;stroke-miterlimit:4;stroke-dasharray:none;stroke-opacity:1" />
      <path
         inkscape:connector-curvature="0"
         id="path4520"
         d="m 94.175711,19.511112 -0.898356,2.902391 -1.865821,2.004031 -0.691026,1.865823 1.589397,-0.967462 1.451175,-0.898361 -1.58938,3.524336 -0.06908,2.00403 2.004042,-1.934928 -0.898371,2.971497 0.276425,1.934928 1.727617,-2.556869 0.06908,1.451196 0.552836,2.625971 1.243891,-2.625971 0.483725,2.142239 0.06908,1.243884 1.174781,-3.178811 c 0,0 1.174766,-2.142239 1.174766,-1.796717 0,0.345522 -0.27641,2.556868 -0.27641,2.556868 0,0 0.27641,1.589405 0.27641,0.829255 0,-0.760151 2.211358,-3.45523 2.211358,-3.45523 l -0.0691,1.520303 0.82926,0.621941 0.20731,-2.556869 1.10567,1.865825 1.24388,1.86582 -0.69104,-3.178811 1.79673,2.142244 1.03656,2.764182 -0.62195,-3.178811 -0.0691,-2.418658 1.5203,3.938961 1.72762,3.455225 -0.89836,-4.077167 -0.55283,-2.418659 -0.69106,-3.800752 -2.14223,-3.247916 -1.7276,-3.66254 -1.58943,-2.418659 -3.247882,-2.211346 -2.073137,-0.621942"
         style="display:inline;fill:#5f5e5d;fill-opacity:1;fill-rule:evenodd;stroke:none;stroke-width:4.03472948;stroke-linecap:round;stroke-miterlimit:4;stroke-dasharray:none;stroke-opacity:1" />
      <path
         inkscape:connector-curvature="0"
         id="path4522"
         d="m -16.149304,18.896747 -4.348925,2.540946 -4.300058,2.785262 -2.003436,2.980725 3.469366,-1.954573 -1.759117,1.221607 c 0,0 -1.221607,3.029587 -1.221607,3.225044 0,0.195459 -3.127315,3.322774 -3.127315,3.322774 l 1.661388,-0.781829 -2.540946,1.612519 -1.319333,2.394354 -1.368201,2.052301 5.081886,0.390913 0.92842,0.09773 0.928423,-1.514794 2.638673,-3.518227 1.807978,-3.029589 3.322774,-2.296621 2.980721,-0.977288 1.075017,1.514795 0.244319,-0.244324 0.244323,-1.172743 1.954573,1.710254 1.221607,2.345484 0.537507,-2.198895 1.3682006,3.909144 1.368201,3.371639 c 0,0 0.342048,-2.834132 0.342048,-3.029586 0,-0.195459 -0.342048,-5.179617 -0.342048,-5.179617 l 0.7329641,0.92842 -0.5863704,-2.638672 0.5375053,-0.977285 1.5636568,2.150032 1.9057062,2.247756 v -1.563655 l 1.368201,3.127313 c 0,0 1.27047241,2.540943 1.46593123,2.736399 0.19545728,0.195457 2.34548437,3.078453 2.34548437,3.078453 l 1.2704755,2.980721 1.7102489,2.834131 c 0,0 0.5375068,-1.954571 0.3909131,-2.296624 C 5.2532585,40.739096 3.20096,36.976546 3.20096,36.976546 l -0.7329656,-3.225044 1.710249,3.958005 1.7102536,3.567096 1.1238786,2.443213 c 0,0 -0.048859,-2.736402 -0.048859,-3.225044 0,-0.488641 -1.5147947,-3.469363 -1.66139,-3.811414 -0.1465922,-0.342049 0.3909176,-2.101166 0.3909176,-2.101166 l 1.2216073,3.664825 1.7591141,2.736397 1.3682014,3.02959 1.661388,2.345486 1.51479,1.172742 -1.172742,-2.247755 c 0,0 -0.977288,-1.417067 -1.172742,-1.612524 -0.195459,-0.195455 -0.146592,-4.593245 -0.146592,-4.593245 l 1.075013,2.687537 0.732966,3.61596 1.905706,2.736399 1.710254,1.905707 c 0,0 -1.856843,-3.127314 -2.003437,-3.322768 -0.146592,-0.195459 -1.221607,-2.44322 -1.221607,-2.736403 0,-0.293187 -0.390916,-2.638673 -0.390916,-2.638673 l 1.905706,4.54438 c 0,0 1.759119,2.980721 1.856844,3.322774 0.09773,0.342048 1.856846,2.882991 1.856846,2.882991 l 1.368197,3.371638 1.172747,3.371639 1.172742,-0.830695 0.293183,1.612524 0.684101,1.563655 0.977288,0.879559 -0.684101,-3.225043 c 0,0 1.514792,4.642108 1.563655,4.886427 0.04886,0.244324 1.417066,3.078455 1.417066,3.078455 l -0.195454,2.589808 0.488642,2.834126 c 0,0 1.270472,3.07845 1.514792,3.07845 0.244322,0 1.856845,1.710254 1.856845,1.710254 L 28.02403,72.647483 27.730846,70.741775 c 0,0 0.244319,-2.150027 0.439778,-1.710248 0.195459,0.439776 1.514795,3.76255 1.514795,3.76255 l 0.146592,2.394354 0.04886,-3.909146 0.146592,-3.078453 c 0,0 1.075014,2.198896 1.075014,2.589809 0,0.390916 0.586376,4.642108 0.586376,4.251195 0,-0.390916 0.342048,-2.394353 0.293178,-2.834131 -0.04886,-0.439776 -0.342043,-4.397786 -0.342043,-4.397786 l 0.19545,-2.101166 0.830694,2.882995 0.781834,4.006875 0.977285,1.563655 c 0,0 -0.439779,-5.033023 -0.342048,-5.375075 0.09773,-0.342048 0.781824,-3.225044 0.830694,-3.469363 0.04886,-0.244323 0.244318,-3.02959 0.244318,-3.02959 l 0.537506,5.570534 0.684101,3.811414 0.342048,2.687539 0.586376,-4.593246 0.146593,-0.537506 0.342047,1.368201 0.195459,1.856843 0.293185,0.390913 -0.390913,-3.615957 c 0,0 -0.09773,-2.443214 -0.09773,-2.736402 0,-0.293187 -0.146592,-2.736402 -0.146592,-2.736402 l 1.319336,3.127315 0.537512,1.807983 0.342047,-4.886434 -0.537506,-4.495515 -0.781829,-3.420502 -0.390914,-4.690971 -0.195458,-3.71369 2.150031,6.498953 1.123877,4.837569 1.026149,1.807977 -0.635235,-4.104603 0.195458,-2.589808 0.977284,-1.856843 -0.04886,2.785267 c 0,0 0.244319,1.56366 0.293184,1.954572 0.04886,0.390913 0.732964,3.958009 0.732964,3.958009 l 0.390913,-1.905708 0.488647,-3.958008 0.635235,-1.417066 1.221607,3.860279 0.195454,-3.567091 0.586375,3.811415 c 0,0 1.80798,2.589809 1.710252,2.052302 -0.09773,-0.537512 -1.075015,-3.518233 -1.075015,-3.518233 0,0 0.586371,-0.244322 0.732961,0.09773 0.146593,0.34205 1.954572,-1.026151 1.954572,-1.026151 l 0.390918,2.443217 0.635236,-2.638671 -0.09773,-2.052302 1.172743,4.837563 c 0,0 0.195458,-2.052297 0.146592,-2.345485 -0.04886,-0.293187 -0.04886,-3.958009 -0.04886,-3.958009 l 0.879559,-0.537507 0.781826,2.931856 0.293188,-3.615956 -0.04886,-2.39435 1.270472,5.130752 -0.390913,-4.153467 1.026148,2.785266 c 0,0 -0.293182,-3.371638 -0.09773,-3.273908 0.195454,0.09773 0.684101,1.368201 0.684101,1.368201 l 0.195454,-0.342052 0.04886,-1.221608 0.293184,-2.101162 c 0,0 0.195459,-1.172746 0.439782,-1.075018 0.244319,0.09773 1.710249,1.954573 1.710249,1.954573 l 0.830694,0.146592 0.635235,1.270468 0.488643,2.492083 -0.09773,2.003433 0.830694,-1.759114 0.195458,1.172742 -0.146593,4.104603 0.24432,2.736398 -0.83069,1.905708 -1.319336,2.785265 1.319336,-0.977283 0.293183,0.04886 -0.635235,2.101162 v 2.443218 l 0.342052,-1.075017 0.58637,0.6841 0.635237,1.319336 0.78183,-2.785265 -0.195459,-3.127315 0.342048,-3.469363 0.635237,-3.322773 0.146592,-2.785267 0.390916,-3.176178 0.390913,-1.905708 -0.342052,-4.006875 0.04886,-3.273909 0.732966,1.270472 0.195459,-1.856843 0.390913,-3.420502 0.781825,-1.856843 0.04895,4.642108 0.24431,1.905708 1.026161,-2.931856 0.537494,-2.687537 0.146547,1.075014 0.781821,-2.101167 0.781834,-2.198891 0.342037,1.368201 0.732961,-2.198895 0.439792,-2.296621 0.24431,-3.664825 0.439777,-3.17618 0.342074,3.95801 0.439761,-2.296621 -0.342028,-1.905707 0.732961,-2.296624 0.586354,3.225043 0.146546,-2.589807 0.586384,-0.586372 0.635228,1.954573 0.439777,-1.46593 -0.09775,3.811414 -0.0488,4.739839 1.270486,-2.980722 0.342028,5.863718 0.439792,-2.589809 0.928413,-1.612523 0.928427,1.46593 -0.146546,-3.95801 0.293184,-2.101165 0.684117,-3.811415 0.586354,2.736402 0.342043,1.221607 1.807981,-4.006873 0.390933,1.563657 0.24431,-2.247758 0.586369,0.244323 0.09775,-1.807981 0.781851,0.879558 1.563655,-3.225044 0.439761,-1.80798 -4.593232,-0.390914 -3.713695,-0.488643 -4.397766,-0.537503 -3.664835,-0.586373 -3.37163,-0.488643 -2.980729,-0.3420498 -2.49208,0.048859 -2.785266,0.2931858 -3.615956,0.43978 -3.811411,1.123878 -2.296629,-0.439778 H 48.791446 L 46.83687,11.225046 h -3.420503 l -2.198892,0.879556 -0.977288,1.221609 -3.127313,0.34205 -2.443212,-0.04886 -3.762553,0.342049 -2.638674,0.04886 -2.785265,-0.342052 h -3.518305 l -2.198895,0.04886 -2.443214,0.732964 -2.492078,0.977287 -2.394354,0.537507 -5.2773407,0.586371 0.8795548,-1.905707 -2.2966209,1.123878 1.1727422,-1.710251 -4.4955145,2.150031 -0.8306958,-0.342051 2.1988952,-1.856842 -2.2966238,0.04886 -2.00343649,1.3682 c 0,0 -1.36819641,1.514793 -1.80797911,2.101165 -0.4397766,0.586372 -1.9545714,1.954572 -1.9545714,1.954572 l -1.6613854,-0.293186 c 0,0 -1.5147948,-1.710251 -1.9545714,-1.954572 -0.4397812,-0.244322 -4.5932447,-1.612522 -4.5932447,-1.612522 0,0 2.5409432,2.003437 2.736402,2.052301 0.1954543,0.04886 0.5863704,1.465929 0.5863704,1.465929 l -2.0034364,0.09773 -3.567096,-1.856844 -2.687533,-0.537507 1.905708,1.270473 1.075012,1.270471 z"
         style="display:inline;fill:#5f5e5d;fill-opacity:1;fill-rule:evenodd;stroke:none;stroke-width:4.03472948;stroke-linecap:round;stroke-miterlimit:4;stroke-dasharray:none;stroke-opacity:1" />
      <path
         inkscape:connector-curvature="0"
         id="path4525"
         d="m 91.401012,6.631808 -1.807981,1.9545713 -1.368189,1.7102507 -1.417063,1.319337 -0.488651,1.172742 -0.732961,2.198893 -0.0488,1.905708 -0.0488,2.736402 -0.0488,1.368198 v 1.123883 h 2.93186 2.5898 l 2.93186,-1.368202 0.830694,-1.807979 1.221612,-1.954573 1.319345,-1.710251 1.123863,-1.807978 0.195467,-2.101167 -0.0488,-1.123878 0.09775,-2.1500289 c 0,0 0.0488,-1.2216073 0.195451,-1.4170646 0.146547,-0.1954573 0.879584,-1.4170646 0.879584,-1.4170646 L 100.24575,4.1885934 99.415059,3.5533564 97.80253,3.6999486 95.505914,4.4329127 93.404748,5.3124705 91.596783,6.4852127 Z"
         style="display:inline;fill:#c0c0c0;fill-opacity:1;fill-rule:evenodd;stroke:none;stroke-width:4.03472948;stroke-linecap:round;stroke-miterlimit:4;stroke-dasharray:none;stroke-opacity:1" />
      <path
         inkscape:connector-curvature="0"
         id="path4528"
         d="m 99.600431,4.8609458 -0.552851,0.9674643 -0.17276,0.4146273 -0.518281,1.2093301 -0.138159,1.1056724 -0.207315,2.1422411 -0.24187,1.105674 -0.449171,2.418657 c 0,0 -0.58739,0.725599 -0.72561,1.002017 -0.13816,0.276419 -0.932896,1.865823 -1.105671,2.038584 -0.17276,0.172762 -1.209321,1.382092 -1.209321,1.382092 l -0.691041,1.451196 -0.518295,1.002018 -0.449186,0.691043 -0.48371,-0.172763 -1.727632,-0.449178 -1.140225,-0.276419 -0.932911,-0.587388 -0.27641,-1.243882 c 0,0 0.27641,-1.554853 0.27641,-1.693061 0,-0.138205 0.27644,-1.623957 0.27644,-1.623957 0,0 0.48371,-1.312988 0.621915,-1.623958 0.13816,-0.31097 0.656501,-1.347539 0.656501,-1.347539 l 0.621946,-1.347539 0.93291,-1.382092 L 92.27538,8.7308 c 0,0 0.552851,-1.1747765 0.691056,-1.2784325 0.138159,-0.1036653 1.174766,-1.105674 1.174766,-1.105674 0,0 0.760165,-0.4146273 0.967465,-0.5528354 0.207316,-0.1382051 1.416667,-0.6910466 1.658507,-0.7255987 0.24187,-0.034555 1.658521,-0.4837313 1.658521,-0.4837313 l 0.760151,-0.06911 z"
         style="display:inline;fill:#0c0301;fill-opacity:1;fill-rule:evenodd;stroke:none;stroke-width:4.03472948;stroke-linecap:round;stroke-miterlimit:4;stroke-dasharray:none;stroke-opacity:1" />
      <path
         inkscape:connector-curvature="0"
         id="path4533"
         d="m 82.497041,38.722178 0.17276,0.380077 v 0.483731 l 0.06908,0.449178 -0.06908,0.449182 0.17276,0.621941 0.414646,0.44918 0.760151,0.207312 0.89834,0.276419 0.587391,-0.10365 0.794705,0.138205 0.691041,0.10365 0.76015,0.207312 -0.241855,-0.932909 -0.55285,-1.382093 -0.380045,-0.760151 -0.483741,-1.174776 -1.105686,-0.552834 h -1.140226 l -0.898355,0.310968 -0.621946,0.310968 z"
         style="display:inline;fill:#000000;fill-opacity:1;fill-rule:evenodd;stroke:none;stroke-width:4.03472948;stroke-linecap:round;stroke-miterlimit:4;stroke-dasharray:none;stroke-opacity:1" />
      <path
         inkscape:connector-curvature="0"
         id="path4539"
         d="m 95.212439,79.293025 -0.390917,0.488639 -0.293185,1.270467 c 0,0 0.635243,1.026161 0.732961,1.270471 0.09775,0.244327 0.879569,2.101167 0.879569,2.101167 l -0.2932,0.781834 -0.732961,1.563655 -1.612514,0.830694 -2.198898,0.195467 -1.612515,-1.172752 -0.537509,-2.247759 0.488635,-3.225043 0.439777,-1.319329 0.684102,-1.270472 1.368204,-0.732978 1.759106,-0.146546 1.221612,0.390917 0.488651,0.879555 z"
         style="display:inline;fill:#000000;fill-opacity:1;fill-rule:evenodd;stroke:none;stroke-width:4.03472948;stroke-linecap:round;stroke-miterlimit:4;stroke-dasharray:none;stroke-opacity:1" />
      <path
         inkscape:connector-curvature="0"
         id="path4542"
         d="m 95.407891,98.594428 -1.710248,-0.586384 -1.172738,-0.342043 -2.052306,-1.026146 -2.05229,-0.879566 -1.270487,-1.123878 -1.172737,-1.661388 -0.684102,-2.443212 -0.195451,-1.710249 -0.293185,-1.856838 -0.09775,-3.07845 c 0,0 -0.146547,-1.661388 -0.146547,-1.905715 0,-0.244324 -0.488635,-1.123879 -0.488635,-1.123879 l -0.342059,-0.244322 h -0.439777"
         style="display:inline;fill:none;fill-opacity:1;fill-rule:evenodd;stroke:#000000;stroke-width:0.52916664;stroke-linecap:round;stroke-miterlimit:4;stroke-dasharray:none;stroke-opacity:1" />
    </g>
  </g>
</svg>
