<?xml version="1.0" encoding="UTF-8" standalone="no"?>
<!-- Created with Inkscape (http://www.inkscape.org/) -->

<svg
   xmlns:dc="http://purl.org/dc/elements/1.1/"
   xmlns:cc="http://creativecommons.org/ns#"
   xmlns:rdf="http://www.w3.org/1999/02/22-rdf-syntax-ns#"
   xmlns:svg="http://www.w3.org/2000/svg"
   xmlns="http://www.w3.org/2000/svg"
   xmlns:sodipodi="http://sodipodi.sourceforge.net/DTD/sodipodi-0.dtd"
   xmlns:inkscape="http://www.inkscape.org/namespaces/inkscape"
   width="328.24979"
   height="216.5087"
   viewBox="0 0 86.849426 57.284592"
   version="1.1"
   id="svg9648"
   inkscape:version="0.92.1 r15371"
   sodipodi:docname="horse01.svg"
   inkscape:export-filename="/home/ashley/Pictures/games/horseplays/export/horse01.png"
   inkscape:export-xdpi="96"
   inkscape:export-ydpi="96">
  <defs
     id="defs9642" />
  <sodipodi:namedview
     id="base"
     pagecolor="#ffffff"
     bordercolor="#666666"
     borderopacity="1.0"
     inkscape:pageopacity="0.0"
     inkscape:pageshadow="2"
     inkscape:zoom="1"
     inkscape:cx="-139.58939"
     inkscape:cy="119.68291"
     inkscape:document-units="px"
     inkscape:current-layer="layer1"
     showgrid="false"
     fit-margin-top="0"
     fit-margin-left="0"
     fit-margin-right="0"
     fit-margin-bottom="0"
     units="px"
     inkscape:window-width="1873"
     inkscape:window-height="1056"
     inkscape:window-x="47"
     inkscape:window-y="24"
     inkscape:window-maximized="1" />
  <metadata
     id="metadata9645">
    <rdf:RDF>
      <cc:Work
         rdf:about="">
        <dc:format>image/svg+xml</dc:format>
        <dc:type
           rdf:resource="http://purl.org/dc/dcmitype/StillImage" />
        <dc:title />
      </cc:Work>
    </rdf:RDF>
  </metadata>
  <g
     inkscape:label="Layer 1"
     inkscape:groupmode="layer"
     id="layer1"
     transform="translate(-88.111002,-117.92318)">
    <g
       transform="translate(67.899986,-29.126469)"
       id="g5633">
      <path
         inkscape:connector-curvature="0"
         id="path5624"
         d="m 103.54787,203.56254 0.34594,0.50559 1.46357,0.26611 1.11764,-0.10644 0.34592,-0.2395 0.2395,-1.33051 -0.66525,-1.43696 -1.11765,-0.0532 -1.5434,0.71848 -0.45236,0.50559 -0.15967,0.39916 z"
         style="display:inline;fill:#635e53;fill-opacity:1;fill-rule:evenodd;stroke:none;stroke-width:0.5291667;stroke-miterlimit:4;stroke-dasharray:none;stroke-opacity:1" />
      <path
         inkscape:connector-curvature="0"
         id="path5626"
         d="m 79.838074,202.1788 c 0,0 -0.69187,0.58543 -0.718479,0.71848 -0.0266,0.13305 0,0.7717 0,0.7717 l 0.292709,0.23949 0.957974,0.21288 0.5056,0.15967 c 0,0 1.117628,-0.10644 1.250683,-0.10644 0.133052,0 1.037804,-0.34594 1.037804,-0.34594 l 1.117628,-0.23949 0.612042,-0.45238 0.02662,-0.74509 0.133052,-0.85153 -1.67645,0.0532 -1.703063,-0.10644 -0.771699,0.10644 z"
         style="display:inline;fill:#635e53;fill-opacity:1;fill-rule:evenodd;stroke:none;stroke-width:0.5291667;stroke-miterlimit:4;stroke-dasharray:none;stroke-opacity:1" />
      <path
         inkscape:connector-curvature="0"
         id="path5628"
         d="m 59.64083,202.57796 0.984584,0.23949 1.144243,0.2661 1.064414,0.42577 0.239492,0.63864 -1.277296,-0.0266 -1.889333,0.0798 -1.490178,-0.10644 h -1.037804 c 0,0 0.505597,-0.66526 0.612037,-0.71848 0.106443,-0.0532 1.649841,-0.79831 1.649841,-0.79831 z"
         style="display:inline;fill:#635e53;fill-opacity:1;fill-rule:evenodd;stroke:none;stroke-width:0.5291667;stroke-miterlimit:4;stroke-dasharray:none;stroke-opacity:1" />
      <path
         inkscape:connector-curvature="0"
         id="path5630"
         d="m 36.649504,199.99675 0.345934,-1.01119 0.745089,0.0266 0.904752,-0.37254 0.904751,0.10644 0.612037,0.29271 -0.07983,1.0378 -0.718479,0.45238 -0.718479,0.82492 -1.011191,0.66526 -0.771702,0.47899 -0.399155,-0.58543 0.133053,-0.98458 -0.0266,-0.53221 z"
         style="display:inline;fill:#635e53;fill-opacity:1;fill-rule:evenodd;stroke:none;stroke-width:0.5291667;stroke-miterlimit:4;stroke-dasharray:none;stroke-opacity:1" />
      <path
         inkscape:connector-curvature="0"
         id="path5599"
         d="m 57.133235,185.79477 0.376328,1.09135 0.338693,1.05372 0.188164,1.3924 0.451592,1.12898 0.263429,0.86556 0.188164,1.05371 0.338694,0.4516 0.338693,0.37632 0.301063,1.09135 0.338693,1.27951 0.489227,1.80637 v 1.24188 l 0.03763,1.7311 -0.301063,1.12898 -0.225795,0.60213 -0.639756,0.60212 1.354777,0.75265 0.677388,0.26343 0.602122,-0.0753 -0.15053,-0.97845 0.489226,-0.86555 0.526858,-0.90319 0.489223,-0.45159 0.188164,-1.27951 -0.07527,-1.05372 -0.451592,-1.50531 -0.940816,-2.70955 -0.489227,-1.9569 -0.07526,-1.46768 0.188163,-1.05371 -0.639756,-1.50531 -0.112899,-1.7311 -0.413958,-2.22033 -0.15053,-1.7311 -0.526858,-2.40849 -0.301062,-1.46768 -0.790286,-1.99453 -2.48376,0.63975 -2.069796,0.86555 -0.715021,0.75266 0.30106,1.20425 0.413961,0.18816 0.489224,0.30106 0.489226,0.86555 0.639756,1.35478 0.526858,1.46767 0.413958,1.58058 z"
         style="display:inline;fill:#835642;fill-opacity:1;fill-rule:evenodd;stroke:none;stroke-width:0.5291667;stroke-miterlimit:4;stroke-dasharray:none;stroke-opacity:1" />
      <path
         inkscape:connector-curvature="0"
         id="path5622"
         d="m 93.116631,183.25886 1.224065,1.27729 1.091032,0.90475 0.771699,0.66526 0.42577,0.5056 0.691866,0.93136 0.372542,0.74509 0.292715,0.61203 0.612036,0.61204 0.665257,0.74509 c 0,0 0.186267,0.61204 0.266105,0.79831 0.07983,0.18627 0.399152,1.14425 0.399152,1.14425 l 0.42577,1.59662 0.13305,0.58542 0.34594,0.90475 0.18627,0.53221 0.18626,1.17085 0.10645,0.98459 0.0266,0.85153 0.23949,0.50559 0.63865,0.90476 0.37254,1.09102 0.39916,1.19747 0.18627,0.45237 0.39916,0.58543 c 0,0 0.53221,-0.66526 0.63865,-0.7717 0.10643,-0.10644 1.01119,-1.22408 1.01119,-1.22408 0,0 -0.2661,-1.14424 -0.29271,-1.27729 -0.0266,-0.13305 -0.18628,-1.25069 -0.18628,-1.25069 l 0.0798,-0.66526 -0.66526,-1.3039 -0.15967,-0.90475 -0.90475,-1.59662 -0.18626,-1.51679 -0.45238,-1.83612 -0.26611,-1.59662 -0.34594,-1.99577 -0.21287,-1.67645 -0.31933,-1.41035 -1.11764,-0.93136 -1.33051,-1.72967 -0.824922,-1.11764 -0.984576,-1.38373 -0.532204,-1.38374 c 0,0 -0.02662,-0.74509 0.02662,-0.90475 0.05322,-0.15966 0.186267,-1.43696 0.186267,-1.43696 l 0.319327,-0.71848 0.266105,-1.35713 0.133052,-0.85152 0.266099,-0.95798 -0.0266,-1.0378 0.186275,-1.06441 0.10644,-1.06442 0.02662,-1.62323 0.159662,-0.74509 -0.159662,-0.71848 -0.09952,-0.72045 -1.257607,-0.98261 -3.991556,-1.22407 -3.219849,3.43273 -4.470531,8.91446 0.532204,2.50137 3.086796,1.0112 0.505602,0.37254 0.345929,0.31932 0.957972,1.14425 0.878141,0.85153 0.798312,0.85153 0.718477,0.90475 z"
         style="display:inline;fill:#835642;fill-opacity:1;fill-rule:evenodd;stroke:none;stroke-width:0.5291667;stroke-miterlimit:4;stroke-dasharray:none;stroke-opacity:1" />
      <path
         inkscape:connector-curvature="0"
         id="path5656"
         d="m 28.98573,149.54357 -1.117636,-0.79831 -0.425764,-0.45238 -0.558817,-0.55882 -0.345935,-0.5322 -0.186272,0.13305 0.399154,0.87814 0.452377,1.0378 0.266102,0.63865 0.55882,1.09102 0.665257,0.93137 0.345934,0.34593 0.878139,-0.58543 0.771702,-0.47898 -0.665259,-0.71848 -0.66526,-0.58543 z"
         style="display:inline;fill:#835642;fill-opacity:1;fill-rule:evenodd;stroke:none;stroke-width:0.5291667;stroke-miterlimit:4;stroke-dasharray:none;stroke-opacity:1" />
      <path
         inkscape:connector-curvature="0"
         id="path5601"
         d="m 23.091453,159.47958 -0.728785,1.07583 -0.659375,1.38816 -0.555266,1.28405 -0.728787,1.31876 -0.208224,1.04112 0.347042,0.79819 0.277632,0.38175 0.208224,0.55526 0.485857,0.48586 0.728787,0.34704 0.451149,0.10411 0.451155,-0.10411 0.277632,0.24293 0.902304,0.0694 h 0.832898 l 0.41645,-0.48586 0.242928,-0.79819 0.104114,-0.20823 0.485856,-0.24293 0.555265,-0.48585 1.11053,-0.93701 1.075826,-0.72879 0.832898,-0.65938 0.69408,-0.48585 0.728785,-0.52056 1.11053,-0.65938 0.624674,-0.48586 0.451152,-0.48585 1.28405,0.24292 0.867602,0.31234 0.971715,0.52056 1.145232,0.8676 0.902307,0.72879 0.832898,1.00642 0.902306,0.9023 0.624671,0.48586 0.451155,0.55526 0.798195,0.7982 0.589967,0.69408 0.624673,0.55526 0.381747,0.55527 0.138814,0.55526 0.242931,1.35346 0.173519,1.04112 0.347039,1.24935 0.555266,1.17994 0.381745,1.04112 0.555265,1.00642 0.659378,0.8676 v 0.62467 l -0.589969,1.11053 -0.832898,1.14524 -1.353458,1.49227 -1.284052,1.31876 -1.284051,1.21464 -0.659376,0.72878 -0.208224,0.41645 -0.347041,0.65938 -0.277633,0.48586 -0.208224,0.8676 v 0.58997 l -0.06941,0.52056 -0.347042,1.04112 -0.312337,0.79819 -0.659375,1.76991 -0.416451,0.93701 -0.485856,1.31876 -0.138815,0.58997 0.138815,0.69408 -0.06941,0.55526 -0.138815,0.55527 -0.347041,1.00641 -0.277633,1.42287 1.179939,-0.0694 1.735202,-0.48586 -0.208224,-0.34703 -0.208224,-1.04113 0.58997,-0.62467 0.485856,-0.76349 0.104111,-0.97171 0.555265,-2.42929 0.451155,-1.07582 0.624675,-2.08225 0.485856,-1.04112 0.659376,-0.34704 0.173522,-0.45115 0.312334,-0.41645 1.388163,-1.04112 1.28405,-0.90231 1.943427,-1.24935 1.388163,-0.8676 0.937011,-0.8329 2.012834,-1.17993 1.179939,-0.48586 0.937009,-0.72879 0.41645,-0.65937 1.11053,-0.0694 1.318754,-0.17352 h 1.041122 l 1.422867,0.0694 2.151652,0.0694 1.839315,0.24292 2.568102,-0.17352 h 0.97171 l 2.11695,-0.0347 1.492274,-0.24293 2.22106,-0.41645 2.255765,-0.79819 1.908727,-0.8676 1.526978,-0.72879 0.763491,-0.52056 0.347036,1.00642 0.381749,0.79819 0.624666,1.28405 0.451157,1.21464 0.41645,1.87402 0.242929,1.31876 0.138814,1.04112 0.173517,0.58997 0.520564,0.72879 0.242928,0.8676 0.381748,1.45757 0.381741,1.14523 0.173524,0.93701 0.03471,0.93701 c 0,0 0.10411,0.65938 0.138815,0.8676 0.0347,0.20823 -0.06941,0.97172 -0.06941,0.97172 0,0 -0.0347,0.48585 -0.104111,0.62467 -0.06941,0.13882 -0.451154,1.07583 -0.451154,1.07583 l -0.17352,1.00641 -0.555267,1.7352 -0.312332,1.17994 -0.312342,0.93702 -0.555266,0.76348 -0.242928,0.55527 -0.798193,0.62467 -0.763489,0.52056 -0.485859,0.34704 0.798193,0.10412 0.902312,-0.0347 0.832895,0.0694 0.763492,0.31234 0.867599,-0.0347 0.624674,0.0347 0.416445,-0.62468 0.416453,-1.00641 0.659379,-1.94343 0.277629,-1.38816 0.381749,-1.59639 0.65937,-1.90873 0.485859,-2.01283 0.138815,-0.27763 0.451155,-1.38816 0.485853,-0.7635 0.173525,-0.9023 -0.10411,-0.72879 -0.485859,-1.70049 -0.347044,-1.56169 -0.381741,-2.53339 0.312332,-1.73521 0.589972,-1.28405 0.659378,-0.8329 1.110534,-1.31875 2.012831,-2.22106 0.937011,-1.52698 0.624674,-1.21464 0.798193,-1.52698 0.485859,-1.42287 0.416445,-1.7699 0.416445,-0.93701 1.075823,-0.7982 0.624682,-1.07582 -0.208224,-1.31876 -0.485859,-1.80461 -0.763488,-1.17994 -0.937009,-1.11053 -1.214638,-0.9023 -1.526989,-0.93701 -1.179933,-0.31234 -2.221061,-0.8329 -1.596387,-0.38174 -2.255765,-0.58997 -1.457569,-0.20822 -1.839315,0.20822 -2.498696,0.48586 -2.602801,0.62467 -2.290469,0.41645 -2.533401,0.48586 -1.422862,0.0694 -1.735207,0.20823 -1.596384,-0.0694 -1.561685,-0.0694 -1.422864,-0.45115 -1.804613,-0.65938 -1.249346,-0.58997 -1.353458,-0.31233 -2.568102,-0.38175 h -2.151649 l -2.082246,-0.13882 -1.804611,-0.20822 -1.769908,-0.34704 -1.908724,-0.65938 -2.533394,-0.62467 -3.366296,-1.14523 -1.943429,-0.72879 -1.631088,-0.38174 -2.221061,-0.38175 -1.735204,-0.48586 -1.561683,-0.20822 -1.700499,-0.24293 -1.943429,0.10411 c 0,0 -1.179936,0.34704 -1.318751,0.48586 -0.138815,0.13882 -0.694083,1.00642 -0.694083,1.00642 l -0.242928,1.11053 -0.555265,1.31875 -0.971716,1.59639 -1.041121,1.94343 -0.798193,1.63109 z"
         style="display:inline;fill:#a26a51;fill-opacity:1;fill-rule:evenodd;stroke:none;stroke-width:0.5291667;stroke-miterlimit:4;stroke-dasharray:none;stroke-opacity:1" />
      <path
         inkscape:connector-curvature="0"
         id="path5638"
         d="m 93.44111,158.6443 c 0.05144,-0.0266 0.09741,-0.0635 0.154323,-0.0798 0.03904,-0.0112 0.08256,0.004 0.123458,0 0.46826,-0.0449 0.946683,-0.0266 1.419786,-0.0266 0.268052,0 1.488728,-0.0501 1.666704,0.0266 0.05174,0.0223 0.0943,0.0273 0.154332,0.0532 0.131392,0.0566 0.331412,0.28748 0.462964,0.37254 0.107854,0.0697 0.01396,-0.005 0.123465,0.0266 0.04905,0.0141 0.07683,0.0863 0.12346,0.10645 0.0639,0.0275 0.08859,0.008 0.123458,0.0532 0.0096,0.0125 0.0212,0.0673 0.03085,0.0798 0.02376,0.0307 0.06885,0.0491 0.0926,0.0798 0.03809,0.0493 0.02051,0.0856 0.06173,0.13305 0.07188,0.0826 0.06826,0.0645 0.12346,0.15966 0.0439,0.0757 0.231722,0.23991 0.277784,0.31933 0.03585,0.0618 0.0305,0.13244 0.06173,0.18627 0.01952,0.0337 0.07879,0.0441 0.0926,0.0798 0.04454,0.11521 -0.059,-0.01 0.03088,0.10644 0.124567,0.16109 0.25915,0.29924 0.401241,0.45238 0.05872,0.0633 0.05676,0.15108 0.0926,0.21288 0.07234,0.12473 0.271545,0.23232 0.370383,0.34593 0.03088,0.0355 0.06959,0.0668 0.09259,0.10644 0.0092,0.0159 -0.0106,0.038 0,0.0532 0.06419,0.0922 0.128515,0.11079 0.216054,0.18627 0.03253,0.0281 0.03412,0.0747 0.06174,0.10644 0.08409,0.0967 0.162688,0.19589 0.246918,0.29271 0.0864,0.0993 0.22223,0.16676 0.30864,0.26611 0.0501,0.0576 0.0405,0.13008 0.0926,0.18627 0.0851,0.0917 0.20238,0.16859 0.27778,0.2661 0.0758,0.009 0.0128,0.0565 0.0309,0.0798 0.0316,0.0409 0.0918,0.0655 0.12346,0.10644 0.0381,0.0493 0.0205,0.0857 0.0617,0.13306 0.11021,0.12669 0.22826,0.24464 0.33952,0.37254 0.0763,0.0878 0.22203,0.16481 0.30865,0.23949 0.0374,0.0323 0.0623,0.14709 0.0926,0.18627 0.0351,0.0454 0.24691,0.18862 0.24691,0.2395 0,0.009 -0.0206,0 -0.0309,0 -0.0411,0 -0.0831,0.007 -0.12345,0 -0.0834,-0.0144 -0.32522,-0.23557 -0.37039,-0.0798 -0.0269,0.0928 0.30166,0.44835 0.40125,0.50559 0.0767,0.0441 0.0829,8.3e-4 0.12345,0.0532 0.0716,0.0926 0.16417,0.27458 0.24693,0.34594 0.0464,0.04 0.0898,0.075 0.12346,0.13305 0.0138,0.0238 -0.01,0.0546 0,0.0798 0.009,0.0238 0.0487,0.0308 0.0617,0.0532 0.10899,0.18795 -0.33952,0.17451 -0.33952,0.15966 0,-0.009 0.0309,-0.009 0.0309,0 0,0.0198 -0.0309,0.0334 -0.0309,0.0532 0,0.053 0.68202,0.56653 0.74077,0.71847 0.0136,0.0354 -0.0196,0.0993 0,0.13306 0.0254,0.0438 0.18138,0.1879 0.0617,0.23949 -0.0722,0.0311 -0.46848,0.0124 -0.49384,-0.0532 -0.0288,-0.0745 -0.0494,-0.0958 -0.12346,-0.15966 -0.0103,-0.009 -0.0309,-0.0392 -0.0309,-0.0266 0,0.11622 0.0437,0.0487 0.0926,0.13305 0.11369,0.0277 0.0114,0.0911 0.0309,0.13305 0.0337,0.0727 0.0849,0.14634 0.12346,0.21288 0.0206,0.0355 -0.0206,0.0976 0,0.13306 0.021,0.0362 0.0716,0.0703 0.0926,0.10644 0.0329,0.0567 -0.0235,0.1522 0,0.21288 0.0564,0.14599 0.0208,0.31105 0.0617,0.45238 0.0312,0.10773 0.10253,0.20342 0.15433,0.29271 0.0535,0.0923 -0.0112,0.30853 0.0309,0.39916 0.0108,0.0233 0.0487,0.0308 0.0617,0.0532 0.0554,0.0956 0.10504,0.3515 0.15432,0.47899 0.031,0.0801 -0.0238,0.18397 0,0.2661 0.0228,0.0788 0.0361,0.1776 0.0617,0.26611 0.014,0.0483 0,0.11055 0,0.15966 0,0.0444 0,0.0887 0,0.13305 0,0.009 0.0103,0.0266 0,0.0266 -0.14187,0 -0.33714,-0.37255 -0.40124,-0.37255 -0.0308,0 0,0.0532 0,0.0798 0,0.0798 0,0.15966 0,0.23949 0,0.0524 -0.0295,0.90245 -0.0308,0.90475 -0.013,0.0224 -0.0487,0.0308 -0.0617,0.0532 -0.0298,0.0514 0.0162,0.15715 0,0.21288 -0.009,0.0304 -0.0512,0.07 -0.0617,0.10644 -0.0121,0.0417 0.0121,0.0913 0,0.13306 -0.0158,0.0543 -0.0272,0.16827 -0.0617,0.21288 -0.006,0.007 -0.0263,-0.008 -0.0309,0 -0.002,0.004 0.002,0.15966 0,0.15966 -0.0309,0 0.008,-0.054 0,-0.0798 -0.0277,-0.0954 -0.0716,-0.20323 -0.12345,-0.29271 -0.0411,-0.0708 -0.0872,-0.11573 -0.0926,-0.10645 -0.0547,0.0944 0.004,0.0601 0.0309,0.10645 0.005,0.008 0,0.0355 0,0.0266 0,-0.0616 0.0714,-0.53056 0.0926,-0.58543 0.009,-0.0238 0.0509,-0.0299 0.0617,-0.0532 0.0106,-0.0228 0.0251,-0.34593 0.0617,-0.34593 0.0206,0 0,0.0355 0,0.0532 0,0.0373 0.0206,0.17742 0,0.21288 -0.0363,0.0627 -0.10125,0.10967 -0.12346,0.18627 -0.01,0.0344 0.013,0.0728 0,0.10645 -0.0164,0.0423 -0.0687,0.0918 -0.0926,0.13305 -0.0432,0.0744 -0.0509,0.19424 -0.0926,0.2661 -0.026,0.0448 -0.0714,0.0515 -0.0926,0.10644 -0.033,0.0853 -0.0357,0.17622 -0.0617,0.26611 -0.0208,0.0718 0.0273,0.16886 0,0.23949 -0.0117,0.0303 -0.048,0.0501 -0.0617,0.0798 -0.0515,0.11108 0,0.33481 0,0.45238 0,0.11434 0.0418,0.29101 0,0.39915 -0.0131,0.0338 -0.0637,0.31932 -0.0926,0.31932 -0.11179,0 -0.13054,-0.23115 -0.15433,-0.29271 -0.0229,-0.0593 -0.10111,-0.12847 -0.12346,-0.18627 -0.0265,-0.0685 -0.004,-0.14369 -0.0309,-0.21288 -0.007,-0.0188 -0.0309,-0.0334 -0.0309,-0.0532 0,-0.0314 0.0309,0.101 0.0309,0.18627 0,0.13305 0,0.2661 0,0.39915 0,0.47012 0,0.94023 0,1.41035 0,0.0963 -0.0575,0.14866 -0.0926,0.23949 -0.0223,0.0578 0,0.15244 0,0.21288 0,0.0665 -0.0309,0.0978 -0.0309,0.15967 0,0.0305 -0.0358,0.34593 -0.0617,0.34593 -0.0421,0 -0.11441,-0.30693 -0.12346,-0.34593 -0.0558,-0.2407 -0.003,0.0723 -0.0617,-0.0798 -0.007,-0.0168 0,-0.071 0,-0.0532 0,0.0444 0.0183,0.55288 0.0309,0.58543 0.005,0.0119 0.0262,0.0147 0.0309,0.0266 0.0206,0.0532 0.0352,0.38025 0,0.42576 -0.0481,0.0623 -0.0553,0.0953 -0.0926,0.15966 -0.0348,0.06 -0.12092,0.10208 -0.15432,0.15967 -0.0137,0.0235 -0.0231,0.0953 -0.0617,0.10644 -0.17845,0.0513 -0.12983,-0.16555 -0.15433,-0.2395 -0.0126,-0.0381 -0.0446,-0.0696 -0.0617,-0.10644 -0.01,-0.0212 -0.0309,-0.54185 -0.0309,-0.61203 0,-0.46125 0,-0.92249 0,-1.38374 0,-0.14521 -0.0514,-0.47912 0,-0.61204 0.0989,-0.25577 0.0297,-1.06735 -0.0617,-1.30391 -0.0214,-0.0553 0.0251,-0.13221 0,-0.18627 -0.0108,-0.0233 -0.0487,-0.0308 -0.0617,-0.0532 -0.037,-0.0639 0.037,-0.17563 0,-0.23949 -0.007,-0.0112 -0.0273,-0.0144 -0.0309,-0.0266 -0.0165,-0.0568 -0.0448,-0.55881 -0.0926,-0.55881 -0.0984,0 -0.0454,0.0377 -0.0617,0.0798 -0.0332,0.0859 -0.10966,0.18908 -0.15433,0.2661 -0.0247,0.0426 0.0247,0.11709 0,0.15966 -0.0338,0.0583 -0.041,0.14141 -0.0617,0.21289 -0.008,0.0266 0.0154,0.0532 0,0.0798 -0.0564,0.0972 -0.167827,0.18879 -0.216044,0.29271 -0.06392,0.13778 -0.04465,0.39345 -0.09259,0.55882 -0.01426,0.0493 0.01856,0.11166 0,0.15966 -0.07452,0.19275 0.0089,-0.042 -0.06173,0.0798 -0.05849,0.10086 -0.08434,0.20221 -0.154324,0.29272 -0.04816,0.0623 -0.0032,0.19405 -0.03089,0.2661 -0.05051,0.13065 -0.20155,0.24109 -0.277784,0.37255 -0.0303,0.0523 -0.03921,0.128 -0.06173,0.18627 -0.02813,0.0728 -0.1156,0.1195 -0.154324,0.18627 -0.05018,0.0865 -0.0078,0.0633 -0.06173,0.13305 -0.03043,0.0394 -0.09902,0.0643 -0.123452,0.10644 -0.01652,0.0285 -0.260329,0.37254 -0.277782,0.37254 -0.02079,0 -0.0926,-0.39427 -0.0926,-0.47898 0,-0.009 0.0025,0.018 0,0.0266 -0.106572,0.27565 0.03171,-0.11004 -0.03088,0.15966 -0.01311,0.0564 -0.173922,0.30961 -0.216063,0.34594 -0.148968,0.12844 -0.0529,-0.0152 -0.123457,0.10644 -0.01228,0.0212 -0.134082,0.22117 -0.154318,0.18627 -0.02896,-0.0499 0,-0.16014 -0.03088,-0.21288 -0.01302,-0.0224 -0.05093,-0.0299 -0.06173,-0.0532 -0.02544,-0.0549 -0.07283,-0.45716 -0.12346,-0.47899 -0.08642,-0.0373 -0.142733,0.0698 -0.185196,0.10644 -0.08354,0.072 -0.182894,0.0785 -0.277789,0.13305 -0.19396,0.11149 -0.52009,0.37821 -0.740747,0.42577 -0.300978,0.0649 -0.443267,-0.35781 -0.493844,-0.5322 -0.01578,-0.0544 -0.03085,-0.0957 -0.03085,-0.15967 0,-0.009 0,-0.0355 0,-0.0266 0,0.073 0.0092,0.0374 -0.03088,0.10644 -0.03343,0.0576 -0.04025,0.10409 -0.06173,0.15966 -0.05205,0.13461 -0.180681,0.26091 -0.277793,0.37254 -0.04601,0.0529 -0.06495,0.12671 -0.09259,0.18628 -0.03319,0.0715 -0.124727,0.12248 -0.154324,0.18627 -0.07531,0.16232 -0.124405,0.19353 -0.27779,0.29271 -0.06378,0.0412 -0.200151,0.1766 -0.308639,0.10644 -0.342091,-0.22119 -0.27779,-0.67855 -0.27779,-1.01119 0,-0.0787 0.03645,-0.22378 -0.06173,-0.2661 -0.06909,-0.0298 -0.144957,0.11224 -0.18519,0.13305 -0.120443,0.0623 -0.107164,0.0626 -0.216046,0.13305 -0.05409,0.035 -0.132667,0.0306 -0.185195,0.0532 -0.09961,0.0429 -0.492379,0.34594 -0.555566,0.34594 -0.04116,0 0,-0.071 0,-0.10645 0,-0.12589 -0.03562,-0.30294 0,-0.42576 0.05046,-0.17402 0.05032,-0.41191 0,-0.58543 -0.01583,-0.0546 0.05553,-0.23949 -0.06173,-0.23949 -0.104672,0 -0.244167,0.15729 -0.308642,0.21289 -0.274671,0.2368 -0.424333,0.52102 -0.617304,0.7983 -0.09411,0.0188 -0.01187,0.0737 -0.03088,0.10644 -0.03938,0.0679 -0.101206,0.15182 -0.154319,0.21289 -0.153709,0.17669 -0.382533,0.25534 -0.586437,0.37254 -0.147796,0.0849 -0.255659,0.17485 -0.432105,0.21288 -0.02233,0.005 -0.04116,0.0355 -0.06173,0.0266 -0.04693,-0.0202 0.01137,-0.0911 0.03088,-0.13306 0.08093,-0.17443 0.215575,-0.34304 0.246912,-0.5322 0.01864,-0.11245 0.07726,-0.13353 0.0926,-0.21288 0.0068,-0.035 -0.0068,-0.0714 0,-0.10644 0.01324,-0.0686 0.17005,-0.34958 0.216057,-0.39916 0.02728,-0.0294 0.07014,-0.0476 0.09259,-0.0798 0.03212,-0.0461 0.03621,-0.13766 0.0926,-0.18627 0.02621,-0.0226 0.06636,-0.0306 0.0926,-0.0532 0.01327,-0.0114 0.257262,-0.36378 0.277779,-0.39916 0.02679,-0.0462 0.109322,-0.17021 0.12346,-0.21288 0.0085,-0.0256 -0.0075,-0.054 0,-0.0798 0.03155,-0.10877 0.158016,-0.22881 0.18519,-0.34594 0.03187,-0.13739 0.08487,-0.26607 0.12346,-0.39915 0.03354,-0.11564 0.04327,-0.26623 0.0926,-0.37255 0.07283,-0.15698 0.05609,-0.002 0.0926,-0.15966 0.0061,-0.0261 -0.01379,-0.056 0,-0.0798 0.0103,-0.0177 0.05,-0.0422 0.03088,-0.0532 -0.116583,-0.067 -0.62196,-0.0266 -0.802486,-0.0266 -0.03412,0 -0.265094,0.005 -0.24692,-0.0266 0.07381,-0.12727 0.09765,-0.0497 0.216054,-0.10644 0.523146,-0.25057 -0.04514,-0.01 0.216048,-0.15966 0.08192,-0.0471 0.241232,-0.11611 0.339517,-0.13306 0.03027,-0.005 0.06394,0.01 0.09259,0 0.02701,-0.009 0.03678,-0.0403 0.06173,-0.0532 0.02791,-0.0144 0.0635,-0.0141 0.0926,-0.0266 0.08755,-0.0377 0.159013,-0.12176 0.246918,-0.15966 0.05752,-0.0248 0.215646,-0.0525 0.246912,-0.10644 0.01404,-0.0242 -0.01261,-0.0414 -0.03088,-0.0532 -0.228115,-0.14751 -0.999616,0.0695 -1.080266,0 -0.03095,-0.0267 -0.03901,-0.0713 -0.03088,-0.10644 0.02922,-0.12596 0.300512,-0.22828 0.432111,-0.26611 0.09516,-0.0273 0.07145,-0.0574 0.18519,-0.10643 0.08621,-0.0372 0.226181,-0.0372 0.308651,-0.0798 0.01971,-0.0102 0.01244,-0.0413 0.03085,-0.0532 0.08586,-0.0555 0.186156,-0.007 0.277775,-0.0266 0.09086,-0.0196 0.168165,-0.0725 0.246926,-0.10643 0.05664,-0.0244 0.155147,-0.027 0.21606,-0.0532 0.06767,-0.0292 0.255034,-0.14005 0.308634,-0.18627 0.03781,-0.0326 0.04333,-0.0781 0.0926,-0.10644 0.0282,-0.0162 0.0749,-0.0227 0.09259,-0.0532 0.02313,-0.0399 0.04329,-0.13132 0.09259,-0.15966 0.01916,-0.011 0.04897,-0.0101 0.06173,-0.0266 0.0114,-0.0148 -0.0065,-0.0364 0,-0.0532 0.03907,-0.10103 0.301217,-0.22668 0.370383,-0.34593 0.105242,-0.18148 0.252617,-0.37203 0.401236,-0.53221 0.04997,-0.0538 0.01715,-0.069 0.06174,-0.13305 0.03146,-0.0452 0.09539,-0.0846 0.12346,-0.13305 0.01457,-0.0251 0.0128,-0.0565 0.03088,-0.0798 0.0242,-0.0313 0.07014,-0.0476 0.09259,-0.0798 0.02698,-0.0388 0.01137,-0.0911 0.03088,-0.13305 0.05338,-0.11506 0.159533,-0.26192 0.185191,-0.37255 0.008,-0.0348 -0.01132,-0.0723 0,-0.10644 0.01382,-0.0418 0.178681,-0.34103 0.154324,-0.37254 -0.02145,-0.0277 -0.457072,0.0386 -0.52471,0.0532 -0.0817,0.0176 -0.188706,0.10947 -0.246918,0.15966 -0.04565,0.0394 -0.126001,0.10754 -0.185182,0.13305 -0.0092,0.004 -0.04008,0.004 -0.03088,0 0.259868,-0.11203 0.966845,-0.6439 1.141994,-0.85153 0.08699,-0.10312 0.112607,-0.19885 0.18519,-0.29271 0.04365,-0.0565 -0.06798,-0.52718 -0.09259,-0.61204 -0.0064,-0.0221 -0.135268,-0.25986 -0.154332,-0.29271 -0.01839,-0.0317 0.01531,-0.0735 0,-0.10645 -0.01079,-0.0233 -0.04558,-0.0323 -0.06172,-0.0532 -0.05105,-0.066 -0.09195,-0.55798 -0.09259,-0.55881 -0.01616,-0.0209 -0.04559,-0.0324 -0.06173,-0.0532 -0.03885,-0.0503 0.03171,-0.15817 0,-0.21289 -0.04498,-0.0776 -0.03568,-0.17624 -0.06173,-0.2661 -0.04716,-0.16266 -0.166554,-0.31379 -0.246918,-0.45238 -0.02302,-0.0397 -0.06906,-0.0659 -0.0926,-0.10644 -0.0092,-0.0159 0.01143,-0.0385 0,-0.0532 -0.0242,-0.0313 -0.07306,-0.0462 -0.09259,-0.0798 -0.02381,-0.0411 -0.01418,-0.11654 -0.03088,-0.15966 -0.01379,-0.0357 -0.07307,-0.0462 -0.09259,-0.0798 -0.02973,-0.0513 -0.02931,-0.13038 -0.06173,-0.18627 -0.06019,-0.10379 -0.152859,-0.21036 -0.216046,-0.31933 -0.05025,-0.0866 -0.03616,-0.12469 -0.06173,-0.21288 -0.01501,-0.0518 -0.09617,-0.11261 -0.123465,-0.15966 -0.0046,-0.008 -0.01523,-0.17303 -0.06173,-0.15966 -0.02963,0.009 -0.08694,0.0772 -0.09259,0.10644 -0.03104,0.16056 -0.07997,0.863 -0.03088,1.01119 0.01019,0.0308 0.04796,0.0501 0.06173,0.0798 0.03437,0.0741 0.01366,0.18324 0.06173,0.2661 0.02464,0.0425 0.03088,0.10854 0.03088,0.15967 0,0.009 0,0.0355 0,0.0266 0,-0.31913 -0.110647,-0.67529 -0.308648,-0.93136 -0.06917,-0.0895 -0.247713,-0.13441 -0.308656,-0.23949 -0.06831,-0.1178 -0.164601,-0.21288 -0.246909,-0.31933 -0.06207,-0.0803 -0.06076,-0.15711 -0.0926,-0.23949 -0.02935,-0.0759 -0.0927,-0.13331 -0.123466,-0.21288 -0.03011,-0.0779 -0.01024,-0.14188 -0.09259,-0.21288 -0.07238,-0.0624 0.0073,0.0188 -0.03088,-0.0798 -0.02643,-0.0684 -0.148327,-0.12271 -0.185188,-0.18627 -0.0046,-0.008 0,-0.0177 0,-0.0266 -0.01027,-0.0177 -0.01812,-0.0367 -0.03088,-0.0532 -0.06804,-0.088 -0.192472,-0.1456 -0.246917,-0.23949 -0.06123,-0.10557 -0.127709,-0.2202 -0.185191,-0.31933 -0.01839,-0.0317 0.01,-0.072 0,-0.10644 -0.01057,-0.0365 -0.0664,-0.0497 -0.0926,-0.0798 -0.04963,-0.0571 -0.03689,-0.14862 -0.06173,-0.21288 -0.0282,-0.073 -0.09755,-0.11925 -0.123463,-0.18627 -0.05238,-0.13549 0.0097,-0.31255 -0.03088,-0.45238 -0.03519,-0.12137 -0.11871,-0.22313 -0.154323,-0.34593 -0.0207,-0.0713 0.0066,-0.17491 -0.03088,-0.23949 -0.0231,-0.0398 -0.07417,-0.0906 -0.09259,-0.10645 -0.07714,-0.0665 0.09537,-0.32412 0.12346,-0.37254 0.03413,-0.0588 0.01916,-0.008 0.06173,-0.0266 0.05682,-0.0245 0.0049,-0.0553 0.06173,-0.0798 0.209865,-0.0905 0.618466,-0.0798 0.864218,-0.0798 z"
         style="display:inline;fill:#5a5161;fill-opacity:1;fill-rule:evenodd;stroke:none;stroke-width:0.5291667;stroke-miterlimit:4;stroke-dasharray:none;stroke-opacity:1" />
      <path
         sodipodi:nodetypes="ccccccccccccccccscsccccccccccccccccccccccccccccccccccccccccccccccccccccccccccccccccccccccccccccccccccccccccccccccccccccccccccccccccccccccccccccccccccccccccccccccccccccccccccccccccccccccccccccccccccccccccccccccccccccccccccccccccccccccccccccccccccccccccccccccccccccccccccccccsccccccccccccccccccccccsccccccccccccccccccccccccccccccccccc"
         inkscape:transform-center-y="15.19263"
         inkscape:transform-center-x="3.086352"
         inkscape:connector-curvature="0"
         id="path5652"
         d="m 31.557156,148.82439 c -0.13566,0.0675 -0.366287,0.0481 -0.482379,0.20687 -0.03425,0.0468 -0.04888,0.12717 -0.08236,0.17294 -0.0201,0.0275 -0.05604,-0.004 -0.07852,0.0168 -0.06813,0.0642 -0.146965,0.14286 -0.205773,0.25115 -0.04532,0.0834 -0.08441,0.11539 -0.134702,0.18415 -0.02412,0.033 -0.03506,0.15503 -0.06363,0.11716 -0.01118,-0.0149 0.01523,-0.0794 0.01875,-0.0558 0.0055,0.0374 -0.01192,0.0687 -0.01129,0.10595 0.0022,0.11244 0.05356,0.49522 0.08934,0.60206 0.0099,0.0295 0.06481,0.10982 0.07468,0.1393 0.02728,0.0815 0.05791,0.30821 0.05955,0.40136 0.0033,0.19015 0.02095,0.40348 0.0034,0.56871 -0.01162,0.10891 0.07844,0.29958 0.05955,0.40136 -0.01079,0.0582 -0.0598,0.12599 -0.02258,0.2119 0.0053,0.0123 0.04687,0.0774 0.05979,0.039 0.04308,-0.12832 0.178536,-0.10216 0.273002,-0.16202 0.06634,-0.042 0.138363,-0.0923 0.194496,-0.14519 0.07383,-0.0696 0.276716,-0.069 0.34768,-0.0227 0.151463,0.0987 0.345808,-0.20522 0.497271,-0.10652 0.02522,0.0164 0.04281,0.0673 0.06724,0.0891 0.04594,0.0411 0.216051,-0.0463 0.261719,-0.0561 0.06551,-0.014 0.254714,-0.10492 0.30278,0.0387 0.03528,0.10541 -0.06079,0.66555 -0.105159,0.74725 -0.05051,0.093 -0.08662,0.1133 -0.127252,0.23432 -0.04475,0.13328 -0.140403,0.12461 -0.172153,0.29571 -0.02112,0.11382 -0.07948,0.12056 -0.06363,0.11716 0.144844,-0.031 0.120544,-0.0743 0.213218,-0.20097 0.04917,-0.0672 0.283205,-0.11244 0.358963,-0.12867 0.111373,-0.0239 0.137298,0.22167 0.07827,0.3456 -0.0588,0.12347 -0.117973,0.16128 -0.179607,0.24553 -0.06469,0.0884 -0.449401,0.90987 -0.381996,1.06539 0.05351,0.12347 0.628066,-0.45185 0.635808,-0.4468 0.04149,0.027 0.03943,0.0837 0.04852,0.1449 0.03162,0.21318 0.02826,0.50452 -0.06771,0.63569 -0.03667,0.0501 -0.08306,0.004 -0.123419,0.0782 -0.0586,0.10791 0.0266,0.12243 0.112139,0.0277 0.108387,-0.11998 0.141604,-0.30333 0.228334,-0.46304 0.128768,-0.2371 -0.06051,0.16198 0.115974,-0.12837 0.201888,-0.33214 -0.168503,0.13984 0.101084,-0.22872 0.0067,-0.009 0.01743,-0.004 0.02621,-0.006 0.02368,-0.0223 0.05145,-0.0347 0.07107,-0.067 0.01751,-0.0289 0.01624,-0.0916 0.03745,-0.11156 0.03089,-0.0291 0.04571,0.12613 0.05593,0.19508 0.02357,0.15894 -0.0077,0.31308 -0.01151,0.46836 -0.0011,0.0385 0.118116,0.97794 0.130172,1.0592 0.01388,0.0935 -0.0037,0.15638 0.01104,0.25646 0.0055,0.0374 0.05093,0.0653 0.04107,0.0947 -0.0062,0.0186 -0.03985,-0.026 -0.03363,-0.0446 0.01393,-0.0416 0.04991,-0.0381 0.07107,-0.067 0.07452,-0.10188 0.15841,-0.25478 0.209611,-0.40727 0.06715,-0.19999 0.01836,-0.18932 0.05258,-0.37362 0.03684,-0.1985 0.101432,-0.37444 0.161105,-0.55217 0.04587,-0.13663 0.180284,-0.372 0.194722,-0.50761 0.0034,-0.0316 -0.02043,-0.0704 -0.0149,-0.10034 0.01005,-0.0542 0.08019,-0.19023 0.101088,-0.22872 0.07371,-0.13571 0.227017,-0.15949 0.310459,-0.27357 0.151782,-0.2075 0.322829,-0.32064 0.463891,-0.5135 0.03417,-0.0467 0.162369,-0.0348 0.209377,-0.0448 0.02998,-0.006 0.103772,-0.0457 0.130861,-0.028 0.100479,0.0655 0.09408,0.25312 0.138069,0.38455 0.117114,0.34987 -0.01933,-0.0775 0.07468,0.1393 0.06176,0.14249 0.06804,0.51089 0.07059,0.65783 0.0025,0.1319 0.08009,0.32868 0.067,0.45154 -0.03058,0.28717 0.07624,0.60517 0.08165,0.91429 0.0017,0.10776 -0.01696,0.15697 -0.01512,0.26207 0.0011,0.0696 -0.0037,0.77728 -0.01919,0.7806 -0.0087,0.002 -0.01536,-0.0607 -0.0074,-0.0502 0.08382,0.11112 -0.0088,0.18501 0.138306,0.0221 0.03311,-0.0367 0.06334,-0.31047 0.07875,-0.37923 0.05055,-0.22559 0.06951,-0.4964 0.138773,-0.70269 0.04292,-0.12783 0.181361,-0.21777 0.25067,-0.31252 0.03018,-0.0413 0.06806,-0.11428 0.123419,-0.0782 0.07744,0.0505 0.124774,0.65883 0.145294,0.79713 0.01746,0.11759 0.0093,0.26131 0.01104,0.25646 0.02442,-0.0727 -0.0035,-0.29749 1.46e-4,-0.36241 0.006,-0.10387 0.04391,-0.18336 0.06746,-0.27328 0.03678,-0.14038 0.04198,-0.1046 0.101087,-0.22872 0.04612,-0.0968 0.06625,-0.23782 0.112368,-0.33466 0.129203,-0.27132 0.246772,-0.48825 0.407937,-0.70858 0.08305,-0.11354 0.100077,-0.18417 0.205774,-0.25115 0.04636,-0.0294 0.142193,-0.0533 0.190649,0.0109 0.01726,0.0229 0.283219,1.54009 0.279296,1.7002 -0.0028,0.11518 0.04385,0.30875 0.03337,0.40698 -0.02263,0.21259 -0.01159,0.28591 0.02208,0.51293 0.05002,0.33711 0.0464,0.67659 0.09655,1.01463 0.01985,0.13379 0.0397,0.26758 0.05956,0.40137 0.0074,0.0502 0.02977,0.20068 0.02233,0.15051 -0.117549,-0.79221 0.288026,-1.50376 0.356532,-2.14701 0.0025,-0.0241 0.05653,-0.27752 0.06746,-0.27328 0.147369,0.0572 0.300366,0.81353 0.365708,1.00874 0.02197,0.0656 0.06016,0.12385 0.08213,0.18947 0.02555,0.0764 0.08622,0.2496 0.10829,0.18387 0.01426,-0.0424 -0.05328,-0.30427 -0.05211,-0.3512 0.0014,-0.0593 0.02997,-0.1019 0.02999,-0.16173 1.46e-4,-0.0664 -0.02376,-0.13337 -0.02977,-0.20068 -0.02706,-0.30285 0.0028,-0.65892 0.08282,-0.89776 0.0504,-0.1501 0.397513,-1.05528 0.50158,-0.98747 0.102599,0.0668 0.08463,0.29556 0.119344,0.44033 0.07575,0.31591 0.377398,2.05346 0.383513,2.4026 0.0017,0.0944 0.0025,0.37996 0.01462,0.46275 0.0089,0.0603 0.02997,-0.1019 0.03002,-0.16173 1.46e-4,-0.0235 -0.02092,-0.41571 -0.01462,-0.46275 0.01324,-0.0994 0.0497,-0.17754 0.06747,-0.27328 0.07032,-0.37895 0.168591,-1.28361 0.374792,-1.47797 0.09913,-0.0934 0.109468,0.13807 0.141909,0.22843 0.03142,0.0875 0.08433,0.14656 0.11574,0.23404 0.06672,0.18581 0.05011,0.44374 0.122937,0.64662 0.04291,0.11954 0.08786,0.16107 0.123182,0.28421 0.01429,0.0499 0.02991,0.17915 0.04852,0.1449 0.06536,-0.12036 0.02244,-0.14096 0.01512,-0.26207 -0.0089,-0.14749 0.03988,-0.80887 0.108995,-0.90337 0.03616,-0.0494 0.103942,-0.0817 0.142145,-0.13398 0.0095,-0.0129 0.0064,-0.0531 0.01872,-0.0558 0.06039,-0.0129 0.08685,0.25234 0.09701,0.28981 0.06576,0.24263 0.141064,0.44341 0.208909,0.67997 0.04335,0.1511 0.03729,0.34677 0.07444,0.50171 0.102519,0.42753 -0.0223,-0.33232 0.06341,0.24524 0.02037,0.13714 -0.01713,-0.0725 0.07468,0.1393 0.01836,0.0424 -0.004,0.15612 0.02233,0.15052 0.0014,-3.1e-4 0.0612,-0.46353 0.06386,-0.47958 0.03781,-0.22767 0.04432,-0.46454 0.08643,-0.69147 0.01891,-0.10189 0.08232,-0.17253 0.09364,-0.27888 0.005,-0.0474 -0.02354,-0.10115 -0.02233,-0.15052 0.0034,-0.13654 0.157901,-0.52498 0.205999,-0.61355 0.0366,-0.0674 0.09552,-0.09 0.142147,-0.13398 0.0354,-0.0334 0.117214,-0.14178 0.175766,-0.0894 0.1834,0.164 0.232295,0.54357 0.309757,0.81366 -0.0025,0.0942 0.05624,0.0842 0.07468,0.1393 0.08899,0.26586 0.07721,0.66046 0.08165,0.91429 0.0025,0.14562 0.06444,0.30593 0.067,0.45154 0.0042,0.23705 -0.02445,0.017 -0.0037,0.15612 0.03217,0.21693 0.03091,0.50759 0.02571,0.71922 -0.0019,0.0822 0.01322,0.16776 0.01104,0.25646 -5.78e-4,0.0165 0.0047,0.0651 0.0074,0.0502 0.0612,-0.32983 -0.03507,-0.69143 -0.01803,-1.03145 0.0084,-0.16761 0.04148,-0.32053 0.06386,-0.47957 0.01861,-0.13235 0.09103,-0.2544 0.104926,-0.38484 0.0053,-0.0499 -0.0048,-0.10884 0.004,-0.15612 0.02084,-0.11225 0.12723,0.14807 0.134465,0.17826 0.05363,0.22361 0.09471,0.70189 0.160185,0.89747 0.01842,0.0551 0.05261,0.0884 0.07468,0.1393 0.02106,0.0486 0.07885,0.34947 0.08572,0.39576 0.0056,0.0376 0.11362,0.50507 0.126783,0.4905 0.08076,-0.0894 0.172093,-0.53675 0.224738,-0.66933 0.146782,-0.36966 -0.03208,0.14166 0.16087,-0.18976 0.03441,-0.0591 0.04291,-0.15952 0.07491,-0.22312 0.04722,-0.0938 0.146092,-0.079 0.194488,-0.14519 0.02414,-0.033 0.03661,-0.0917 0.06363,-0.11716 0.0535,-0.0504 0.204848,-0.0308 0.269169,-0.006 0.166562,0.0646 0.416858,1.46989 0.578455,1.53259 0.164883,0.064 0.223962,-0.4374 0.291969,-0.58021 0.115636,-0.24282 0.272374,-0.40923 0.430272,-0.55806 0.02843,-0.0268 0.07626,0.004 0.104686,-0.0224 0.04053,-0.0382 0.04128,-0.0943 0.09725,-0.0726 0.05616,0.0218 0.104188,0.21073 0.123182,0.28421 0.08035,0.31085 0.225016,0.58515 0.343375,0.85823 0.0613,0.14141 0.09764,0.35725 0.152961,0.48489 0.05656,0.13049 0.105834,0.16727 0.130629,0.33437 0.01418,0.0954 0.03367,0.42285 0.09319,0.44593 0.136786,0.0531 0.244371,-0.13502 0.344077,-0.229 0.04057,-0.0382 0.304151,-0.32713 0.321744,-0.37952 0.02574,-0.0767 0.01556,-0.19102 0.0413,-0.26768 0.102924,-0.30655 0.234556,-0.60872 0.318372,-0.94822 0.02709,-0.10976 0.01823,-0.27129 0.05258,-0.37362 0.03953,-0.11773 0.130209,0.1664 0.134465,0.17826 0.05802,0.16158 0.134501,0.30661 0.179136,0.47928 0.03167,0.12253 0.234066,1.12116 0.275906,1.13151 0.187355,0.0463 0.07806,-0.54948 0.131332,-0.75286 0.04464,-0.17044 0.110363,-0.25331 0.116206,-0.49078 0.0025,-0.095 -0.0217,-0.3694 0.01151,-0.46836 0.01305,-0.0388 0.11846,-0.29287 0.145984,-0.2901 0.147884,0.0149 0.457928,0.59459 0.552755,0.81337 0.04647,0.10722 0.11033,0.16202 0.149354,0.2786 0.0019,0.007 0.01184,0.13466 0.04107,0.0947 0.06563,-0.0897 0.03577,-0.49321 0.0677,-0.63569 0.01936,-0.0863 0.124305,-0.49252 0.168547,-0.502 0.009,-0.002 0.111685,0.12214 0.127023,0.12809 0.397613,0.15426 0.430098,0.76612 0.627199,1.31508 0.01944,0.0541 0.05624,0.0842 0.07468,0.1393 0.03393,0.10144 0.01814,0.24976 0.05211,0.3512 0.01446,0.0432 0.04992,0.0492 0.06723,0.0891 0.0367,0.0846 0.198582,1.15623 0.23463,1.39918 0.01674,0.11285 0.05543,0.60263 0.122937,0.64663 0.09129,0.0595 -0.0055,-0.38466 -0.0072,-0.41259 -0.01432,-0.23713 0.243275,-1.40503 0.311161,-1.3608 0.165029,0.10753 0.544476,1.12574 0.571248,1.12001 0.08042,-0.0172 0.04021,-0.35524 0.04513,-0.4238 0.01087,-0.15184 0.08427,-0.43107 0.101318,-0.59113 0.01567,-0.14692 0.05452,-1.17523 0.06432,-1.20439 0.02381,-0.071 0.14319,0.0689 0.14575,0.0723 0.224116,0.2971 0.45246,0.66148 0.661053,0.99724 0.140428,0.22605 -0.01407,-0.059 0.160634,0.17265 0.03878,0.0514 0.08818,0.21891 0.123182,0.2842 0.0011,0.002 0.0787,0.064 0.09341,0.0835 0.05416,0.0718 0.03653,0.14962 0.08957,0.23964 0.07052,0.11972 0.06133,0.0436 0.108293,0.18386 0.01143,0.0341 0.04017,0.13153 0.04105,0.0947 0.0014,-0.0658 -0.02489,-0.13341 -0.02977,-0.20068 -0.01432,-0.19687 0.02393,-0.37971 0.0228,-0.57431 -0.0014,-0.22036 -0.118896,-0.80694 -0.10399,-1.06481 0.01396,-0.24219 0.19934,-0.47807 0.250905,-0.67494 0.0198,-0.0756 7.4e-5,-0.18155 0.01512,-0.26207 0.01076,-0.058 0.07505,-0.2235 0.09365,-0.27888 0.01393,-0.0416 0.05711,-0.0254 0.07107,-0.067 0.0228,-0.0679 -0.0045,-0.11472 0.03002,-0.16173 0.07915,-0.10821 0.152239,0.12027 0.194259,0.21722 0.06256,0.14434 0.312533,0.99536 0.36931,1.21503 0.03697,0.14298 0.04664,0.37154 0.100633,0.4961 0.04069,0.0939 0.01924,0.0853 0.05596,0.19507 0.01941,0.058 0.08145,0.0757 0.100851,0.13369 0.02876,0.0859 0.03986,0.15417 0.0634,0.24525 0.124402,0.48127 0.03395,0.0963 0.04107,0.0947 0.0087,-0.002 0.0099,0.0669 0.0074,0.0502 -0.02095,-0.14134 -0.09297,-0.45446 -0.08933,-0.60205 0.0058,-0.24202 -0.0039,-0.72388 2.75e-4,-0.72482 0.07094,-0.0152 0.442143,1.07653 0.45958,0.36744 0.0055,-0.2215 0.04383,-0.45401 0.03407,-0.68026 -0.0085,-0.19562 -0.03831,-4.4e-4 -0.01104,-0.25646 0.01781,-0.16731 0.03829,-0.33742 0.03025,-0.52414 -0.0017,-0.0392 -0.01715,-0.39243 0.06002,-0.32346 0.0054,0.005 0.399763,0.60366 0.418289,0.63512 0.03581,0.0608 -0.0049,0.11446 0.05594,0.19508 0.0177,0.0235 0.04207,0.0155 0.05979,0.039 0.02227,0.0296 0.06132,0.19169 0.08957,0.23964 0.04084,0.0693 0.09704,0.10257 0.134465,0.17826 0.0091,0.0185 0.07319,0.24315 0.11574,0.23403 0.01148,-0.002 -0.03945,-0.15607 -0.05955,-0.40137 -0.02728,-0.33254 0.06136,-1.3666 0.348385,-1.10994 0.05775,0.0516 0.334533,0.52783 0.392114,0.64072 0.07051,0.13826 0.21805,0.61416 0.343609,0.49581 0.06677,-0.0629 0.06978,-0.20219 0.119812,-0.28449 0.183172,-0.30135 0.326656,-0.66578 0.374551,-1.11555 0.008,-0.0754 -0.06969,-0.96862 -0.03676,-0.97568 0.0756,-0.0162 0.321682,0.83101 0.358264,0.95857 0.01277,0.0446 0.04992,0.0492 0.06723,0.0891 0.02048,0.0474 -0.01126,0.10594 0.02233,0.15051 0.01121,0.0149 0.01478,-0.0346 0.01875,-0.0558 0.0047,-0.0253 -8.26e-4,-0.1308 0.004,-0.15612 0.0484,-0.26082 0.06745,-0.2725 0.07515,-0.58552 0.0014,-0.0494 -0.02737,-0.10313 -0.02233,-0.15051 0.0067,-0.0636 0.04941,-0.10377 0.05618,-0.16734 0.0063,-0.059 -5.51e-4,-0.35857 1.46e-4,-0.36241 0.03257,-0.17552 0.04437,-0.0396 0.04874,-0.2175 0.410713,-0.74418 -0.469367,-1.45707 -2.406438,-1.65865 -0.02029,0.0225 -0.02084,0.0809 -0.03746,0.11155 -0.03655,0.0673 -0.161611,-1.4e-4 -0.209377,0.0448 -0.0748,0.0705 -0.654913,0.36059 -0.762837,0.31872 -0.168238,-0.0653 -0.353473,-0.29831 -0.519365,-0.4064 -0.06049,-0.0394 -0.135655,0.002 -0.198095,-0.0611 -0.02401,-0.0242 -0.155318,-0.26083 -0.186812,-0.16704 -0.01393,0.0416 0.0014,0.10618 -0.0037,0.15612 -0.01608,0.15114 -0.0659,0.81427 -0.135167,0.90897 -0.01396,0.019 -0.09305,0.0199 -0.104691,0.0224 -0.02618,0.006 -0.05178,0.0342 -0.07852,0.0168 -0.142953,-0.0931 -0.312814,-0.31049 -0.459577,-0.36743 -0.101674,-0.0394 -0.0011,0.0841 -0.112134,-0.0277 -0.05172,-0.0521 -0.105737,-0.13688 -0.160642,-0.17265 -0.05158,-0.0336 -0.09674,0.005 -0.138306,-0.0221 -0.02522,-0.0164 -0.04202,-0.0727 -0.06723,-0.0891 -0.07838,-0.0511 -0.45711,0.0979 -0.549618,0.11774 -0.12454,0.0267 -0.23061,-0.0203 -0.355128,-0.0274 -0.149679,-0.009 -0.320883,0.1592 -0.471099,0.10092 -0.08461,-0.0328 -0.162209,0.0317 -0.242994,3e-4 -0.08137,-0.0316 -0.148771,-0.0851 -0.231709,-0.10566 -0.06563,-0.0162 -0.123405,0.0329 -0.19065,-0.0109 -0.05856,-0.0382 -0.52664,-0.39018 -0.552988,-0.45096 -0.01225,-0.0282 -0.0045,-0.0698 -0.0149,-0.10035 -0.02233,-0.0667 -0.06687,-0.0385 -0.09341,-0.0835 -0.07845,-0.13318 -0.09793,-0.33415 -0.197861,-0.42351 -0.111742,-0.0999 -0.366484,0.31222 -0.452611,0.40756 -0.07002,0.0775 -0.423476,0.1982 -0.515996,0.1623 -0.374708,-0.14538 -0.736526,-0.86891 -1.094691,-1.00787 -0.03394,-0.0132 -0.06723,-0.11179 -0.100848,-0.1337 -0.148919,-0.097 -0.328512,-0.0487 -0.474705,-0.10537 -0.06885,-0.0267 -0.162113,-0.0787 -0.231712,-0.10566 -0.0272,-0.0105 -0.05178,0.0342 -0.07852,0.0168 -0.02522,-0.0164 -0.04281,-0.0673 -0.06723,-0.0891 -0.105072,-0.094 -0.22858,-0.066 -0.336399,-0.0832 -0.06171,-0.01 -0.07589,-0.0948 -0.127022,-0.12808 -0.06304,-0.0411 -0.151607,0.02 -0.216825,-0.005 -0.381196,-0.14789 -0.768817,-0.52469 -1.139822,-0.58407 -0.08195,-0.0131 -0.146748,-0.18302 -0.220429,-0.21161 -0.07802,-0.0303 -0.260907,0.0215 -0.306622,0.11745 -0.02329,0.0489 -0.02282,0.14243 -0.05619,0.16733 -0.06793,0.0507 -0.579086,0.16935 -0.654301,0.14017 -0.0311,-0.0121 -0.112491,-0.15464 -0.13447,-0.17826 -0.08183,-0.088 -0.231089,-0.20321 -0.295102,-0.35091 -0.06384,-0.14729 -0.08046,-0.23739 -0.201702,-0.26739 -0.167099,-0.0413 -0.330169,0.14787 -0.497274,0.10653 -0.08157,-0.0202 -0.09202,-0.0988 -0.153186,-0.12248 -0.165433,-0.0642 -0.480488,0.13484 -0.661754,0.09 -0.08702,-0.0215 -0.156122,-0.0404 -0.250434,-0.0499 -0.06956,-0.007 -0.139434,0.0622 -0.209383,0.0449 -0.04496,-0.0111 -0.21949,-0.12036 -0.265323,-0.15023 -0.08617,-0.0561 -0.233049,0.039 -0.321513,0.0171 -0.01911,-0.005 -0.170989,-0.14514 -0.212981,-0.16144 -0.249285,-0.0967 -0.542917,-0.27864 -0.788538,-0.4005 -0.109308,-0.0542 -0.210924,-0.20311 -0.313835,-0.29513 -1.45e-4,-1.1e-4 -0.205412,-0.0525 -0.224264,-0.0555 -0.07248,-0.0116 -0.144357,0.0126 -0.216822,-0.005 -0.07965,-0.0197 -0.129214,-0.0924 -0.205539,-0.11127 -0.06157,-0.0152 -0.121643,0.0545 -0.183202,0.0392 -0.08463,-0.0209 -0.188957,-0.0103 -0.276614,-0.0443 -0.02566,-0.01 -0.04203,-0.0727 -0.06723,-0.0891 -0.06569,-0.0428 -0.174957,0.0267 -0.242992,3e-4 -0.09439,-0.0366 -0.179576,-0.16424 -0.272776,-0.2004 -0.04624,-0.0179 -0.12952,-0.0288 -0.171916,-0.0667 -0.07738,-0.0692 -0.161843,-0.17312 -0.246601,-0.206 -0.04298,-0.0167 -0.01872,0.0558 -0.07852,0.0168 -0.05003,-0.0326 -0.108119,-0.13843 -0.16064,-0.17265 -0.0287,-0.0187 -0.07717,0.0331 -0.104691,0.0224 -0.122976,-0.0477 -0.132843,0.0118 -0.257878,-0.10006 -0.05409,-0.0484 -0.568583,0.1218 -0.654305,0.14017 -0.251675,0.0539 -0.483995,0.0519 -0.740265,0.10681 -0.31737,0.068 -0.684945,0.21363 -1.00199,0.16288 -0.125709,-0.0201 -0.238498,-0.13981 -0.351287,-0.18357 -0.08344,-0.0324 -0.182241,0.0836 -0.269166,0.006 -0.03664,-0.0328 -0.06241,-0.11878 -0.100848,-0.1337 -0.06804,-0.0264 -0.364814,0.0115 -0.407472,-0.0162 -0.109658,-0.0715 -0.237672,-0.10714 -0.343842,-0.13341 -0.06776,-0.0168 -0.141588,0.0711 -0.20938,0.0448 -0.07912,-0.0307 -0.169685,0.0366 -0.242995,3.1e-4 -0.02552,-0.0127 -0.04281,-0.0673 -0.06723,-0.0891 -0.01762,-0.0158 -0.412621,0.029 -0.485989,5.8e-4 -0.09135,-0.0354 -0.194375,-0.10694 -0.291498,-0.14462 -0.06373,-0.0247 -0.282161,0.009 -0.328953,-0.0331 -0.110715,-0.099 -0.196701,-0.1574 -0.325117,-0.18918 -0.01812,-0.004 -0.03452,0.0228 -0.05235,0.0112 -0.02522,-0.0164 -0.0428,-0.0673 -0.06723,-0.0891 -0.03767,-0.0337 -0.320993,-0.0348 -0.355125,-0.0275 z"
         style="display:inline;fill:#5a5161;fill-opacity:1;fill-rule:evenodd;stroke:none;stroke-width:0.5291667;stroke-miterlimit:4;stroke-dasharray:none;stroke-opacity:1" />
      <path
         inkscape:connector-curvature="0"
         id="path5641"
         d="m 28.160809,149.72984 c -0.05322,0.0266 -0.106443,0.0532 -0.159663,0.0798 -0.01773,0.0177 -0.03144,0.0408 -0.05322,0.0532 -0.124515,0.0712 -0.280381,0.12689 -0.399155,0.18627 -0.139555,0.0698 -0.294521,0.32077 -0.425767,0.42577 -0.100787,0.0806 -0.218694,0.13238 -0.319322,0.21288 -0.04771,0.0382 -0.08225,0.0992 -0.133052,0.13305 -0.182608,0.12174 -0.132626,0.18585 -0.239495,0.29272 -0.01401,0.014 -0.03919,0.0126 -0.05322,0.0266 -0.0286,0.0286 -0.07983,0.12177 -0.07983,0.15966 0,0.009 -0.0063,0.0329 0,0.0266 0.01401,-0.014 0.01258,-0.0392 0.0266,-0.0532 0.03109,-0.0311 0.36869,-0.18371 0.452374,-0.2395 0.161554,-0.1077 -0.08332,0.0766 0.133053,-0.0532 0.0215,-0.0129 0.03078,-0.042 0.05322,-0.0532 0.0079,-0.004 0,0.0177 0,0.0266 0,0.1815 -0.239462,0.33703 -0.345935,0.47899 -0.05156,0.0688 -0.02762,0.14787 -0.05322,0.18627 -0.02376,0.0357 -0.06653,0.0666 -0.07983,0.10644 -0.01845,0.0554 0.01154,0.12865 0,0.18627 -0.04481,0.22406 -5.5e-4,8.3e-4 -0.05322,0.10645 -0.0081,0.0163 -0.01137,0.29271 -0.13305,0.29271 -0.0589,0 0.06591,-0.12548 0.10644,-0.18627 0.02472,-0.0371 0.09111,-0.18628 0.133052,-0.18628 0.04124,0 0.0266,0.0928 0.0266,0.10645 0,0.14113 -0.1376,0.57246 -0.186272,0.71847 -0.02964,0.0889 -0.02978,0.53855 -0.05322,0.58543 -0.0309,0.0618 -0.106442,0.23434 -0.106442,0.29272 0,0.0915 -0.03304,0.10556 -0.05322,0.18627 -0.0099,0.0394 0.01478,0.0961 0,0.13305 -0.01399,0.0349 -0.0422,0.0798 -0.07983,0.0798 -0.04172,0 0.08887,-0.21753 0.212882,-0.37254 0.05775,-0.0722 0.03269,-0.0593 0.10644,-0.13306 0.0088,-0.009 0.01578,-0.14915 0.07983,-0.10644 0.13232,0.0882 0.06374,0.35089 0.106439,0.47899 0.0079,0.0238 0.03931,0.0324 0.05322,0.0532 0.0098,0.0148 -0.0079,0.0374 0,0.0532 0.01611,0.0322 0.152771,0.19465 0.186272,0.18627 0.03103,-0.008 0.05721,-0.0306 0.07983,-0.0532 0.02365,-0.0237 0.03013,-0.14009 0.05322,-0.18627 0.0401,-0.0802 0.09135,-0.17553 0.106442,-0.2661 0.03181,-0.19086 -0.03092,-0.28625 0.07983,-0.45238 0.05724,-0.0859 0.0014,-0.10644 0.133053,-0.10644 0.08788,0 0.118666,0.0115 0.159662,0.0798 0.01646,0.0274 0.03548,0.0532 0.05322,0.0798 0.0089,0.0355 0.0085,0.0747 0.0266,0.10644 0.03735,0.0653 0.117915,0.097 0.159665,0.15967 0.03698,0.0555 0.04842,0.16052 0.07983,0.21288 0.06468,0.1078 0.142631,0.18734 0.212882,0.29271 0.02252,0.0338 0.08693,0.15966 0.13305,0.15966 0.05737,0 0.0266,-0.20714 0.0266,-0.23949 0,-0.16176 0.04132,-0.54723 0,-0.69187 -0.06576,-0.23018 -0.05322,0.0881 -0.05322,-0.10644 0,-0.0607 -0.02662,-0.11947 -0.02662,-0.18627 0,-0.0366 -8.26e-4,-0.1323 -0.0266,-0.10644 -0.09009,0.0901 0.28937,0.22665 0.319325,0.23949 0.113686,0.0487 0.158035,0.15804 0.239492,0.23949 0.09442,0.0944 0.204421,0.15543 0.319325,0.21289 0.01123,0.006 0.01407,0.0266 0.0266,0.0266 0.05057,0 -0.181903,-0.41703 -0.186273,-0.42577 -0.06082,-0.12164 -0.116607,-0.26999 -0.159662,-0.39916 -0.01432,-0.0429 -0.0033,-0.0943 -0.0266,-0.13305 -0.09837,-0.16394 -0.238339,-0.40377 -0.186272,-0.61203 0.01459,-0.0584 0.05696,-0.0607 0.07983,-0.10645 0.0079,-0.0159 -0.0079,-0.0374 0,-0.0532 0.01723,-0.0345 0.07653,-0.0333 0.10644,-0.0532 0.04667,-0.0311 0.05724,-0.0102 0.106442,-0.0266 0.16363,-0.0545 0.114094,-0.0988 0.266102,0.0532 0.01743,0.0174 0.220994,0.15696 0.133053,0.18628 -0.05476,0.0182 -0.327695,-0.23799 -0.345935,-0.29272 -0.02412,-0.0724 -0.03131,-0.33653 0,-0.39915 0.07024,-0.14049 0.326233,-0.27728 0.452375,-0.31933 0.03776,-0.0126 0.09775,0.0177 0.133052,0 0.110746,-0.0554 -0.02845,0.002 0.0266,-0.0532 0.02437,-0.0244 0.205385,-0.0305 0.239495,-0.0532 0.03131,-0.0209 0.04413,-0.0679 0.07983,-0.0798 0.02525,-0.008 0.05603,0.0119 0.07983,0 0.08317,-0.0416 0.251632,-0.21055 0.292712,-0.29271 0.02673,-0.0535 0,-0.17909 0,-0.2395 0,-0.32081 -0.178243,-0.41372 -0.345934,-0.66525 -0.02225,-0.0334 -0.03927,-0.0862 -0.07983,-0.10644 -0.182346,-0.0912 -0.893824,-0.0826 -1.117634,-0.0266 -0.07744,0.0194 -0.07624,0.0609 -0.133052,0.0798 -0.03366,0.0112 -0.07278,-0.0112 -0.106443,0 -0.04906,0.0163 -0.0567,0.0868 -0.07983,0.13305 z"
         style="display:inline;fill:#5a5161;fill-opacity:1;fill-rule:evenodd;stroke:none;stroke-width:0.5291667;stroke-miterlimit:4;stroke-dasharray:none;stroke-opacity:1" />
      <path
         inkscape:connector-curvature="0"
         id="path4519"
         d="m 30.801679,152.03932 v -0.65082 l 0.02552,-0.22971 0.08933,-0.61254 0.127612,-0.63806 0.01275,-0.63807 -0.165899,-0.76568 -0.280746,-0.56149 -0.229707,-0.37008 -0.382839,-0.34456 -0.357317,-0.17866 h -0.242465 l -0.20418,0.0255 -0.140376,0.12761 -0.03828,0.14037 0.07657,0.19142 v 0.44665 l -0.07657,0.21694 c 0,0 -0.01278,0.29351 -0.01278,0.35732 0,0.0638 -0.02552,0.38284 -0.02552,0.38284 l 0.03828,0.2297 -0.03828,0.25523 0.07657,0.40836 0.06381,0.20418 0.102095,0.25523 c 0,0 0.08932,0.19142 0.08932,0.25522 0,0.0638 0.03829,0.28075 0.03829,0.28075 l -0.06381,0.2297 -0.03828,0.20418 0.02552,0.21695 0.29351,0.31903 c 0,0 0.05104,0.14037 0.127612,0.1659 0.07657,0.0255 0.306272,0.0893 0.306272,0.0893 l 0.510451,0.0383 0.102092,-0.0255 z"
         style="display:inline;fill:#835642;fill-opacity:1;fill-rule:evenodd;stroke:none;stroke-width:0.5291667;stroke-miterlimit:4;stroke-dasharray:none;stroke-opacity:1" />
      <path
         inkscape:connector-curvature="0"
         id="path4525"
         d="m 27.516612,156.02884 c 0.139379,0 0.278761,0 0.418138,0 0.12765,0.10174 0.24314,0.21731 0.363596,0.32723 0.03636,0.0667 0.07272,0.13332 0.10908,0.19998 -0.123471,0.1213 -0.240871,0.24908 -0.374507,0.35951 -0.116712,0.10507 -0.237637,0.2051 -0.361301,0.30186 -0.02935,0.0212 -0.05591,0.0493 -0.08695,0.0663 -0.187817,0.0173 -0.375816,0.0382 -0.563511,0.0532 -0.151034,-0.0314 -0.303929,-0.0584 -0.453801,-0.0926 -0.03506,-0.0234 -0.07012,-0.0468 -0.105179,-0.0701 0.04011,-0.18008 0.06281,-0.36321 0.0909,-0.5454 0.03274,-0.0749 0.06053,-0.15258 0.09635,-0.22579 0.05878,-0.0823 0.117565,-0.16459 0.176347,-0.24688 0.124446,-0.0358 0.247881,-0.0774 0.37296,-0.1096 0.105958,-0.006 0.211919,-0.0118 0.317877,-0.0177 z"
         style="display:inline;fill:#000000;fill-opacity:1;fill-rule:evenodd;stroke:none;stroke-width:0.5291667;stroke-miterlimit:4;stroke-dasharray:none;stroke-opacity:1" />
      <path
         inkscape:connector-curvature="0"
         id="path4527"
         d="m 21.86266,165.00971 c 0.140619,0.15037 0.2832,0.29895 0.418138,0.4545 -0.0014,0.16312 8.26e-4,0.32617 0.009,0.48911 0.0031,0.0794 0.0061,0.15872 0.0091,0.23809 -0.04242,0.0727 -0.08484,0.14544 -0.12726,0.21816 -0.11514,0.0606 -0.230277,0.1212 -0.345417,0.18179 -0.104116,-0.0194 -0.209664,-0.0349 -0.312885,-0.0568 -0.144164,-0.0841 -0.288329,-0.16819 -0.432493,-0.25228 -0.03603,-0.094 -0.07776,-0.18654 -0.11025,-0.28148 -0.01082,-0.0909 -0.02682,-0.18174 -0.03445,-0.27275 0.0092,-0.11841 0.01809,-0.23686 0.03967,-0.3538 0.0086,-0.0446 0.0065,-0.093 0.03611,-0.13033 0.06539,-0.11444 0.130787,-0.22888 0.196181,-0.34332 0.06808,-0.017 0.13617,-0.0403 0.204254,-0.0534 0.09311,0.0273 0.189711,0.0446 0.277132,0.0883 0.0577,0.0247 0.115401,0.0495 0.1731,0.0742 z"
         style="display:inline;fill:#000000;fill-opacity:1;fill-rule:evenodd;stroke:none;stroke-width:0.5291667;stroke-miterlimit:4;stroke-dasharray:none;stroke-opacity:1" />
      <path
         inkscape:connector-curvature="0"
         id="path4529"
         d="m 22.935273,168.15484 0.25452,-0.1818 0.236339,-0.19998 0.236337,-0.29088 0.23634,-0.30906 0.23634,-0.2727 0.127259,-0.23634 0.163619,-0.21815 0.10908,-0.14544 0.01817,-0.0182"
         style="display:inline;fill:none;fill-opacity:1;fill-rule:evenodd;stroke:#000000;stroke-width:0.5291667;stroke-linecap:round;stroke-miterlimit:4;stroke-dasharray:none;stroke-opacity:1" />
    </g>
  </g>
</svg>
