<?xml version="1.0" encoding="UTF-8" standalone="no"?>
<!-- Created with Inkscape (http://www.inkscape.org/) -->

<svg
   xmlns:dc="http://purl.org/dc/elements/1.1/"
   xmlns:cc="http://creativecommons.org/ns#"
   xmlns:rdf="http://www.w3.org/1999/02/22-rdf-syntax-ns#"
   xmlns:svg="http://www.w3.org/2000/svg"
   xmlns="http://www.w3.org/2000/svg"
   xmlns:sodipodi="http://sodipodi.sourceforge.net/DTD/sodipodi-0.dtd"
   xmlns:inkscape="http://www.inkscape.org/namespaces/inkscape"
   width="80.822334mm"
   height="57.149998mm"
   viewBox="0 0 80.822334 57.149998"
   version="1.1"
   id="svg9014"
   inkscape:version="0.92.1 r15371"
   sodipodi:docname="horse02.svg"
   inkscape:export-filename="/home/ashley/Pictures/games/horseplays/export/horse02.png"
   inkscape:export-xdpi="96"
   inkscape:export-ydpi="96">
  <defs
     id="defs9008" />
  <sodipodi:namedview
     id="base"
     pagecolor="#ffffff"
     bordercolor="#666666"
     borderopacity="1.0"
     inkscape:pageopacity="0.0"
     inkscape:pageshadow="2"
     inkscape:zoom="1"
     inkscape:cx="-51.69345"
     inkscape:cy="117.71429"
     inkscape:document-units="mm"
     inkscape:current-layer="layer1"
     showgrid="false"
     fit-margin-top="0"
     fit-margin-left="0"
     fit-margin-right="0"
     fit-margin-bottom="0"
     inkscape:window-width="1873"
     inkscape:window-height="1056"
     inkscape:window-x="47"
     inkscape:window-y="24"
     inkscape:window-maximized="1" />
  <metadata
     id="metadata9011">
    <rdf:RDF>
      <cc:Work
         rdf:about="">
        <dc:format>image/svg+xml</dc:format>
        <dc:type
           rdf:resource="http://purl.org/dc/dcmitype/StillImage" />
        <dc:title />
      </cc:Work>
    </rdf:RDF>
  </metadata>
  <g
     inkscape:label="Layer 1"
     inkscape:groupmode="layer"
     id="layer1"
     transform="translate(214.28022,-153.52024)">
    <g
       transform="translate(-239.86021,91.829378)"
       id="g5352">
      <path
         inkscape:connector-curvature="0"
         id="path11153"
         d="m 59.553083,114.96776 0.130551,1.2185 0.217596,1.26202 0.08703,0.30463 -0.13055,0.0435 -0.04352,0.087 -0.913875,-0.56574 -1.262023,-0.69628 -0.870363,-0.52222 -0.391659,-0.34814 v -0.65277 -0.52222 l 1.392573,-0.087 0.696287,0.17407 z"
         style="display:inline;fill:#867152;fill-opacity:1;fill-rule:evenodd;stroke:none;stroke-width:0.52916664;stroke-linecap:round;stroke-miterlimit:4;stroke-dasharray:none;stroke-opacity:1" />
      <path
         inkscape:connector-curvature="0"
         id="path11155"
         d="m 41.014417,116.14274 -0.652767,0.0435 -0.609253,0.17407 -0.522216,0.17407 -0.65277,0.26111 -0.870357,0.43518 -0.304627,0.34814 -0.08704,0.60925 1.044434,-0.087 0.478697,0.13055 0.783325,-0.0435 1.523131,0.13056 1.479612,-0.087 c 0,0 0.652767,-0.2611 0.435178,-0.39166 -0.217589,-0.13056 -0.261108,-0.39166 -0.478698,-0.4787 -0.217589,-0.087 -0.957394,-0.69628 -0.957394,-0.69628 z"
         style="display:inline;fill:#867152;fill-opacity:1;fill-rule:evenodd;stroke:none;stroke-width:0.52916664;stroke-linecap:round;stroke-miterlimit:4;stroke-dasharray:none;stroke-opacity:1" />
      <path
         inkscape:connector-curvature="0"
         id="path11157"
         d="m 76.742689,116.83903 0.609252,0.78332 0.391662,0.69629 0.304625,0.34814 -1.044431,0.17408 -1.305539,-0.087 c 0,0 -0.609253,-0.13056 -0.826842,-0.087 -0.217589,0.0435 -1.174989,-0.087 -1.174989,-0.087 l -0.435178,-0.13056 0.217591,-0.21759 0.435181,-0.56573 1.479611,-0.69629 0.478698,-0.17407 h 1.131467 z"
         style="display:inline;fill:#867152;fill-opacity:1;fill-rule:evenodd;stroke:none;stroke-width:0.52916664;stroke-linecap:round;stroke-miterlimit:4;stroke-dasharray:none;stroke-opacity:1" />
      <path
         inkscape:connector-curvature="0"
         id="path11159"
         d="m 93.10545,112.57427 0.913879,0.56573 0.21759,0.4787 0.565734,0.52221 0.435179,0.87036 v 0.34815 l -0.348145,0.43518 -0.391661,0.39166 -0.348145,0.69629 -0.391661,0.30462 -0.348145,-0.34814 -0.217588,-1.00092 -0.21759,-0.69629 -0.130555,-1.17498 -0.348142,-0.65277 0.130553,-0.60925 z"
         style="display:inline;fill:#867152;fill-opacity:1;fill-rule:evenodd;stroke:none;stroke-width:0.52916664;stroke-linecap:round;stroke-miterlimit:4;stroke-dasharray:none;stroke-opacity:1" />
      <path
         inkscape:connector-curvature="0"
         id="path11162"
         d="m 76.633894,116.88255 -0.631011,-0.0218 -0.369903,0.10879 -0.435181,0.15232 -0.522214,0.17407 -0.413422,0.23935 -0.435181,0.3699 -0.304625,0.0218 -0.239347,-0.19583 -0.02176,-0.45694 0.631012,-0.58749 -0.174073,-0.60925 -0.456939,-0.78333 -0.369902,-0.45694 c 0,0 -0.239348,-0.41342 -0.326384,-0.50045 -0.08704,-0.087 -0.152314,-0.65277 -0.152314,-0.65277 l -0.02176,-0.80509 0.391661,-0.95739 0.413422,-0.97916 0.261106,-0.76156 0.4787,-0.91388 0.369903,-1.02267 0.304623,-1.39258 0.195833,-0.7398 -0.174072,-0.78333 0.152313,-0.30462 0.23935,-1.02268 0.348142,-1.13146 0.195831,-0.8486 0.174072,-1.0662 0.304625,-0.7398 c 0,0 0.217592,-0.82684 0.217592,-0.913876 0,-0.08704 0.261108,-0.91388 0.261108,-0.91388 l 0.217589,-0.805084 0.174073,-0.8486 0.152313,-1.370816 1.327298,-1.240264 1.871273,0.391664 1.849514,0.80508 0.696289,0.826844 -0.478697,0.674528 -0.391664,0.348144 -0.369903,0.587492 -0.435178,0.696288 -0.369903,0.761568 -0.326386,0.587492 -0.348144,0.8486 -0.391662,0.82684 -0.348144,0.71805 -0.456939,1.04443 -0.326386,0.8486 -0.239348,0.80508 -0.522214,1.08795 -0.304627,0.87036 -0.195831,0.41342 -0.282867,0.58749 -0.41342,0.67453 -0.348144,0.60925 -0.195831,0.65277 -0.369903,0.93564 -0.282866,0.8486 -0.195831,0.45694 -0.08704,0.41342 -0.130556,0.69629 v 0.67453 l 0.08704,0.58749 0.217589,0.5875 0.174072,0.43517 0.369903,0.4787 0.326386,0.50046 0.261108,0.21759 z"
         style="display:inline;fill:#af987b;fill-opacity:1;fill-rule:evenodd;stroke:none;stroke-width:0.52916664;stroke-linecap:round;stroke-miterlimit:4;stroke-dasharray:none;stroke-opacity:1" />
      <path
         inkscape:connector-curvature="0"
         id="path11164"
         d="m 59.382905,114.33081 0.246174,0.40004 -0.03078,0.20001 c 0,0 -0.200011,0.0462 -0.307715,0.0308 -0.107704,-0.0154 -0.56928,-0.15386 -0.56928,-0.15386 l -1.030858,-0.18463 -0.692365,-0.1077 -0.538511,0.0615 -0.123085,-0.0615 0.123085,-0.43081 0.400035,-0.33849 0.06155,-0.35387 -0.415426,-0.38465 c 0,0 -0.230789,-0.30772 -0.323103,-0.36927 -0.09232,-0.0615 -0.400033,-0.70775 -0.400033,-0.70775 l -0.200018,-0.38465 -0.338494,-0.56928 -0.4308,-0.70775 -0.523123,-0.84623 -0.95393,-1.24626 -0.63082,-0.92315 -0.630827,-0.89239 -0.507735,-0.66159 -0.615437,-0.66159 -0.230789,-0.41543 -0.415419,-0.64621 -0.323105,-0.4308 c 0,0 -0.384648,-0.50774 -0.446195,-0.52312 -0.06154,-0.0154 -0.584661,-0.70776 -0.584661,-0.70776 0,0 -0.169244,-0.16924 -0.169244,-0.26156 0,-0.0923 0,-0.46158 0,-0.46158 l 0.215401,-0.61543 0.523123,-0.73853 0.63082,-1.169328 0.553892,-0.969316 0.276953,-0.800064 c 0,0 0.24617,-0.630824 0.24617,-0.692368 0,-0.06154 0.138473,-0.876996 0.138473,-0.876996 l 0.09232,-0.430808 0.04616,-0.615436 -0.06154,-0.30772 -0.107702,-0.584664 -0.246177,-1.907856 2.477136,-2.23096 c 0,0 2.815626,-0.892384 2.877171,-1.000084 0.06154,-0.107704 3.846484,0.815452 3.846484,0.815452 l 0.676979,1.600136 -0.600051,1.384736 -1.153943,0.400032 -0.461583,0.384652 -0.123085,0.2154 -0.230789,0.553896 -0.307715,0.553892 -0.507742,0.953928 -0.384643,0.800068 -0.400038,0.738524 -0.07693,0.26156 -0.276946,0.861612 -0.353879,0.738524 -0.307717,0.50774 -0.461576,0.507732 -0.369263,0.446196 -0.338493,0.66159 -0.246175,0.46158 -0.107704,0.35388 -0.169242,0.56928 -0.107704,0.60005 -0.07693,0.58466 0.01538,0.56928 0.24617,0.69237 0.338494,0.55389 0.38465,0.69237 0.615437,0.72314 0.292334,0.44619 0.538506,0.69237 0.692365,0.84622 0.446195,0.63083 0.415419,0.49234 0.44619,0.49236 0.215406,0.4308 0.123085,0.49235 -0.01538,0.38465 0.107704,0.58466 0.06154,0.49236 0.138473,0.5385 0.169244,0.47697 0.01538,0.0923 z"
         style="display:inline;fill:#af987b;fill-opacity:1;fill-rule:evenodd;stroke:none;stroke-width:0.52916664;stroke-linecap:round;stroke-miterlimit:4;stroke-dasharray:none;stroke-opacity:1" />
      <path
         inkscape:connector-curvature="0"
         id="path11169"
         d="m 102.30965,61.757082 -0.18463,0.430806 -0.15386,0.200017 -0.38465,0.384648 -0.30772,0.246175 -0.30771,0.230789 -0.58467,0.41542 -0.38465,0.246175 -0.615434,0.630824 -0.56928,1.138558 0.876998,0.461578 h 0.907766 l 0.5539,-0.83084 0.15386,-0.446192 0.0923,-0.215403 0.40004,-0.584665 0.20001,-0.56928 0.16925,-0.646209 0.0462,-0.323105 0.12308,-0.430806 0.0462,-0.153859 z"
         style="display:inline;fill:#7f898b;fill-opacity:1;fill-rule:evenodd;stroke:none;stroke-width:0.52916664;stroke-linecap:round;stroke-miterlimit:4;stroke-dasharray:none;stroke-opacity:1" />
      <path
         inkscape:connector-curvature="0"
         id="path11172"
         d="m 102.20195,62.157116 -0.18463,0.323104 -0.16925,0.307719 -0.20001,0.446192 -0.13848,0.41542 -0.16924,0.276947 -0.0462,0.384648 -0.12309,0.446192 0.16925,-0.09231 0.26156,-0.323105 0.20002,-0.49235 0.20001,-0.353876 0.0769,-0.41542 0.0615,-0.292333 0.0615,-0.353877 V 62.23405 Z"
         style="display:inline;fill:#0c0301;fill-opacity:1;fill-rule:evenodd;stroke:none;stroke-width:0.52916664;stroke-linecap:round;stroke-miterlimit:4;stroke-dasharray:none;stroke-opacity:1" />
      <path
         inkscape:connector-curvature="0"
         id="path4508"
         d="m 95.247511,115.16165 -0.261563,-0.46158 -0.246175,-0.43081 -0.230789,-0.49234 -0.200015,-0.20002 -0.30772,-0.23079 -0.49235,-0.27695 -0.384647,-0.33848 -0.123087,-0.13848 0.184629,-0.33849 0.153861,-0.26156 0.353875,-0.0769 0.707755,0.1077 0.04616,0.0308 0.384647,-0.53851 -0.09232,-0.18463 -0.169244,-0.12308 -0.07693,-0.36927 0.138472,-0.27695 0.369263,-0.26156 0.03077,-0.47696 0.18463,-0.53851 0.04616,-0.69236 -0.01538,-0.61544 c 0,0 -0.04616,-0.46158 -0.04616,-0.52313 0,-0.0615 0.03077,-0.58466 0.03077,-0.58466 l -0.03077,-0.53851 -0.123088,-0.64621 -0.153858,-0.6462 -0.153859,-0.4462 -0.184632,-0.38465 -0.292332,-0.33849 -0.292333,-0.33848 -0.30772,-0.2308 -0.400033,-0.2154 -0.430805,-0.23079 -0.600054,-0.30771 -0.553891,-0.32311 -0.56928,-0.1077 -0.75391,-0.33849 -0.415422,-0.15386 -0.83084,-0.36926 -0.707753,-0.40004 -1.077015,-0.52312 -0.553895,-0.3231 -0.584665,-0.323108 -0.569277,-0.369264 -0.584666,-0.353876 -0.876999,-0.30772 -0.353877,-0.09231 -0.676979,-0.153864 -0.584667,-0.246172 -0.246175,-0.553892 -0.153859,-0.430808 -0.215403,-0.646208 -0.153859,-0.215404 -0.292332,-0.06154 -0.600051,-0.03076 -0.600051,-0.07693 h -0.707755 l -0.907769,0.123088 c 0,0 -0.738524,0 -0.815454,0 -0.07693,0 -1.000087,-0.03076 -1.000087,-0.03076 l -0.415422,0.03076 h -1.000082 l -1.061629,-0.03076 -1.292419,0.03076 -1.13856,-0.07693 H 71.43009 l -0.938542,-0.07693 -0.784684,-0.107704 -1.446277,-0.2154 -0.923154,-0.138476 -1.261647,-0.292332 -1.384738,-0.369264 -0.18463,-0.06154 -0.953925,-0.292336 -0.707753,-0.200016 -1.769382,-0.769296 -0.461576,-0.230788 -0.830845,-0.323108 -0.969314,-0.3231 -0.723141,-0.153864 -1.169324,-0.1077 -0.861616,-0.0154 h -1.015468 l -0.723143,0.353876 -1.077015,0.230792 -0.307715,0.215404 -0.38465,0.123084 -0.369262,0.20002 -0.353879,0.26156 -0.384645,0.400032 -0.969318,0.877 -0.446188,0.430804 -0.676984,0.630824 -0.507736,0.553892 -0.461578,0.400036 -0.246174,0.307716 -0.600052,0.646212 -0.476966,0.600052 -0.461576,0.492348 -0.323105,0.46158 -0.56928,0.80006 -0.400031,0.43081 -0.38465,0.33849 -0.384653,0.20002 -0.446187,0.29233 -0.369263,0.35387 -0.476966,0.47697 -0.169242,0.33849 -0.246176,0.40003 -0.107705,0.33849 -0.169241,0.29234 -0.292334,0.3231 -0.400032,0.29234 -0.20002,0.33848 -0.215406,0.4462 -0.169244,0.4308 -0.06154,0.40004 -0.09232,0.29233 -0.09231,0.40003 -0.107698,0.3385 -0.246177,0.96931 -0.138473,0.61544 -0.107704,0.70775 -0.06154,0.40003 -0.07693,0.52313 -0.09232,0.63082 -0.06155,0.53851 -0.04616,0.33849 0.03078,0.3231 -0.04616,0.36926 -0.04616,0.30772 -0.03078,0.27695 -0.04616,0.38465 0.06155,0.60005 0.06154,0.23079 0.153857,0.44619 0.153861,0.41542 0.400038,0.53851 0.107697,0.2154 0.03078,0.2154 -0.215408,0.0769 -0.584661,0.20002 c 0,0 -0.492354,0.1077 -0.553894,0.15386 -0.06154,0.0462 -0.676985,0.30772 -0.676985,0.30772 l -0.261558,-0.0154 -0.153861,0.13847 -0.338491,0.16925 -0.338493,0.23079 c 0,0 -0.138473,0.0923 -0.200013,0.0615 -0.06155,-0.0308 0.04616,-0.52312 0.04616,-0.52312 l 0.307715,-0.44619 0.400038,-0.5539 -0.01538,-0.50773 -0.04616,-0.24618 -0.06154,-0.18463 -0.246177,-0.41542 -0.415419,-0.49235 c 0,0 -0.169245,-0.2154 -0.276946,-0.3231 -0.107697,-0.1077 -0.123085,-0.35388 -0.123085,-0.35388 v -0.38465 l 0.04616,-0.47696 c 0,0 0.03077,-0.50774 0.153862,-0.73853 0.123084,-0.23079 0.2154,-0.40003 0.2154,-0.40003 l 0.153862,-0.60005 0.261558,-0.86162 0.15386,-1.04624 0.07693,-0.90777 0.107701,-0.53851 0.169245,-0.80006 0.200017,-0.95393 0.04616,-0.61544 0.07693,-0.64621 0.07693,-0.33849 0.107697,-0.61543 0.07693,-0.7693 0.03077,-0.43081 0.03077,-0.53851 -0.06154,-0.47696 -0.07693,-0.36926 0.09231,-0.43081 0.230796,-0.41542 0.307715,-0.200014 0.553895,-0.569276 0.323102,-0.292332 0.492355,-0.46158 0.430799,-0.538508 0.661597,-0.846228 0.415419,-0.430804 0.276952,-0.476964 0.276946,-0.384644 0.307718,-0.646212 0.153861,-0.369264 0.107697,-0.430804 0.03078,-0.600052 -0.09232,-0.507736 -0.18463,-0.538504 -0.153861,-0.600056 -0.184632,-0.26156 -0.18463,-0.52312 -0.06155,-0.523124 -0.138473,-0.661592 -0.138473,-0.676984 -0.18463,-0.969312 -0.01538,-0.52312 -0.01538,-0.707752 -0.04616,-0.877 -0.01538,-0.769296 -0.03078,-0.661596 0.03078,-0.72314 -0.04616,-0.876996 c 0,0 0.153866,-0.7693 0.153866,-0.83084 0,-0.06154 0.292329,-0.938544 0.292329,-0.938544 l 0.307722,-0.86161 0.292329,-0.492352 0.338491,-0.615437 0.353879,-0.384648 0.246172,-0.461578 0.123085,-0.461578 0.369262,-0.430806 0.24618,-0.400034 0.400031,-0.307719 0.661596,-0.215403 1.061627,-0.353877 1.107793,-0.430805 1.077015,-0.369262 0.953923,-0.276948 h 0.692365 l 0.723144,-0.123087 0.523123,-0.107701 0.953923,-0.06154 0.923161,-0.04616 1.000082,-0.01538 0.815457,0.03077 1.230876,0.230788 0.923154,0.230789 0.907766,0.261561 1.00009,0.276947 1.277032,0.169245 1.169332,0.200017 1.384732,0.230789 1.000087,0.15386 1.43089,0.215403 1.077015,0.06154 0.907778,0.07693 1.06163,-0.01538 h 0.800069 l 1.277033,-0.138475 0.892382,-0.107701 1.123175,-0.338491 0.676979,-0.353876 0.56928,-0.338491 0.800069,-0.492349 1.000085,-0.49235 1.077015,-0.584666 0.738526,-0.230789 0.538507,-0.353876 0.892385,-0.584666 0.523121,-0.49235 0.70775,-0.538507 0.369265,-0.41542 0.846226,-0.969314 0.553892,-0.630823 0.953929,-0.861612 1.0924,-0.923156 0.892385,-0.800068 0.907769,-0.553894 0.877,-0.692367 1.077015,-0.553893 0.984699,-0.430806 0.707753,-0.353877 0.615436,-0.323105 0.769298,-0.215402 0.938542,-0.292333 1.030856,-0.15386 0.615437,-0.200017 h 0.261562 l 0.861619,-0.07693 0.646208,-0.184631 1.077017,-0.01538 0.861612,0.01538 0.476964,-0.06154 h 0.353877 l 1.0924,0.323104 0.49235,0.23079 0.4308,0.41542 0.4462,0.446192 0.36926,0.569279 0.29233,0.846227 0.24618,0.430806 0.12308,0.446191 0.18463,0.523122 0.16925,0.384648 0.20002,0.384648 0.33849,0.276947 0.3231,0.353877 0.0615,0.184631 0.1077,0.200017 0.0154,0.338491 v 0.200017 l -0.0923,0.400034 v 0.215403 l 0.0769,0.353877 0.0308,0.307718 0.10771,0.446192 0.23078,0.461578 0.16925,0.507736 0.16925,0.41542 0.1077,0.26156 0.13847,0.430807 0.0462,0.230789 0.1077,0.384648 0.20002,0.292333 0.20001,0.353876 0.0615,0.276947 0.18463,0.507736 0.23079,0.584665 0.20001,0.476964 0.20002,0.384649 0.20002,0.41542 0.20001,0.461578 0.13848,0.446191 0.0154,0.138474 -0.0769,0.169245 0.0308,0.184631 0.0308,0.523123 -0.13848,0.461578 -0.0923,0.215403 -0.24618,0.430805 -0.27694,0.246175 -0.26156,0.338492 -0.23079,0.184632 -0.36926,0.26156 h -0.30772 l -0.24618,0.03076 -0.27695,0.03076 -0.29233,0.06154 -0.29233,0.04616 c 0,0 -0.32311,0.06154 -0.40003,0.09232 -0.0769,0.03076 -0.36927,-0.138472 -0.36927,-0.138472 l -0.1077,-0.123088 -0.2154,-0.30772 -0.24618,-0.06154 -0.38464,-0.138472 -0.24618,-0.246176 -0.0769,-0.338489 0.0462,-0.323105 -0.12309,-0.446193 -0.12309,-0.400033 -0.23079,-0.200018 -0.60005,-0.476965 -0.430802,-0.400033 -0.430804,-0.400035 -0.430808,-0.384648 -0.553892,-0.461579 -0.56928,-0.553893 -0.415421,-0.230789 -0.323105,-0.200016 -0.461576,-0.261562 -0.353876,-0.292333 -0.169247,-0.123087 -0.184632,-0.153859 h -0.04616 l -0.123088,0.01538 -0.230788,0.123088 -0.138474,0.15386 -0.169244,0.215402 -0.153861,0.261561 -0.215401,0.400035 -0.200018,0.615437 -0.107702,0.41542 -0.107701,0.584665 -0.200018,0.630823 -0.200016,0.446193 -0.184632,0.476965 -0.200018,0.630822 -0.26156,0.461578 -0.276946,0.584668 -0.276946,0.56928 -0.400036,0.923156 -0.307717,0.569276 -0.230791,0.430808 -0.292332,0.46158 -0.230789,0.476964 -0.04616,0.384644 0.01538,0.738528 -0.04616,0.461576 0.03077,0.338492 -0.01538,0.292332 0.1077,1.215488 -0.01538,0.46158 0.01538,0.600052 -0.09231,0.52312 -0.03077,0.56928 -0.107702,0.584664 -0.15386,0.769296 -0.200016,0.692368 -0.184632,0.461576 -0.26156,0.430808 -0.246175,0.400036 -0.353877,0.446192 -0.353876,0.36926 -0.369262,0.353876 0.492349,0.584668 0.415419,0.476964 0.584666,0.615436 0.861611,0.7693 0.400035,0.338488 0.523122,0.476964 0.523122,0.400036 0.600052,0.415416 0.52312,0.353876 0.476964,0.338492 0.369262,0.246175 0.415422,0.27695 0.353877,0.27695 0.461577,0.30772 0.307718,0.35387 0.169246,0.40004 0.107702,0.2154 0.07693,0.30772 0.292333,0.38464 0.07693,0.12309 0.153861,0.20002 0.107702,0.16924 v 0.36927 l -0.03077,0.35387 -0.03077,0.29234 -0.03077,0.35387 -0.06154,0.27695 -0.06154,0.29233 v 0.46158 l 0.01538,0.56928 0.06154,0.36927 0.04616,0.72313 0.03077,0.36927 0.04616,0.61543 0.03077,0.36926 0.06154,0.40004 0.06154,0.53851 0.123087,0.60005 0.06154,0.24617 0.04616,0.27695 0.03077,0.3231 -0.07693,0.26157 -0.153858,0.3231 -0.26156,0.30772 -0.246175,0.29233 -0.292334,0.33849 -0.292331,0.35388 -0.184633,0.36926 -0.276946,0.60005 -0.215403,0.32311 -0.200018,0.38464 -0.09231,0.29234 -0.04616,0.3231 -0.09231,0.0923 z"
         style="display:inline;fill:#c0c0c0;fill-opacity:1;fill-rule:evenodd;stroke:none;stroke-width:0.52916664;stroke-linecap:round;stroke-miterlimit:4;stroke-dasharray:none;stroke-opacity:1" />
      <path
         inkscape:connector-curvature="0"
         id="path4541"
         d="m 100.67875,70.011634 -0.17694,-0.01538 -0.15386,0.0077 -0.3385,0.04616 -0.107696,0.06924 -0.246175,0.215403 -0.04616,0.13078 -0.100008,0.253868 -0.03077,0.246175 -0.01538,0.246175 0.03846,0.315412 0.138473,0.176938 0.09232,0.13078 0.238481,0.115395 0.207715,0.06924 0.23079,0.0077 0.37695,-0.06924 0.28464,-0.123088 0.26156,-0.223096 0.1154,-0.330797 V 70.91171 l 0.008,-0.307719 -0.0692,-0.215403 -0.13848,-0.230789 -0.20001,-0.04616 -0.16925,-0.03077 z"
         style="display:inline;fill:#000000;fill-opacity:1;fill-rule:evenodd;stroke:none;stroke-width:0.52916664;stroke-linecap:round;stroke-miterlimit:4;stroke-dasharray:none;stroke-opacity:1" />
      <path
         inkscape:connector-curvature="0"
         id="path4543"
         d="m 105.38684,79.097027 -0.31541,0.07693 -0.26926,0.07693 -0.18463,0.169245 -0.10001,0.384648 -0.0461,0.223097 -0.008,0.215402 v 0.307719 l 0.1077,0.246175 0.16155,0.184632 0.24618,0.07693 0.0692,0.07693 0.0846,0.05385 c 0,0 0.13847,-0.09232 0.17693,-0.130782 0.0385,-0.03846 0.23079,-0.315411 0.23079,-0.315411 l 0.0462,-0.346182 0.0462,-0.215404 -0.0154,-0.346185 c 0,0 0.008,-0.16155 0,-0.207708 -0.008,-0.04616 -0.0692,-0.238482 -0.0692,-0.238482 l -0.0615,-0.13078 -0.0308,-0.03846 z"
         style="display:inline;fill:#000000;fill-opacity:1;fill-rule:evenodd;stroke:none;stroke-width:0.52916664;stroke-linecap:round;stroke-miterlimit:4;stroke-dasharray:none;stroke-opacity:1" />
      <path
         inkscape:connector-curvature="0"
         id="path4545"
         d="m 103.47898,82.158828 -0.25387,-0.184632 -0.17693,-0.215404 -0.13848,-0.184632 -0.12308,-0.3231 -0.10771,-0.292336 -0.13847,-0.276946 -0.10001,-0.269254 -0.13847,-0.300026 -0.0692,-0.276948 -0.0923,-0.08462 -0.16155,-0.06924 -0.13079,0.01538 -0.008,-0.0077"
         style="display:inline;fill:none;fill-opacity:1;fill-rule:evenodd;stroke:#000000;stroke-width:0.39687499;stroke-linecap:round;stroke-miterlimit:4;stroke-dasharray:none;stroke-opacity:1" />
      <path
         inkscape:connector-curvature="0"
         id="path4526"
         d="m 29.364948,103.31448 -0.06154,-0.30772 -0.507744,0.49236 0.107704,-0.38465 0.1077,-0.6616 -0.553892,0.63083 -0.138476,0.46157 -0.276944,-0.1077 -0.169244,-0.29233 -0.492352,0.24617 0.06154,-0.30771 0.292332,-0.6616 0.323108,-0.50774 -0.538512,0.18464 -0.692368,0.5385 -0.184628,-0.12308 0.200016,-0.36926 0.03076,-0.30772 -1.200104,0.35387 -0.09231,0.0308 c 0,0 0,-0.30772 0.03076,-0.36926 0.03076,-0.0616 0.72314,-0.81546 0.72314,-0.877 0,-0.0615 0.430804,-0.50774 0.430804,-0.50774 l 0.676984,-0.646206 0.369264,-0.369264 -0.646208,0.184632 v -0.2154 l 0.415416,-0.138476 0.446192,-0.276948 0.323108,-0.707752 c 0,0 0.276948,-0.615436 0.323104,-0.67698 0.04616,-0.06154 0.369264,-0.35388 0.369264,-0.35388 l -0.492356,0.04616 -0.276948,-0.138472 0.800072,-0.169244 0.338492,-0.215404 -0.338492,-0.07693 -0.538504,-0.07693 0.03076,-0.184628 0.538508,0.123084 0.600056,-0.41542 0.4308,-0.67698 0.461576,-0.907768 0.492356,-0.738528 0.3231,-0.815452 0.123088,-0.661596 0.138472,-0.56928 0.20002,-0.476964 0.584668,-1.630908 0.2154,-0.61544 0.35388,-0.692364 0.338484,-0.923156 0.507736,-0.707752 c 0,0 0.7693,-0.753912 0.861616,-0.83084 0.09232,-0.07693 0.476965,-0.430808 0.476965,-0.430808 L 35.765469,85.236 36.473222,84.682108 36.88864,84.251304 c 0,0 -0.600048,0.3231 -0.738521,0.400032 -0.138473,0.07693 -0.200021,-0.07693 -0.200021,-0.07693 l 0.646209,-0.569276 0.400038,-0.553896 0.876997,-0.646208 0.723136,-0.72314 0.56928,-0.661592 0.876997,-0.738526 0.938542,-0.676981 0.707753,-0.507736 0.676984,-0.538508 0.523123,-0.369262 0.615432,-0.369263 0.400038,-0.26156 0.36926,-0.153859 0.43081,-0.184631 0.738524,-0.246176 -0.26156,0.384648 -0.384648,0.630823 -0.215402,0.400035 -0.307717,0.615437 -0.384654,0.861612 -0.461571,0.615437 -0.353882,0.738526 -0.09231,0.707752 -0.20002,0.615436 -0.200018,1.030856 -0.07693,1.215492 -0.04616,1.215488 0.200017,0.9847 0.04616,0.923156 -0.430807,0.923152 -0.292334,0.09232 0.03078,-0.846224 -0.06155,-0.707752 -0.492347,2.107872 -0.369262,0.815456 -0.276946,0.584664 -0.476966,1.0924 -0.523123,0.753912 -0.323103,0.646208 -0.984699,0.200016 -0.230789,0.01536 0.338486,-0.430808 0.430807,-0.338492 0.430807,-0.307716 -0.276946,-0.03076 -0.430807,0.26156 -0.753912,0.784684 -0.784681,0.815452 -0.553892,0.41542 -0.692368,1.323192 -0.507732,0.630824 -0.60005,0.800068 -0.384652,0.877 -0.06154,-0.107704 -0.01536,-0.215404 0.200016,-0.707752 -0.446192,0.26156 -0.169248,1.107788 -0.20002,0.600052 -0.09231,0.630832 -0.15386,0.5385 -0.03076,-0.36926 -0.107696,-0.47696 -0.30772,0.56928 -0.07693,0.81545 -0.15386,0.40003 -0.276948,0.70776 -0.138476,0.23078 0.09232,-0.66159 0.276948,-0.7693 -0.153856,0.24618 -0.400036,0.75391 -0.230788,0.877 -0.09232,0.9847 -0.338492,0.73852 -0.03076,-0.13847 -0.169252,-0.23079 -0.200012,0.69237 -0.41542,0.35387 -0.169248,-0.23078 -0.276944,-0.0615 -0.446192,0.26156 0.169244,-0.3231 0.20002,-0.50774 0.138472,-0.4308 -0.26156,-0.4462 -0.415424,0.29233 -0.03076,-0.41541 -0.446192,0.18463 0.01536,-0.15386 z"
         style="display:inline;fill:#5f5e5d;fill-opacity:1;fill-rule:evenodd;stroke:none;stroke-width:0.52916664;stroke-linecap:round;stroke-miterlimit:4;stroke-dasharray:none;stroke-opacity:1" />
      <path
         inkscape:connector-curvature="0"
         id="path4530"
         d="m 100.3512,64.138746 0.52221,0.348144 0.41342,0.261108 0.28287,0.478698 0.26111,0.456938 0.0653,0.522216 0.21759,0.543975 0.13056,0.674529 0.30463,0.761565 0.0653,0.304626 0.0218,0.21759 -0.54397,-0.130555 -0.58749,-0.456938 -0.36991,-0.543974 -0.0653,-0.108796 -0.21759,0.63101 -0.36991,0.696288 -0.30462,0.761565 -0.500459,0.783324 -0.631008,0.848601 -0.174073,0.04352 0.456937,-0.783324 0.152313,-0.696288 -0.261108,0.348144 -0.19583,0.326386 0.130555,-0.609253 0.326383,-0.826842 -0.19583,0.08704 -0.217589,0.195831 0.261106,-0.761565 0.195833,-0.718047 0.71805,-0.783323 0.39166,-0.674529 0.0653,-0.391662 -0.13055,-0.152313 -0.28287,-0.45694 -0.23935,-0.152312 -0.32638,-0.391662 -0.43518,-0.304626 -0.152314,-0.587492 0.195831,-0.304626 0.326386,0.19583 0.348147,0.174072 z"
         style="display:inline;fill:#5f5e5d;fill-opacity:1;fill-rule:evenodd;stroke:none;stroke-width:0.52916664;stroke-linecap:round;stroke-miterlimit:4;stroke-dasharray:none;stroke-opacity:1" />
      <path
         inkscape:connector-curvature="0"
         id="path4532"
         d="m 98.610477,63.638289 -1.240264,-0.06528 -0.826842,-0.04352 -1.153225,0.174072 -1.283782,0.195831 -0.761564,0.108794 -0.67453,0.130554 -0.783323,0.130554 h -0.391662 l -1.044432,0.391662 -0.870359,0.174072 -0.674529,0.413421 -0.761564,0.391662 -0.718047,0.478698 -0.43518,0.239349 -0.45694,0.282867 -0.565733,0.348143 -0.435181,0.348144 -0.413419,0.456939 -0.609253,0.522216 -0.739806,0.500456 -0.652769,0.739806 -0.696286,0.478698 -0.522217,0.718048 -0.326386,0.41342 -0.478699,0.543975 -0.761562,0.805082 -0.631011,0.304626 -0.500456,0.391662 -0.696291,0.391662 -0.478698,0.282867 -0.543973,0.391662 -0.43518,0.304626 -0.456939,0.304626 0.08704,0.282867 0.130555,0.826841 -0.06528,1.610166 0.02176,1.370817 0.348144,1.174986 0.696289,-1.893033 0.06527,0.631011 0.369903,0.609252 0.413422,0.348142 -0.195833,-1.109708 0.413423,-1.131467 0.369903,1.131467 0.652769,0.413422 0.08704,-1.218504 -0.130553,-1.805997 0.130553,-0.543974 0.261109,0.718046 0.391661,0.979155 0.805083,0.631011 0.805084,-0.02176 -0.565736,-0.587493 0.04352,-0.783323 -0.348145,-0.935637 0.152312,-0.609252 0.60925,0.848601 0.174075,1.044431 0.609253,-1.414334 0.152314,0.718047 0.696284,-1.566648 c 0,0 0.369904,0.805083 0.391662,0.892119 0.02176,0.08704 1.262023,0.609252 1.262023,0.609252 l 0.261108,-0.478698 0.08704,-1.174986 0.261108,-1.784237 0.413419,0.500457 0.217592,-1.131468 0.935636,0.543975 0.130553,-0.739806 0.06528,-0.761564 -0.65277,-0.565735 -0.261108,-0.652769 0.761564,1.740719 0.41342,0.783324 0.304627,0.696287 0.02176,-0.63101 0.195831,-1.240263 -0.152314,-0.826841 0.108797,-0.631011 0.304625,0.478697 0.413422,0.826842 0.217589,0.239349 0.696287,-1.50137 0.348145,0.195831 0.391661,-0.65277 0.174072,-1.174986 0.522216,-0.805083 0.23935,0.696288 0.500456,0.674529 0.217589,-0.783323 0.348145,-0.65277 0.304625,1.131467 0.543975,-0.913878 0.217591,0.478698 0.261108,0.413421 0.326384,-1.262022 0.45694,-0.543974 0.04352,0.609252 0.587495,-0.848601 0.08704,0.718047 0.130553,0.21759 0.391661,-0.391662 0.348145,-0.152313 0.565733,-0.631011 0.435181,-0.565734 0.543975,-0.543974 z"
         style="display:inline;fill:#5f5e5d;fill-opacity:1;fill-rule:evenodd;stroke:none;stroke-width:0.52916664;stroke-linecap:round;stroke-miterlimit:4;stroke-dasharray:none;stroke-opacity:1" />
      <path
         inkscape:connector-curvature="0"
         id="path4535"
         d="m 99.720185,61.821414 0.03264,0.163192 -0.08704,0.282867 -0.02176,0.21759 0.02176,0.391662 0.03264,0.391661 0.01088,0.478698 -0.119676,0.43518 -0.17407,0.369903 -0.23935,0.369903 -0.108795,0.261108 -0.174072,0.239349 -0.22847,0.348144 -0.380782,0.271987 -0.119674,0.03264 c 0,0 -0.06528,-0.282866 -0.08704,-0.348143 -0.02176,-0.06528 -0.130553,-0.587494 -0.130553,-0.66365 0,-0.07616 0.03264,-0.587493 0.03264,-0.587493 l 0.152313,-0.576613 0.20671,-0.631011 c 0,0 0.141432,-0.282866 0.141432,-0.337264 0,-0.0544 0.271988,-0.500457 0.271988,-0.500457 l 0.424301,-0.478698 0.44606,-0.261108 0.07615,0.04352 z"
         style="display:inline;fill:#c0c0c0;fill-opacity:1;fill-rule:evenodd;stroke:none;stroke-width:0.52916664;stroke-linecap:round;stroke-miterlimit:4;stroke-dasharray:none;stroke-opacity:1" />
      <path
         inkscape:connector-curvature="0"
         id="path4538"
         d="m 99.741944,61.90845 -0.08704,0.326384 -0.04352,0.348145 -0.01088,0.271987 0.09791,0.41342 -0.06527,0.467819 -0.04352,0.304625 -0.108795,0.304627 -0.271988,0.435179 -0.141431,0.163193 -0.174073,0.282867 -0.130555,0.20671 -0.195831,0.359024 -0.282867,0.261108 -0.108794,-0.195832 -0.03264,-0.435179 -0.07616,-0.4243 0.03264,-0.424301 0.119675,-0.446059 0.163192,-0.66365 0.174072,-0.456938 0.239351,-0.391662 0.250228,-0.282867 0.250227,-0.20671 0.326386,-0.22847 0.108795,-0.02176 z"
         style="display:inline;fill:#0c0301;fill-opacity:1;fill-rule:evenodd;stroke:none;stroke-width:0.52916664;stroke-linecap:round;stroke-miterlimit:4;stroke-dasharray:none;stroke-opacity:1" />
    </g>
  </g>
</svg>
