<?xml version="1.0" encoding="UTF-8" standalone="no"?>
<!-- Created with Inkscape (http://www.inkscape.org/) -->

<svg
   xmlns:dc="http://purl.org/dc/elements/1.1/"
   xmlns:cc="http://creativecommons.org/ns#"
   xmlns:rdf="http://www.w3.org/1999/02/22-rdf-syntax-ns#"
   xmlns:svg="http://www.w3.org/2000/svg"
   xmlns="http://www.w3.org/2000/svg"
   xmlns:sodipodi="http://sodipodi.sourceforge.net/DTD/sodipodi-0.dtd"
   xmlns:inkscape="http://www.inkscape.org/namespaces/inkscape"
   width="341.2175"
   height="520.82483"
   viewBox="0 0 90.280461 137.80157"
   version="1.1"
   id="svg5975"
   inkscape:version="0.92.1 r15371"
   sodipodi:docname="horseFace01.svg"
   inkscape:export-filename="/home/ashley/Pictures/games/horseplays/export/horseFace01.png"
   inkscape:export-xdpi="96"
   inkscape:export-ydpi="96">
  <defs
     id="defs5969">
    <clipPath
       clipPathUnits="userSpaceOnUse"
       id="clipPath5945">
      <rect
         style="fill:none;fill-opacity:1;fill-rule:evenodd;stroke:#000000;stroke-width:0.52916664;stroke-linecap:round;stroke-miterlimit:4;stroke-dasharray:none;stroke-opacity:1"
         id="rect5947"
         width="126.99999"
         height="142.875"
         x="127"
         y="-2.8125005e-06" />
    </clipPath>
  </defs>
  <sodipodi:namedview
     id="base"
     pagecolor="#ffffff"
     bordercolor="#666666"
     borderopacity="1.0"
     inkscape:pageopacity="0.0"
     inkscape:pageshadow="2"
     inkscape:zoom="1"
     inkscape:cx="-8.5341"
     inkscape:cy="250.84103"
     inkscape:document-units="px"
     inkscape:current-layer="layer1"
     showgrid="false"
     units="px"
     fit-margin-top="0"
     fit-margin-left="0"
     fit-margin-right="0"
     fit-margin-bottom="0"
     inkscape:window-width="1873"
     inkscape:window-height="1056"
     inkscape:window-x="47"
     inkscape:window-y="24"
     inkscape:window-maximized="1" />
  <metadata
     id="metadata5972">
    <rdf:RDF>
      <cc:Work
         rdf:about="">
        <dc:format>image/svg+xml</dc:format>
        <dc:type
           rdf:resource="http://purl.org/dc/dcmitype/StillImage" />
        <dc:title />
      </cc:Work>
    </rdf:RDF>
  </metadata>
  <g
     inkscape:label="Layer 1"
     inkscape:groupmode="layer"
     id="layer1"
     transform="translate(-10.04429,102.25197)">
    <g
       transform="translate(-153.67524,-107.3254)"
       style="display:inline"
       id="g5922"
       clip-path="url(#clipPath5945)">
      <path
         inkscape:connector-curvature="0"
         id="path6486"
         d="m 251.55241,149.6585 -0.71472,-3.15671 -0.71473,-1.54856 -1.01252,-0.65516 -1.90594,-0.95298 -1.54857,-0.35736 h -2.8589 l -3.27582,0.41693 -2.62066,0.47648 -3.27583,0.23823 -2.14417,0.1787 -2.73978,0.41691 -1.78682,0.59561 -0.71472,0.71473 -0.83385,1.25076 -0.5956,5.89649 -4.46703,-0.83384 -2.5611,-1.84637 0.17868,-2.97803 -0.23824,-1.54857 -1.07209,-2.68023 -1.31033,-4.46702 -0.77429,-3.87143 v -3.27583 l -0.11912,-1.78681 -0.5956,-2.02506 -1.13165,-1.84637 -0.71472,-2.20374 -0.53605,-3.27582 0.17868,-2.91846 v -2.20373 l -0.53604,-5.00308 0.0596,-3.09714 0.2978,-4.88396 0.71473,-2.20374 0.77428,-3.394942 1.13165,-4.05011 -0.47648,-2.263293 0.41692,-2.739783 0.11912,-2.620656 0.59561,-2.32286 -0.11913,-2.144174 -0.83384,-1.250769 -1.01253,-3.81187 2.79934,-9.291425 4.52659,-8.814947 -0.71472,-8.934062 2.20373,-3.216265 7.20682,-4.943517 7.9811,9.231869 3.63318,6.84945 1.36989,3.752304 1.78681,4.467034 1.78682,3.573627 3.63318,7.385494 1.9655,3.633185 2.79934,5.06264 1.72725,1.965493 2.44198,3.275822 0.5956,26.683075 1.48901,24.30066 -2.44197,10.36351 z"
         style="display:inline;fill:#a26a51;fill-opacity:1;fill-rule:evenodd;stroke:none;stroke-width:0.0757252;stroke-linecap:round;stroke-miterlimit:4;stroke-dasharray:none;stroke-opacity:1" />
      <path
         inkscape:connector-curvature="0"
         id="path6565"
         d="m 187.22714,10.406209 1.07209,0.714725 0.89341,2.144176 0.11912,0.774286 1.31033,2.084614 1.54857,2.025054 0.71472,1.667693 1.48901,1.786813 2.62067,4.109672 -0.23825,2.680218 -2.73978,1.965494 -4.52659,2.025052 -1.25077,-2.501536 -0.5956,-1.727251 -1.07209,-3.633187 -0.89341,-4.824394 -0.11912,-3.216266 0.65517,-2.978021 0.11912,-0.833846 0.53604,-1.667693 z"
         style="display:inline;fill:#835642;fill-opacity:1;fill-rule:evenodd;stroke:none;stroke-width:0.0757252;stroke-linecap:round;stroke-miterlimit:4;stroke-dasharray:none;stroke-opacity:1" />
      <path
         inkscape:connector-curvature="0"
         id="path6569"
         d="m 185.19847,105.43487 -1.43193,0.16846 -1.38981,0.67385 -1.85309,0.25269 h -1.43193 -1.81097 l -2.06366,-0.58961 -0.58962,-0.75808 -0.63173,-0.46327 -1.09501,-0.37905 -1.68462,-0.25269 -1.81097,-0.5475 -0.58962,-0.8002 -0.42115,-1.01077 -1.13712,-2.274244 -0.8002,-2.105777 -1.05289,-1.221353 -1.01078,-1.474044 -0.50538,-1.642509 -0.16846,-2.190012 0.67384,-2.063663 v -0.589619 l -0.12635,-0.968658 0.33693,-1.3477 1.3477,-1.558273 1.01078,-2.021548 0.96865,-2.442706 1.3477,-2.737512 1.22135,-2.442705 0.96866,-2.27424 0.46327,-2.147897 1.26347,-2.19001 1.05289,-1.684624 1.01078,-1.642506 1.05288,-1.305586 1.51617,-2.863858 0.96865,-1.937316 0.84232,-2.737516 0.84231,-2.526938 -0.0842,-0.884425 -0.67385,-2.105776 -0.37904,-1.684626 0.63173,-2.147892 1.3477,-2.232129 1.60039,-1.726741 1.09501,-1.010772 0.63173,-1.516162 1.55828,-4.211559 1.55827,-3.158668 1.47405,-2.316357 1.26347,-2.569051 1.8952,-1.726737 2.19001,-1.263467 2.06366,-1.095007 2.73752,-0.421157 3.74828,0.336927 1.51616,0.589618 2.9481,1.22135 3.70616,1.052891 1.89521,0.379041 1.93731,0.294809 2.10578,0.631732 4.46426,3.200785 4.84329,6.359453 2.35847,3.832517 -0.25269,5.053875 0.29481,7.328108 -0.58962,4.71695 -2.65328,3.074435 -0.88443,1.937319 -1.51616,2.021545 -0.75808,1.684624 -1.3477,2.779631 -1.01077,1.558277 -0.75809,1.97943 -1.55827,2.147896 -1.68462,2.063663 -2.31636,1.3477 -2.44271,1.263468 -2.56905,1.010772 -2.02155,1.263468 -2.14789,1.810971 -2.27424,1.895201 -2.1479,2.274243 -2.48482,1.726739 -2.48482,1.97943 c 0,0 -2.27424,1.347702 -2.48481,1.474049 -0.21058,0.126344 -2.1479,1.600388 -2.1479,1.600388 l -1.22135,1.179238 -0.84231,1.095005 -0.2527,1.726739 0.2527,1.726743 0.0421,1.30558 -0.37904,1.26347 -0.92654,1.05289 -1.05289,0.58962 z"
         style="display:inline;fill:#a26a51;fill-opacity:1;fill-rule:evenodd;stroke:none;stroke-width:0.0757252;stroke-linecap:round;stroke-miterlimit:4;stroke-dasharray:none;stroke-opacity:1" />
      <path
         inkscape:connector-curvature="0"
         id="path6572"
         d="m 214.11868,26.934229 0.80407,1.459231 0.83384,2.352638 1.31033,3.186483 0.32758,3.573626 0.2978,2.91846 0.17869,3.305604 0.53604,3.275826 0.23824,2.53132 0.38715,2.680217 0.35736,0.804065 -0.1489,-2.531318 -0.32758,-3.365164 -0.0596,-1.846373 0.92318,4.437254 c 0,0 0.29781,2.293076 0.32758,2.441975 0.0298,0.148901 0.20847,2.531318 0.17868,2.680221 -0.0298,0.148903 0.17869,1.250768 0.17869,1.250768 0,0 0.1489,-1.399671 0.1489,-1.548573 0,-0.148899 0.0893,-2.561097 0.0893,-2.561097 l -0.32758,-3.186483 1.01253,5.896482 0.38714,1.727255 c 0,0 0.23824,1.012525 0.35736,1.220989 0.11912,0.20846 1.04231,3.930986 1.04231,3.930986 0,0 0.65516,2.59088 0.65516,2.71 0,0.119124 0.2978,1.250769 0.2978,1.250769 l -0.38714,-2.918461 -0.0596,-3.275823 0.11912,-2.412196 c 0,0 0.59561,2.352634 0.59561,2.501536 0,0.148903 1.10186,5.151979 1.01252,5.33066 -0.0893,0.178681 -0.50626,3.097143 -0.50626,3.097143 l -0.56582,3.484283 c 0,0 -1.5188,3.275826 -1.57836,3.424724 -0.0596,0.148903 -1.63791,2.888682 -1.63791,2.888682 l -1.42945,2.769563 0.83385,-0.476485 1.39967,-1.697473 1.54857,-2.173956 1.48901,-3.067363 0.1489,1.637914 -0.86363,3.543843 -1.25076,2.978023 -1.39968,1.935715 1.60814,-1.012526 1.90593,-2.918465 1.10187,-2.054834 1.48901,-2.203735 -0.0893,2.025054 0.41692,-0.982746 c 0,0 -0.56582,2.114395 -0.65516,2.293076 -0.0893,0.178681 -1.34011,2.680218 -1.34011,2.680218 l -0.68495,1.548573 c 0,0 -2.05483,3.93099 -2.20373,3.990548 -0.1489,0.05956 -1.36989,2.144178 -1.36989,2.144178 l 2.47175,-2.114396 2.44198,-3.752308 1.04231,-2.769558 -0.86363,4.228791 2.05484,-1.727255 -0.80407,2.263297 -1.0423,2.8589 3.18648,-4.764835 -0.32758,1.399671 -0.50627,1.816595 0.80407,-0.268022 1.45923,-2.114396 c 0,0 -1.63791,4.883954 -1.63791,5.032856 0,0.148903 -0.35737,2.73978 -0.35737,2.73978 l -0.17868,2.025054 -0.32758,2.173954 1.01253,-1.75703 0.89341,-1.489011 0.4467,-2.888681 1.07209,-2.084616 1.25076,-1.399671 -0.62538,2.441978 -0.4467,2.620661 -0.0298,2.441978 c 0,0 0.98274,-2.91846 1.04231,-3.037585 0.0595,-0.119118 1.60813,-3.692746 1.60813,-3.692746 l 0.5956,-2.91846 0.26802,2.382417 -0.68494,4.079888 c 0,0 -0.0893,2.441978 -0.0893,2.561101 0,0.11912 0.0596,4.13945 0.0596,4.13945 l 1.22099,-2.918467 1.10186,-3.48428 1.13165,-3.633185 c 0,0 -0.0298,2.620656 -0.0893,2.829116 -0.0596,0.208464 -1.45923,6.670773 -1.45923,6.670773 0,0 0.0298,1.757033 0,1.876152 -0.0298,0.11912 0.53604,-1.876152 0.53604,-1.876152 0,0 1.16143,-2.382424 1.22099,-2.650443 0.0596,-0.268021 1.5188,-3.573623 1.5188,-3.573623 l 0.7445,-1.667692 -0.35736,8.040657 -0.83385,6.313403 c 0,0 1.10187,-2.73978 1.10187,-2.8589 0,-0.119119 1.01253,-2.91846 1.01253,-2.91846 l -0.11912,4.16923 0.83384,2.05484 0.4467,-4.437254 0.86363,2.531314 0.56583,1.42945 1.42945,-6.04538 c 0,0 1.10186,2.144174 1.10186,2.322855 0,0.178681 0.44671,2.888685 0.44671,2.888685 0,0 1.69747,1.01252 1.54857,0.80406 -0.1489,-0.20846 0.4467,-5.7178 0.4467,-5.7178 l 1.10187,3.63319 c 0,0 0.77429,3.99055 0.80407,4.10967 0.0298,0.11912 0.5956,-0.98275 0.53604,-1.13165 -0.0596,-0.1489 -0.1489,-4.645713 -0.1489,-4.645713 l -0.0298,-1.816595 2.29307,4.526588 c 0,0 1.07209,2.50154 1.01253,2.2633 -0.0596,-0.23824 -0.2978,-4.377692 -0.2978,-4.377692 l 0.7445,0.744512 1.69748,2.41219 -0.41693,-16.081312 -1.0423,-1.369891 -2.29308,-3.216266 -1.22099,-1.757033 -1.90593,-3.782088 -2.14418,-4.705271 0.89341,-0.416924 2.53132,2.620659 -3.33539,-5.003077 -1.36989,-0.357366 -1.54857,-1.637909 -0.92319,-3.662964 2.53132,2.79934 1.51879,2.025056 -1.31033,-2.710001 -1.81659,-2.441979 -1.10187,-1.280552 -1.0423,-2.203735 -0.53605,-2.293076 2.65044,4.169232 0.35736,1.22099 c 0,0 0.44671,-1.548574 0.32759,-1.578352 -0.11912,-0.02978 -1.07209,-3.543849 -1.07209,-3.543849 l -1.72725,-1.995271 -1.78682,-1.935714 -1.99527,-2.144179 -1.25077,-1.995271 -1.36989,-1.727254 1.84637,1.757033 1.01253,1.48901 -0.11912,-1.727252 -1.04231,-1.42945 -1.87615,-1.757033 -1.57835,-1.250768 -1.10187,-2.084618 -1.54857,-2.263297 -3.63319,-2.441975 -1.63791,-1.131648 -1.90593,-2.352638 -1.5188,-2.263298 -1.93571,-1.191206 -0.95297,-0.893409 -1.60813,-1.816594 -1.28055,-1.310329 -1.72725,-0.416922 -2.14418,-0.238242 -0.56582,0.416923 z"
         style="display:inline;fill:#5a5161;fill-opacity:1;fill-rule:evenodd;stroke:none;stroke-width:0.0757252;stroke-linecap:round;stroke-miterlimit:4;stroke-dasharray:none;stroke-opacity:1" />
      <path
         inkscape:connector-curvature="0"
         id="path6574"
         d="m 206.72491,22.007071 -3.62523,-1.526416 -3.24364,-0.190802 -2.54402,0.0636 -3.75244,1.27201 -2.54403,1.335615 -3.68884,2.98923 -1.1448,2.289621 -2.03523,2.226024 c 0,0 -1.84442,2.544027 -1.90801,2.798431 -0.0636,0.254401 -1.52642,3.498033 -1.52642,3.498033 l -0.89041,4.19764 c 0,0 1.65362,-3.243631 1.84442,-3.688835 0.1908,-0.445207 2.03522,-4.006838 2.03522,-4.006838 l 1.90802,-2.098824 0.69961,-0.890409 -1.59002,3.180032 -1.52641,2.671226 -1.20842,2.289623 0.95401,-0.890408 1.59002,-1.526415 -1.97162,2.226023 -1.14481,2.734825 -1.39921,1.97162 0.6996,1.399214 0.82681,-1.844419 2.09882,-2.734826 -0.95401,2.035222 -0.82681,1.844416 0.1272,1.71722 1.20842,-2.989234 2.60762,-2.480424 -1.46281,1.844419 -0.0636,1.526417 2.09883,-2.671228 2.09882,-2.798427 3.62523,-2.544025 2.35323,-1.844418 4.19764,-1.97162 1.39921,-0.318006 -0.5724,1.590018 -1.27202,2.480424 -1.1448,1.717216 -1.14482,2.416827 -1.27201,3.370831 c 0,0 1.33562,-1.208411 1.78082,-1.590017 0.4452,-0.381602 2.09882,-3.116429 2.09882,-3.116429 l 1.27201,-1.971619 0.1272,1.399214 -1.33561,2.671227 0.57241,-0.190804 1.33561,-1.908018 0.636,-1.653619 0.12721,2.289624 0.5724,-1.717217 1.46282,-2.289621 0.76321,-2.73483 0.954,1.399219 0.44521,2.734825 0.82681,-1.780816 c 0,0 0.95401,-1.272015 0.95401,-1.590019 0,-0.318005 0.1272,-3.05283 0.1272,-3.05283 l -0.50881,-1.081211 1.46282,0.954009 -1.33562,-1.717217 -1.46281,-1.844419 -0.89041,-1.653616 z"
         style="display:inline;fill:#5a5161;fill-opacity:1;fill-rule:evenodd;stroke:none;stroke-width:0.0757252;stroke-linecap:round;stroke-miterlimit:4;stroke-dasharray:none;stroke-opacity:1" />
      <path
         inkscape:connector-curvature="0"
         id="path6578"
         d="m 204.23472,6.0842013 0.96866,1.0528898 0.75808,1.095005 1.05289,1.6425075 0.71596,2.6532824 1.09501,2.779629 0.50538,1.853086 0.92655,2.063663 1.17923,2.48482 1.01078,1.810971 0.8002,1.726738 0.71596,1.810972 0.63173,0.505385 0.50539,1.516162 0.12635,0.842311 -0.21058,1.853088 -0.33693,2.021545 -1.97943,-0.715963 -3.11655,-1.810973 -1.22135,-2.021546 -1.60039,-1.600391 -1.47405,-2.48482 -1.13712,-1.768855 -1.64251,-2.86386 -0.46327,-3.2429 -0.25269,-2.737514 0.21057,-1.81097 0.0421,-1.979433 -0.0421,-1.9794324 c 0,0 -0.33692,-0.8423113 -0.37904,-1.0107733 -0.0421,-0.1684634 -0.37904,-2.1900114 -0.37904,-2.1900114 l 0.2527,-0.5053859 0.80019,0.1684619 z"
         style="display:inline;fill:#a26a51;fill-opacity:1;fill-rule:evenodd;stroke:none;stroke-width:0.0757252;stroke-linecap:round;stroke-miterlimit:4;stroke-dasharray:none;stroke-opacity:1" />
      <path
         inkscape:connector-curvature="0"
         id="path6581"
         d="m 204.79747,48.792909 -0.50626,0.268022 -0.7445,0.08934 h -0.59561 l -0.95297,-0.238242 h -0.38714 l -0.4467,-0.11912 -0.59561,-0.148902 -0.5956,-0.08934 v -0.774282 l 0.20846,-0.595605 0.32758,-0.923188 0.41692,-0.536045 1.10187,-0.833844 0.53604,-0.208463 0.95297,-0.02978 1.16143,0.327584 0.80407,0.50626 0.2978,0.357366 0.35736,0.595603 v 0.416924 l -0.1489,0.416924 -0.1489,0.327583 -0.26802,0.536043 -0.35736,0.446703 z"
         style="fill:#000000;fill-opacity:1;fill-rule:evenodd;stroke:none;stroke-width:0.0757252;stroke-linecap:round;stroke-miterlimit:4;stroke-dasharray:none;stroke-opacity:1" />
      <path
         inkscape:connector-curvature="0"
         id="path6583"
         d="m 174.58534,87.619978 1.17924,1.010774 0.84231,1.263466 0.63174,1.179239 0.29481,0.547501 v 2.021548 l -0.21058,1.052891 -0.88443,1.263467 -1.38981,1.095005 -1.22136,0.04211 -1.38981,-0.84231 -0.33693,-1.221353 0.2527,-1.179238 0.33692,-1.516159 0.42116,-1.137119 0.58962,-1.263469 0.37904,-1.179238 0.16846,-0.884428 z"
         style="fill:#000000;fill-opacity:1;fill-rule:evenodd;stroke:none;stroke-width:0.0757252;stroke-linecap:round;stroke-miterlimit:4;stroke-dasharray:none;stroke-opacity:1" />
      <path
         inkscape:connector-curvature="0"
         id="path6585"
         d="m 174.07996,104.55044 2.02155,0.0421 1.38981,-0.0421 1.47405,-0.29481 1.55827,-0.67384 1.17924,-1.26347 1.55828,-1.72674 1.01077,-1.558277 0.71597,-1.474047 0.58961,-1.263468 0.75808,-0.926543 0.88443,-1.179234 0.75808,-1.052891 0.63174,-0.463272 0.29481,-0.08423"
         style="fill:none;fill-opacity:1;fill-rule:evenodd;stroke:#000000;stroke-width:0.52916664;stroke-linecap:round;stroke-miterlimit:4;stroke-dasharray:none;stroke-opacity:1" />
    </g>
  </g>
</svg>
