<?xml version="1.0" encoding="UTF-8" standalone="no"?>
<!-- Created with Inkscape (http://www.inkscape.org/) -->

<svg
   xmlns:dc="http://purl.org/dc/elements/1.1/"
   xmlns:cc="http://creativecommons.org/ns#"
   xmlns:rdf="http://www.w3.org/1999/02/22-rdf-syntax-ns#"
   xmlns:svg="http://www.w3.org/2000/svg"
   xmlns="http://www.w3.org/2000/svg"
   xmlns:sodipodi="http://sodipodi.sourceforge.net/DTD/sodipodi-0.dtd"
   xmlns:inkscape="http://www.inkscape.org/namespaces/inkscape"
   id="svg8"
   version="1.1"
   viewBox="0 0 343.95833 367.77085"
   height="1390"
   width="1300"
   inkscape:version="0.92.4 (5da689c313, 2019-01-14)"
   sodipodi:docname="horse01.svg"
   inkscape:export-filename="/home/ashley/Downloads/horse.png"
   inkscape:export-xdpi="96"
   inkscape:export-ydpi="96">
  <defs
     id="defs2">
    <inkscape:path-effect
       effect="simplify"
       id="path-effect4531"
       is_visible="false"
       steps="1"
       threshold="0.002"
       smooth_angles="0"
       helper_size="5"
       simplify_individual_paths="false"
       simplify_just_coalesce="false" />
    <inkscape:path-effect
       effect="simplify"
       id="path-effect5591"
       is_visible="true"
       steps="4"
       threshold="0.0004"
       smooth_angles="60"
       helper_size="5"
       simplify_individual_paths="false"
       simplify_just_coalesce="false" />
    <inkscape:path-effect
       effect="roughen"
       id="path-effect5589"
       is_visible="true"
       method="segments"
       max_segment_size="10"
       segments="2"
       displace_x="10;1"
       displace_y="10;1"
       global_randomize="1;1"
       handles="along"
       shift_nodes="true"
       fixed_displacement="false"
       spray_tool_friendly="false" />
    <inkscape:path-effect
       effect="sketch"
       id="path-effect5587"
       is_visible="true"
       nbiter_approxstrokes="5"
       strokelength="100"
       strokelength_rdm="0.3;1"
       strokeoverlap="0.3"
       strokeoverlap_rdm="0.3;1"
       ends_tolerance="0.1;1"
       parallel_offset="5;1"
       tremble_size="5;1"
       tremble_frequency="1"
       nbtangents="5"
       tgt_places_rdmness="1;1"
       tgtscale="10"
       tgtlength="100"
       tgtlength_rdm="0.3;1" />
    <inkscape:path-effect
       effect="fill_between_strokes"
       id="path-effect5585"
       is_visible="true"
       linkedpath=""
       secondpath=""
       reversesecond="false" />
  </defs>
  <sodipodi:namedview
     inkscape:window-maximized="1"
     inkscape:window-y="27"
     inkscape:window-x="54"
     inkscape:window-height="1016"
     inkscape:window-width="1866"
     units="px"
     showgrid="false"
     inkscape:current-layer="layer5"
     inkscape:document-units="px"
     inkscape:cy="688.34928"
     inkscape:cx="348.22368"
     inkscape:zoom="0.60143885"
     inkscape:pageshadow="2"
     inkscape:pageopacity="0.0"
     borderopacity="1.0"
     bordercolor="#666666"
     pagecolor="#ffffff"
     id="base"
     showguides="true"
     inkscape:guide-bbox="true"
     inkscape:snap-to-guides="false"
     fit-margin-top="0"
     fit-margin-left="0"
     fit-margin-right="0"
     fit-margin-bottom="0">
    <sodipodi:guide
       position="253.64992,78.89779"
       orientation="0,1"
       id="guide5595"
       inkscape:locked="false" />
  </sodipodi:namedview>
  <metadata
     id="metadata5">
    <rdf:RDF>
      <cc:Work
         rdf:about="">
        <dc:format>image/svg+xml</dc:format>
        <dc:type
           rdf:resource="http://purl.org/dc/dcmitype/StillImage" />
        <dc:title />
      </cc:Work>
    </rdf:RDF>
  </metadata>
  <g
     inkscape:groupmode="layer"
     id="layer5"
     inkscape:label="feet"
     style="display:inline"
     transform="translate(-71.872139,41.01042)">
    <path
       style="fill:#635e53;fill-opacity:1;fill-rule:evenodd;stroke:none;stroke-width:0.79375005;stroke-miterlimit:4;stroke-dasharray:none;stroke-opacity:1"
       d="m 395.20776,245.44635 1.25648,1.83638 5.31583,0.96652 4.05937,-0.38661 1.25645,-0.86986 0.86987,-4.83258 -2.41628,-5.21918 -4.05937,-0.1933 -5.60578,2.60959 -1.64306,1.83638 -0.57992,1.44977 z"
       id="path5624"
       inkscape:connector-curvature="0" />
    <path
       style="fill:#635e53;fill-opacity:1;fill-rule:evenodd;stroke:none;stroke-width:0.79375005;stroke-miterlimit:4;stroke-dasharray:none;stroke-opacity:1"
       d="m 309.09134,240.42048 c 0,0 -2.51294,2.12633 -2.60959,2.60959 -0.0966,0.48326 0,2.80289 0,2.80289 l 1.06315,0.86986 3.47946,0.77321 1.83639,0.57991 c 0,0 4.05934,-0.3866 4.54261,-0.3866 0.48326,0 3.76941,-1.25647 3.76941,-1.25647 l 4.05934,-0.86987 2.223,-1.64307 0.0967,-2.70624 0.48326,-3.09285 -6.08904,0.19331 -6.1857,-0.38661 -2.80289,0.38661 z"
       id="path5626"
       inkscape:connector-curvature="0" />
    <path
       style="fill:#635e53;fill-opacity:1;fill-rule:evenodd;stroke:none;stroke-width:0.79375005;stroke-miterlimit:4;stroke-dasharray:none;stroke-opacity:1"
       d="m 235.73288,241.87025 3.57611,0.86986 4.15601,0.96652 3.86606,1.54642 0.86986,2.31963 -4.63927,-0.0966 -6.86225,0.28996 -5.41248,-0.38661 h -3.76941 c 0,0 1.83638,-2.41628 2.22298,-2.60959 0.38661,-0.1933 5.99239,-2.89954 5.99239,-2.89954 z"
       id="path5628"
       inkscape:connector-curvature="0" />
    <path
       style="fill:#635e53;fill-opacity:1;fill-rule:evenodd;stroke:none;stroke-width:0.79375005;stroke-miterlimit:4;stroke-dasharray:none;stroke-opacity:1"
       d="m 152.22603,232.49506 1.25647,-3.67276 2.70624,0.0967 3.28615,-1.35313 3.28615,0.38661 2.22298,1.06317 -0.28995,3.7694 -2.60959,1.64308 -2.60959,2.99619 -3.67275,2.41629 -2.8029,1.73973 -1.44977,-2.12634 0.48326,-3.5761 -0.0966,-1.93303 z"
       id="path5630"
       inkscape:connector-curvature="0" />
  </g>
  <g
     inkscape:groupmode="layer"
     id="layer4"
     inkscape:label="back leg"
     style="display:inline"
     transform="translate(-71.872139,41.01042)">
    <path
       style="fill:#835642;fill-opacity:1;fill-rule:evenodd;stroke:none;stroke-width:0.79375005;stroke-miterlimit:4;stroke-dasharray:none;stroke-opacity:1"
       d="m 226.62504,180.91201 1.36686,3.96388 1.23017,3.82721 0.68343,5.05737 1.64023,4.10057 0.9568,3.14378 0.68343,3.8272 1.23017,1.64023 1.23017,1.36686 1.09349,3.96389 1.23017,4.64731 1.77692,6.56092 v 4.51063 l 0.13668,6.28755 -1.09349,4.10057 -0.82011,2.18697 -2.32366,2.18698 4.92069,2.73371 2.46034,0.9568 2.18697,-0.27337 -0.54674,-3.55383 1.77692,-3.14377 1.9136,-3.28046 1.77691,-1.64023 0.68343,-4.64732 -0.27337,-3.8272 -1.64023,-5.46743 -3.41714,-9.84138 -1.77692,-7.10766 -0.27337,-5.33075 0.68343,-3.8272 -2.32366,-5.46743 -0.41006,-6.28754 -1.50354,-8.06447 -0.54674,-6.28754 -1.9136,-8.74789 -1.09349,-5.33075 -2.8704,-7.24435 -9.02127,2.32366 -7.51771,3.14377 -2.59703,2.73372 1.09348,4.37395 1.50355,0.68342 1.77691,1.09349 1.77692,3.14377 2.32366,4.92069 1.9136,5.33075 1.50354,5.7408 z"
       id="path5599"
       inkscape:connector-curvature="0" />
    <path
       style="fill:#835642;fill-opacity:1;fill-rule:evenodd;stroke:none;stroke-width:0.79375005;stroke-miterlimit:4;stroke-dasharray:none;stroke-opacity:1"
       d="m 357.32041,171.7013 4.44595,4.63927 3.96272,3.28615 2.80289,2.41628 1.54644,1.83638 2.51293,3.3828 1.35311,2.70624 1.06317,2.22298 2.22298,2.22299 2.41628,2.70624 c 0,0 0.67656,2.22298 0.96652,2.89954 0.28996,0.67656 1.44978,4.15602 1.44978,4.15602 l 1.54642,5.79908 0.48326,2.12633 1.25648,3.28615 0.67654,1.93303 0.67656,4.25266 0.38661,3.57611 0.0967,3.09284 0.86987,1.83638 2.31963,3.28615 1.35311,3.96271 1.44978,4.34932 0.67657,1.64307 1.44976,2.12633 c 0,0 1.93304,-2.41628 2.31965,-2.80289 0.38658,-0.3866 3.67274,-4.44597 3.67274,-4.44597 0,0 -0.9665,-4.15601 -1.06315,-4.63926 -0.0967,-0.48326 -0.67657,-4.54262 -0.67657,-4.54262 l 0.28996,-2.41629 -2.41628,-4.73592 -0.57992,-3.28615 -3.28615,-5.79909 -0.67656,-5.50913 -1.64307,-6.66895 -0.96652,-5.79909 -1.25648,-7.24885 -0.77319,-6.08905 -1.15983,-5.12252 -4.05937,-3.3828 -4.83256,-6.28235 -2.9962,-4.05936 -3.5761,-5.02587 -1.93302,-5.02588 c 0,0 -0.0967,-2.70624 0.0967,-3.28615 0.1933,-0.57991 0.67654,-5.21918 0.67654,-5.21918 l 1.15983,-2.60959 0.96652,-4.92922 0.48326,-3.09284 0.9665,-3.47946 -0.0966,-3.7694 0.67656,-3.86606 0.38661,-3.86606 0.0967,-5.89574 0.57992,-2.70624 -0.57992,-2.60959 -0.36144,-2.61678 -4.56777,-3.56891 -14.49774,-4.445969 -11.69482,12.468039 -16.23743,32.37823 1.93302,9.08524 11.21156,3.67276 1.8364,1.35311 1.25645,1.15982 3.47945,4.15602 3.1895,3.09284 2.89955,3.09285 2.60958,3.28615 z"
       id="path5622"
       inkscape:connector-curvature="0" />
  </g>
  <g
     inkscape:groupmode="layer"
     id="layer7"
     inkscape:label="back ear"
     style="display:inline"
     transform="translate(-71.872139,41.01042)">
    <path
       style="fill:#835642;fill-opacity:1;fill-rule:evenodd;stroke:none;stroke-width:0.79375005;stroke-miterlimit:4;stroke-dasharray:none;stroke-opacity:1"
       d="m 124.39042,49.243913 -4.05937,-2.899543 -1.54642,-1.643076 -2.02968,-2.029679 -1.25647,-1.93303 -0.67656,0.483259 1.44977,3.189496 1.64308,3.769408 0.96651,2.319634 2.02968,3.962709 2.41629,3.382802 1.25647,1.256466 3.18949,-2.126332 2.8029,-1.739725 -2.41629,-2.609588 -2.41629,-2.126332 z"
       id="path5656"
       inkscape:connector-curvature="0" />
  </g>
  <g
     inkscape:groupmode="layer"
     id="layer2"
     inkscape:label="body"
     style="display:inline"
     transform="translate(-71.872139,41.01042)">
    <path
       style="fill:#a26a51;fill-opacity:1;fill-rule:evenodd;stroke:none;stroke-width:0.79375005;stroke-miterlimit:4;stroke-dasharray:none;stroke-opacity:1"
       d="m 102.9818,85.332548 -2.64702,3.90751 -2.394928,5.04195 -2.016779,4.663803 -2.647024,4.789849 -0.756293,3.78146 1.260489,2.89912 1.00839,1.38654 0.756291,2.01678 1.764683,1.76468 2.647024,1.26049 1.638627,0.37814 1.63864,-0.37814 1.00839,0.88234 3.27726,0.2521 h 3.02517 l 1.51259,-1.76469 0.88234,-2.89912 0.37815,-0.75629 1.76468,-0.88234 2.01678,-1.76468 4.03356,-3.40332 3.90751,-2.64702 3.02517,-2.39493 2.52097,-1.764679 2.64702,-1.890728 4.03356,-2.394927 2.26888,-1.764683 1.63863,-1.764681 4.6638,0.88234 3.15122,1.134439 3.52937,1.890731 4.1596,3.151219 3.27727,2.647019 3.02517,3.65542 3.27727,3.27726 2.26887,1.76468 1.63864,2.01678 2.89912,2.89912 2.14282,2.52098 2.26888,2.01678 1.38654,2.01678 0.50419,2.01678 0.88235,4.9159 0.63024,3.78146 1.26048,4.53775 2.01678,4.28566 1.38654,3.78146 2.01678,3.65541 2.39493,3.15122 v 2.26888 l -2.14283,4.03356 -3.02517,4.1596 -4.9159,5.4201 -4.66381,4.78985 -4.6638,4.4117 -2.39492,2.64703 -0.75629,1.51258 -1.26049,2.39493 -1.00839,1.76468 -0.75629,3.15122 v 2.14283 l -0.2521,1.89073 -1.26049,3.78146 -1.13444,2.89912 -2.39492,6.42848 -1.51259,3.40332 -1.76468,4.78985 -0.50419,2.14283 0.50419,2.52097 -0.2521,2.01678 -0.50419,2.01678 -1.26049,3.65541 -1.00839,5.168 4.28566,-0.2521 6.30243,-1.76468 -0.75629,-1.26048 -0.75629,-3.78147 2.14283,-2.26887 1.76468,-2.77307 0.37814,-3.52937 2.01678,-8.82341 1.63864,-3.90751 2.26888,-7.56292 1.76468,-3.78146 2.39492,-1.26049 0.63025,-1.63863 1.13443,-1.51259 5.04195,-3.78146 4.6638,-3.27727 7.05873,-4.53775 5.04195,-3.15122 3.40332,-3.02517 7.31082,-4.28565 4.28566,-1.76469 3.40331,-2.64702 1.51259,-2.39492 4.03356,-0.2521 4.78985,-0.63025 h 3.78146 l 5.168,0.2521 7.81502,0.2521 6.68058,0.88234 9.32761,-0.63024 h 3.52935 l 7.68898,-0.12605 5.42009,-0.88234 8.06712,-1.51259 8.19317,-2.89912 6.93269,-3.15122 5.54614,-2.64702 2.77308,-1.89073 1.26047,3.65541 1.38655,2.89912 2.26885,4.66381 1.63865,4.4117 1.51259,6.80663 0.88234,4.78985 0.50419,3.78146 0.63023,2.14283 1.89074,2.64703 0.88234,3.15121 1.38655,5.29405 1.38652,4.15961 0.63026,3.40331 0.12605,3.40332 c 0,0 0.37814,2.39492 0.50419,3.15122 0.12605,0.75629 -0.2521,3.52936 -0.2521,3.52936 0,0 -0.12604,1.76468 -0.37814,2.26888 -0.25212,0.50419 -1.63864,3.90751 -1.63864,3.90751 l -0.63024,3.65541 -2.01679,6.30243 -1.13442,4.28566 -1.13446,3.40332 -2.01678,2.77307 -0.88234,2.01678 -2.89912,2.26888 -2.77307,1.89073 -1.76469,1.26048 2.89912,0.37815 3.27729,-0.12605 3.02516,0.2521 2.77308,1.13444 3.15121,-0.12605 2.26888,0.12605 1.51257,-2.26888 1.5126,-3.65541 2.39493,-7.05873 1.00838,-5.04195 1.38655,-5.79824 2.3949,-6.93268 1.76469,-7.31083 0.50419,-1.00839 1.63864,-5.04194 1.76467,-2.77308 0.63026,-3.27726 -0.37814,-2.64703 -1.76469,-6.17638 -1.2605,-5.6722 -1.38652,-9.20155 1.13442,-6.30244 2.14284,-4.6638 2.39493,-3.02517 4.03357,-4.78985 7.31081,-8.06712 3.40331,-5.54614 2.26888,-4.41171 2.89912,-5.54614 1.76469,-5.168 1.51257,-6.42848 1.51259,-3.40332 3.9075,-2.89912 2.26889,-3.90751 -0.75629,-4.789849 -1.76469,-6.554533 -2.77307,-4.285658 -3.40331,-4.033557 -4.41169,-3.277267 -5.54617,-3.403317 -4.28564,-1.134438 -8.06712,-3.025169 -5.79824,-1.386536 -8.19317,-2.142826 -5.29404,-0.756293 -6.68058,0.756293 -9.07552,1.764681 -9.45364,2.268876 -8.31922,1.512586 -9.20157,1.764681 -5.16798,0.252098 -6.30245,0.756293 -5.79823,-0.252098 -5.6722,-0.252097 -5.16799,-1.638634 -6.55454,-2.394926 -4.53775,-2.142829 -4.9159,-1.134438 -9.32761,-1.386536 h -7.81501 l -7.56293,-0.504195 -6.55453,-0.75629 -6.42849,-1.260489 -6.93268,-2.394926 -9.20155,-2.268876 -12.22673,-4.159608 -7.05873,-2.647024 -5.92428,-1.386535 -8.06712,-1.386536 -6.30244,-1.764681 -5.67219,-0.756293 -6.17639,-0.882341 -7.05873,0.378146 c 0,0 -4.28565,1.260488 -4.78985,1.764683 -0.50419,0.504196 -2.52097,3.655412 -2.52097,3.655412 l -0.88234,4.03356 -2.01678,4.78985 -3.52937,5.798241 -3.78146,7.058729 -2.89912,5.924288 z"
       id="path5601"
       inkscape:connector-curvature="0" />
  </g>
  <g
     inkscape:groupmode="layer"
     id="layer3"
     inkscape:label="hair"
     style="display:inline"
     transform="translate(-71.872139,41.01042)">
    <path
       style="fill:#5a5161;fill-opacity:1;fill-rule:evenodd;stroke:none;stroke-width:0.79375005;stroke-miterlimit:4;stroke-dasharray:none;stroke-opacity:1"
       d="m 358.49895,82.298709 c 0.18684,-0.09665 0.35381,-0.23055 0.56053,-0.289954 0.14182,-0.04075 0.29986,0.01423 0.44842,0 1.70076,-0.162928 3.43845,-0.09665 5.1568,-0.09665 0.97359,0 5.4072,-0.182023 6.05365,0.09665 0.18792,0.08101 0.34249,0.09932 0.56054,0.193301 0.47723,0.20573 1.20373,1.044157 1.68154,1.353122 0.39172,0.253278 0.0507,-0.01767 0.44842,0.09665 0.17819,0.05121 0.27906,0.313597 0.44843,0.386606 0.2321,0.100052 0.32177,0.02953 0.44842,0.193302 0.035,0.04539 0.077,0.244562 0.11204,0.289954 0.0863,0.111522 0.25009,0.178435 0.33632,0.289955 0.13834,0.178948 0.0745,0.311076 0.22421,0.483258 0.26108,0.300115 0.24791,0.234159 0.4484,0.579909 0.15945,0.274928 0.84166,0.871365 1.00895,1.159817 0.13021,0.224512 0.11077,0.481041 0.2242,0.676561 0.0709,0.122256 0.28618,0.160282 0.33632,0.289954 0.1618,0.418462 -0.2143,-0.03552 0.11216,0.386606 0.45242,0.585079 0.94126,1.086872 1.45735,1.643073 0.21328,0.229847 0.20616,0.548746 0.33631,0.773214 0.26276,0.453048 0.98627,0.843801 1.34527,1.256466 0.11216,0.128871 0.25275,0.242528 0.33632,0.386607 0.0334,0.05763 -0.0385,0.138051 0,0.193304 0.23314,0.335024 0.46677,0.402424 0.78473,0.676558 0.11816,0.101881 0.12392,0.271344 0.22422,0.386607 0.30541,0.351099 0.5909,0.711502 0.89681,1.063167 0.31391,0.360831 0.80717,0.605682 1.12105,0.966513 0.18202,0.20924 0.14693,0.472482 0.33632,0.67656 0.30921,0.333262 0.73509,0.612336 1.00895,0.966515 0.27536,0.03446 0.0465,0.205185 0.11216,0.289955 0.11494,0.148693 0.33343,0.23791 0.44842,0.386606 0.13835,0.178946 0.0745,0.311073 0.22418,0.483256 0.4003,0.460156 0.82905,0.88859 1.23316,1.353122 0.27734,0.318817 0.80644,0.598607 1.12106,0.869867 0.13586,0.11712 0.22623,0.53423 0.33631,0.67655 0.12746,0.16484 0.89682,0.68507 0.89682,0.86987 0,0.0322 -0.0747,0 -0.11216,0 -0.14945,0 -0.30181,0.0253 -0.44839,0 -0.30296,-0.0522 -1.18124,-0.85561 -1.34527,-0.28996 -0.0978,0.33718 1.09562,1.62846 1.45737,1.83638 0.2785,0.16009 0.30103,0.003 0.4484,0.1933 0.26003,0.33624 0.59625,0.9973 0.89684,1.25647 0.16861,0.14537 0.32616,0.27245 0.44842,0.48326 0.0501,0.0864 -0.0355,0.19826 0,0.28995 0.0334,0.0864 0.17695,0.1118 0.22422,0.19331 0.39588,0.68263 -1.23317,0.63383 -1.23317,0.57991 0,-0.0322 0.11216,-0.0322 0.11216,0 0,0.072 -0.11216,0.12126 -0.11216,0.1933 0,0.19267 2.47715,2.0577 2.69054,2.60959 0.0496,0.12845 -0.0712,0.36054 0,0.48326 0.0922,0.15893 0.65882,0.6825 0.22418,0.86986 -0.26242,0.11313 -1.70156,0.0449 -1.79366,-0.19331 -0.10462,-0.27051 -0.17937,-0.34794 -0.44842,-0.5799 -0.0374,-0.0322 -0.11216,-0.14222 -0.11216,-0.0966 0,0.42213 0.15873,0.17701 0.33632,0.48325 0.41294,0.10055 0.0413,0.33073 0.11216,0.48326 0.12243,0.26385 0.30824,0.53152 0.44842,0.77321 0.0747,0.12887 -0.0747,0.35439 0,0.48326 0.0762,0.13136 0.26012,0.25524 0.33632,0.3866 0.11941,0.20593 -0.0852,0.55281 0,0.77322 0.205,0.53024 0.0754,1.12977 0.22421,1.64307 0.11344,0.39131 0.37244,0.73887 0.56054,1.06317 0.19444,0.33528 -0.0406,1.1206 0.11216,1.44977 0.0392,0.0846 0.17691,0.1118 0.22418,0.1933 0.20134,0.34716 0.38152,1.27667 0.56052,1.73973 0.1124,0.2908 -0.0865,0.66818 0,0.96651 0.0829,0.28606 0.13101,0.64504 0.22421,0.96652 0.0509,0.17552 0,0.40155 0,0.5799 0,0.16109 0,0.32218 0,0.48326 0,0.0322 0.0374,0.0966 0,0.0966 -0.51529,0 -1.22454,-1.35312 -1.45734,-1.35312 -0.11204,0 0,0.19331 0,0.28996 0,0.28995 0,0.57991 0,0.86986 0,0.19039 -0.10728,3.27782 -0.11204,3.28615 -0.0473,0.0815 -0.17695,0.1118 -0.22422,0.1933 -0.10821,0.18666 0.0587,0.57078 0,0.77322 -0.032,0.11025 -0.18581,0.25424 -0.2242,0.3866 -0.044,0.15161 0.044,0.33165 0,0.48326 -0.0573,0.19741 -0.0989,0.61118 -0.22422,0.77321 -0.0209,0.0268 -0.0955,-0.0288 -0.11216,0 -0.008,0.0136 0.006,0.57991 0,0.57991 -0.11216,0 0.0274,-0.19619 0,-0.28996 -0.10056,-0.34667 -0.25993,-0.73813 -0.44842,-1.06316 -0.14918,-0.25725 -0.31677,-0.42032 -0.33632,-0.38661 -0.19877,0.34276 0.0144,0.2182 0.11216,0.38661 0.0166,0.0288 0,0.12887 0,0.0966 0,-0.2238 0.25925,-1.92704 0.33631,-2.12633 0.0334,-0.0864 0.18496,-0.1087 0.22421,-0.19331 0.0385,-0.0829 0.091,-1.25647 0.22421,-1.25647 0.0747,0 0,0.12887 0,0.19331 0,0.13542 0.0747,0.64441 0,0.77321 -0.13199,0.22759 -0.36774,0.39831 -0.44842,0.67656 -0.0362,0.12502 0.0473,0.26435 0,0.38661 -0.0594,0.15352 -0.24944,0.33346 -0.33631,0.48325 -0.15676,0.27031 -0.18493,0.7055 -0.33632,0.96652 -0.0944,0.16287 -0.25917,0.18706 -0.33632,0.3866 -0.11971,0.30968 -0.12954,0.64005 -0.22421,0.96652 -0.0756,0.26078 0.0992,0.61332 0,0.86986 -0.0426,0.1102 -0.17416,0.1821 -0.22422,0.28996 -0.18717,0.40346 0,1.21607 0,1.64307 0,0.4153 0.15189,1.05698 0,1.44977 -0.0474,0.12275 -0.2312,1.15982 -0.33628,1.15982 -0.40601,0 -0.4741,-0.83959 -0.56053,-1.06317 -0.0833,-0.21548 -0.36725,-0.46663 -0.44842,-0.67656 -0.0963,-0.24892 -0.0151,-0.52187 -0.11216,-0.77321 -0.0264,-0.0683 -0.11216,-0.12126 -0.11216,-0.1933 0,-0.11415 0.11216,0.36685 0.11216,0.67656 0,0.48326 0,0.96651 0,1.44977 0,1.70751 0,3.41502 0,5.12253 0,0.34977 -0.20878,0.53995 -0.33632,0.86986 -0.0811,0.20982 0,0.55367 0,0.77321 0,0.24154 -0.11216,0.35509 -0.11216,0.57991 0,0.11075 -0.13012,1.25647 -0.22421,1.25647 -0.15286,0 -0.41556,-1.11479 -0.44842,-1.25647 -0.20279,-0.87424 -0.0104,0.26253 -0.22422,-0.28995 -0.0237,-0.0611 0,-0.25774 0,-0.19331 0,0.16139 0.0665,2.00811 0.11216,2.12634 0.0166,0.0432 0.0953,0.0534 0.11217,0.0967 0.0747,0.19329 0.12781,1.38112 0,1.54642 -0.17485,0.22611 -0.20077,0.34616 -0.33632,0.57991 -0.12644,0.21805 -0.43922,0.37074 -0.56053,0.57991 -0.0496,0.0855 -0.084,0.3463 -0.22418,0.3866 -0.64815,0.18626 -0.47153,-0.60127 -0.56053,-0.86986 -0.0459,-0.13854 -0.16216,-0.25283 -0.22421,-0.38661 -0.0357,-0.077 -0.11205,-1.96807 -0.11205,-2.22298 0,-1.67529 0,-3.35058 0,-5.02588 0,-0.5274 -0.18667,-1.74019 0,-2.22298 0.35915,-0.92897 0.10799,-3.87674 -0.22421,-4.73592 -0.0777,-0.20095 0.0911,-0.48021 0,-0.67656 -0.0392,-0.0846 -0.17695,-0.1118 -0.22421,-0.1933 -0.13454,-0.23197 0.13451,-0.6379 0,-0.86987 -0.0237,-0.0408 -0.0993,-0.0524 -0.11216,-0.0967 -0.0598,-0.20624 -0.16253,-2.02968 -0.33632,-2.02968 -0.35725,0 -0.16501,0.13684 -0.22421,0.28996 -0.12064,0.31203 -0.39828,0.68674 -0.56052,0.96651 -0.0897,0.15464 0.0897,0.42527 0,0.57991 -0.12277,0.2117 -0.14893,0.51359 -0.22422,0.77321 -0.0279,0.0967 0.056,0.19331 0,0.28996 -0.20481,0.35319 -0.60959,0.68571 -0.78471,1.06316 -0.23218,0.50041 -0.16215,1.42904 -0.33631,2.02968 -0.0518,0.17898 0.0674,0.40556 0,0.57991 -0.27068,0.70009 0.0324,-0.15238 -0.22421,0.28995 -0.21246,0.36632 -0.30633,0.73445 -0.56053,1.06317 -0.17492,0.22623 -0.0116,0.70483 -0.11216,0.96652 -0.18346,0.47451 -0.73205,0.87568 -1.00895,1.35312 -0.11007,0.18981 -0.1424,0.46492 -0.22422,0.67656 -0.10218,0.26438 -0.41987,0.43404 -0.56052,0.67656 -0.18229,0.31435 -0.0282,0.2299 -0.22421,0.48325 -0.11053,0.14299 -0.35967,0.23359 -0.4484,0.38661 -0.06,0.1035 -0.94553,1.35312 -1.00894,1.35312 -0.0755,0 -0.33631,-1.43205 -0.33631,-1.73973 0,-0.0322 0.009,0.0654 0,0.0967 -0.38708,1.00118 0.11517,-0.39968 -0.11216,0.5799 -0.0476,0.20498 -0.63169,1.12452 -0.78474,1.25647 -0.54109,0.46653 -0.19214,-0.0553 -0.44842,0.38661 -0.0446,0.077 -0.487,0.80333 -0.5605,0.67656 -0.1052,-0.18132 0,-0.58166 -0.11216,-0.77321 -0.0473,-0.0815 -0.18496,-0.1087 -0.22421,-0.19331 -0.0924,-0.19937 -0.26453,-1.66044 -0.44842,-1.73972 -0.31385,-0.1353 -0.5184,0.25362 -0.67264,0.3866 -0.30341,0.26159 -0.66428,0.28517 -1.00895,0.48326 -0.70448,0.40492 -1.88903,1.37368 -2.69049,1.54642 -1.09316,0.23562 -1.60999,-1.29958 -1.79369,-1.93302 -0.0573,-0.19753 -0.11204,-0.34758 -0.11204,-0.57991 0,-0.0322 0,-0.12887 0,-0.0967 0,0.26534 0.0334,0.13567 -0.11216,0.3866 -0.12141,0.20931 -0.14617,0.37805 -0.22421,0.57991 -0.18905,0.48893 -0.65625,0.94766 -1.00895,1.35312 -0.16714,0.1921 -0.23594,0.46021 -0.33632,0.67656 -0.12054,0.25985 -0.45302,0.44488 -0.56052,0.67656 -0.27354,0.58956 -0.45184,0.70293 -1.00895,1.06317 -0.23164,0.14979 -0.72698,0.64141 -1.12103,0.3866 -1.24249,-0.80341 -1.00895,-2.46456 -1.00895,-3.67275 0,-0.2859 0.13236,-0.81281 -0.22421,-0.96652 -0.25093,-0.10818 -0.52649,0.40766 -0.67263,0.48326 -0.43746,0.2263 -0.38922,0.22751 -0.78471,0.48326 -0.19644,0.127 -0.48184,0.11105 -0.67263,0.1933 -0.36179,0.15595 -1.78838,1.25647 -2.01789,1.25647 -0.14947,0 0,-0.25774 0,-0.38661 0,-0.45726 -0.12937,-1.10033 0,-1.54642 0.18329,-0.63207 0.18275,-1.49611 0,-2.12633 -0.0575,-0.19831 0.20168,-0.86987 -0.22422,-0.86987 -0.38017,0 -0.88684,0.57131 -1.12102,0.77322 -0.99763,0.8601 -1.54122,1.89242 -2.24211,2.89954 -0.34181,0.0684 -0.0431,0.26779 -0.11216,0.38661 -0.14302,0.24662 -0.36759,0.55142 -0.5605,0.77321 -0.55829,0.64176 -1.3894,0.92744 -2.13,1.35312 -0.53681,0.30853 -0.92858,0.63507 -1.56945,0.77321 -0.0811,0.0175 -0.14949,0.12887 -0.22421,0.0967 -0.17045,-0.0735 0.0413,-0.33073 0.11216,-0.48326 0.29394,-0.63356 0.78299,-1.24598 0.89681,-1.93303 0.0677,-0.40843 0.28062,-0.48498 0.33632,-0.77321 0.0246,-0.12711 -0.0246,-0.25949 0,-0.3866 0.0481,-0.24911 0.61764,-1.2697 0.78474,-1.44977 0.0991,-0.10674 0.25475,-0.17275 0.33631,-0.28996 0.11665,-0.16762 0.13153,-0.50001 0.33632,-0.67656 0.0952,-0.0821 0.24103,-0.11116 0.33632,-0.1933 0.0482,-0.0416 0.9344,-1.32128 1.00892,-1.44977 0.0973,-0.16782 0.39707,-0.61823 0.44842,-0.77322 0.0308,-0.0929 -0.0274,-0.19618 0,-0.28995 0.11459,-0.39508 0.57393,-0.83105 0.67263,-1.25647 0.11575,-0.49903 0.30827,-0.96639 0.44842,-1.44977 0.12181,-0.42 0.15716,-0.96699 0.33632,-1.35312 0.26453,-0.57019 0.20371,-0.008 0.33632,-0.57991 0.022,-0.0948 -0.0501,-0.20351 0,-0.28995 0.0374,-0.0644 0.18161,-0.15335 0.11216,-0.19331 -0.42344,-0.24337 -2.25902,-0.0967 -2.91471,-0.0967 -0.12392,0 -0.96285,0.0172 -0.89684,-0.0966 0.26809,-0.46227 0.35467,-0.18062 0.78473,-0.3866 1.90012,-0.91012 -0.16396,-0.0346 0.78471,-0.57991 0.29755,-0.17102 0.87618,-0.42171 1.23316,-0.48326 0.10996,-0.019 0.23222,0.0359 0.33631,0 0.0981,-0.0338 0.1336,-0.14642 0.22422,-0.1933 0.10137,-0.0524 0.23062,-0.0511 0.33632,-0.0967 0.31801,-0.13709 0.57755,-0.44227 0.89683,-0.5799 0.20893,-0.0901 0.78324,-0.19076 0.89682,-0.38661 0.051,-0.0881 -0.0458,-0.15044 -0.11216,-0.1933 -0.82855,-0.53578 -3.63072,0.25253 -3.92365,0 -0.1124,-0.0969 -0.14169,-0.25901 -0.11216,-0.38661 0.10613,-0.45749 1.09149,-0.82915 1.56947,-0.96651 0.34565,-0.0993 0.2595,-0.20852 0.67263,-0.38661 0.31312,-0.13498 0.82151,-0.135 1.12106,-0.28995 0.0716,-0.0371 0.0452,-0.15008 0.11205,-0.19331 0.31185,-0.20165 0.67613,-0.0249 1.00891,-0.0966 0.33,-0.0711 0.61079,-0.26329 0.89684,-0.3866 0.20571,-0.0887 0.56351,-0.0979 0.78475,-0.19331 0.24578,-0.10596 0.92633,-0.5087 1.12101,-0.67656 0.13731,-0.11837 0.15738,-0.28374 0.33632,-0.3866 0.10242,-0.0589 0.27205,-0.0825 0.33632,-0.1933 0.084,-0.14474 0.15725,-0.47698 0.33631,-0.57991 0.0696,-0.04 0.17788,-0.0367 0.22422,-0.0967 0.0414,-0.0536 -0.0237,-0.13217 0,-0.1933 0.1419,-0.36698 1.09405,-0.82333 1.34527,-1.25647 0.38225,-0.65914 0.91752,-1.35127 1.45733,-1.93303 0.18149,-0.19559 0.0623,-0.25059 0.22421,-0.48325 0.11425,-0.16409 0.34648,-0.30745 0.44842,-0.48326 0.0529,-0.0911 0.0465,-0.20519 0.11216,-0.28996 0.0879,-0.11372 0.25475,-0.17274 0.33631,-0.28995 0.098,-0.14086 0.0413,-0.33073 0.11216,-0.48326 0.19389,-0.4179 0.57943,-0.95132 0.67263,-1.35312 0.0291,-0.12636 -0.0411,-0.26269 0,-0.3866 0.0502,-0.15171 0.649,-1.23868 0.56052,-1.35312 -0.0779,-0.10078 -1.66013,0.14035 -1.90579,0.1933 -0.29676,0.064 -0.6854,0.39762 -0.89684,0.57991 -0.16581,0.14295 -0.45766,0.39059 -0.6726,0.48326 -0.0334,0.0144 -0.14556,0.0144 -0.11216,0 0.94389,-0.4069 3.5117,-2.33873 4.14785,-3.09285 0.31596,-0.37455 0.40901,-0.72225 0.67263,-1.06317 0.15857,-0.20505 -0.24692,-1.91474 -0.33632,-2.22298 -0.0233,-0.0802 -0.49129,-0.94383 -0.56053,-1.06316 -0.0668,-0.11527 0.0556,-0.26696 0,-0.38661 -0.0392,-0.0846 -0.16556,-0.11748 -0.22418,-0.1933 -0.18542,-0.23979 -0.33398,-2.02666 -0.33631,-2.02969 -0.0587,-0.0758 -0.16559,-0.11748 -0.22421,-0.1933 -0.1411,-0.18248 0.11517,-0.57449 0,-0.77321 -0.16339,-0.2817 -0.1296,-0.64015 -0.22421,-0.96651 -0.1713,-0.59079 -0.60494,-1.13974 -0.89685,-1.64308 -0.0836,-0.14414 -0.25082,-0.23917 -0.33632,-0.3866 -0.0334,-0.0576 0.0415,-0.13969 0,-0.19331 -0.0879,-0.11373 -0.26539,-0.16769 -0.33632,-0.28995 -0.0865,-0.14918 -0.0515,-0.423297 -0.11216,-0.579907 -0.0501,-0.12968 -0.26539,-0.1677 -0.3363,-0.28996 -0.10799,-0.186216 -0.10648,-0.473559 -0.22422,-0.676557 -0.21863,-0.376974 -0.55519,-0.764027 -0.78471,-1.159817 -0.18253,-0.314717 -0.13134,-0.452914 -0.2242,-0.773213 -0.0545,-0.188085 -0.3493,-0.409004 -0.44843,-0.579909 -0.0166,-0.02863 -0.0553,-0.628454 -0.22421,-0.579908 -0.10764,0.03094 -0.31578,0.280429 -0.33631,0.386606 -0.11274,0.583176 -0.29047,3.134503 -0.11216,3.672758 0.037,0.11169 0.17416,0.1821 0.22421,0.289947 0.12481,0.26903 0.0496,0.66554 0.22421,0.96652 0.0895,0.15441 0.11216,0.39421 0.11216,0.57991 0,0.0322 0,0.12887 0,0.0966 0,-1.15911 -0.40188,-2.452743 -1.12106,-3.382801 -0.25125,-0.324916 -0.8997,-0.488209 -1.12105,-0.869862 -0.24813,-0.42785 -0.59785,-0.773182 -0.89681,-1.15982 -0.22542,-0.29151 -0.22066,-0.570664 -0.33632,-0.869863 -0.1066,-0.275703 -0.33668,-0.484198 -0.44843,-0.77321 -0.10937,-0.282885 -0.0372,-0.515332 -0.33632,-0.773213 -0.2629,-0.226663 0.0265,0.06834 -0.11216,-0.289954 -0.096,-0.248489 -0.53873,-0.44572 -0.67263,-0.676558 -0.0166,-0.02882 0,-0.06444 0,-0.09665 -0.0373,-0.06443 -0.0658,-0.133363 -0.11216,-0.193302 -0.24713,-0.319619 -0.69906,-0.52883 -0.89682,-0.869865 -0.2224,-0.383437 -0.46385,-0.799801 -0.67263,-1.159817 -0.0668,-0.115263 0.0362,-0.261583 0,-0.386604 -0.0384,-0.132606 -0.24118,-0.180607 -0.33632,-0.289954 -0.18025,-0.207219 -0.13398,-0.539811 -0.2242,-0.773213 -0.10242,-0.265002 -0.3543,-0.433115 -0.44843,-0.676561 -0.19026,-0.492096 0.0351,-1.1352 -0.11216,-1.643073 -0.12782,-0.440828 -0.43117,-0.810456 -0.56052,-1.256469 -0.0752,-0.259096 0.0239,-0.635291 -0.11216,-0.869863 -0.0839,-0.14464 -0.26939,-0.328904 -0.33631,-0.386607 -0.28019,-0.241572 0.34641,-1.177234 0.44842,-1.353118 0.12395,-0.213704 0.0696,-0.02999 0.22421,-0.09665 0.20638,-0.08897 0.0179,-0.200985 0.22421,-0.289954 0.76225,-0.328586 2.24634,-0.289954 3.13892,-0.289954 z"
       id="path5638"
       inkscape:connector-curvature="0" />
    <path
       style="fill:#5a5161;fill-opacity:1;fill-rule:evenodd;stroke:none;stroke-width:0.79375005;stroke-miterlimit:4;stroke-dasharray:none;stroke-opacity:1"
       d="m 133.7301,46.631794 c -0.49273,0.245016 -1.33039,0.174875 -1.75205,0.75137 -0.1244,0.170054 -0.17753,0.461879 -0.29913,0.628133 -0.073,0.09971 -0.20356,-0.01588 -0.28518,0.0611 -0.24745,0.233225 -0.53379,0.518869 -0.74739,0.912178 -0.16461,0.303112 -0.30658,0.419136 -0.48925,0.668868 -0.0876,0.119844 -0.12733,0.563098 -0.2311,0.425542 -0.0406,-0.05397 0.0553,-0.288504 0.0681,-0.2026 0.0201,0.135823 -0.0433,0.249373 -0.041,0.38483 0.008,0.408394 0.19454,1.798667 0.32447,2.186716 0.0359,0.107043 0.23539,0.398888 0.27123,0.505951 0.0991,0.295957 0.21035,1.119471 0.21631,1.45781 0.0121,0.690635 0.0761,1.465484 0.0123,2.065584 -0.0422,0.395594 0.2849,1.088127 0.2163,1.457808 -0.0392,0.211494 -0.21721,0.457604 -0.082,0.769634 0.0194,0.04478 0.17024,0.281219 0.21716,0.141497 0.15648,-0.466067 0.64847,-0.371042 0.99158,-0.588457 0.24094,-0.152674 0.50254,-0.335213 0.70642,-0.527364 0.26818,-0.252786 1.00506,-0.250454 1.26282,-0.0825 0.55013,0.35846 1.256,-0.745378 1.80614,-0.386915 0.0916,0.05964 0.15548,0.2444 0.2442,0.323726 0.16685,0.149213 0.78473,-0.168113 0.9506,-0.203641 0.23795,-0.05097 0.92515,-0.381088 1.09973,0.140452 0.12814,0.38286 -0.2208,2.417338 -0.38195,2.714079 -0.18348,0.337866 -0.3146,0.411547 -0.4622,0.851086 -0.16253,0.484097 -0.50996,0.452583 -0.62527,1.074046 -0.0767,0.413395 -0.28868,0.437876 -0.23112,0.425546 0.52609,-0.112698 0.43784,-0.26981 0.77443,-0.729957 0.17859,-0.244161 1.02864,-0.408372 1.3038,-0.467317 0.40452,-0.08665 0.49868,0.805111 0.28429,1.255227 -0.21357,0.448467 -0.42849,0.585796 -0.65234,0.891818 -0.23495,0.321228 -1.63227,3.304732 -1.38746,3.86958 0.19438,0.448463 2.28121,-1.641149 2.30933,-1.622818 0.15071,0.0982 0.14322,0.303864 0.17623,0.526302 0.11486,0.774285 0.10264,1.832453 -0.2459,2.308901 -0.13319,0.182096 -0.3017,0.01422 -0.44827,0.284045 -0.21284,0.391931 0.0966,0.444673 0.40729,0.10077 0.39368,-0.435794 0.51433,-1.101743 0.82934,-1.681808 0.46769,-0.861168 -0.21979,0.588331 0.42123,-0.46627 0.73328,-1.206371 -0.61202,0.507932 0.36715,-0.830728 0.0242,-0.03325 0.0633,-0.01356 0.0952,-0.02038 0.086,-0.0811 0.18687,-0.126094 0.25814,-0.243314 0.0636,-0.104849 0.059,-0.332637 0.13604,-0.405182 0.1122,-0.105729 0.16601,0.458105 0.20316,0.708555 0.0856,0.577283 -0.028,1.137106 -0.0418,1.701132 -0.004,0.139796 0.429,3.551978 0.47279,3.847106 0.0504,0.339737 -0.0135,0.568004 0.0401,0.931505 0.0201,0.135822 0.18499,0.237316 0.14918,0.344081 -0.0226,0.06752 -0.14476,-0.09432 -0.12213,-0.161848 0.0506,-0.150995 0.18126,-0.138221 0.25814,-0.243319 0.27066,-0.370029 0.57536,-0.925377 0.76133,-1.479217 0.24388,-0.726386 0.0667,-0.687641 0.19097,-1.357043 0.13379,-0.720961 0.3684,-1.360007 0.58514,-2.00554 0.16662,-0.496254 0.65481,-1.351146 0.70725,-1.843673 0.0125,-0.114714 -0.0742,-0.255847 -0.0541,-0.364453 0.0365,-0.196703 0.29124,-0.69093 0.36716,-0.830728 0.26771,-0.492943 0.82455,-0.579305 1.12762,-0.993637 0.55129,-0.753686 1.17255,-1.164621 1.6849,-1.865087 0.12412,-0.16971 0.58974,-0.126342 0.76048,-0.162913 0.1089,-0.02333 0.37691,-0.165928 0.4753,-0.10181 0.36495,0.237803 0.3417,0.919352 0.50148,1.396719 0.42537,1.270774 -0.0702,-0.281423 0.27125,0.505949 0.22432,0.517566 0.24712,1.855634 0.25638,2.389317 0.009,0.479096 0.29089,1.193792 0.24336,1.640038 -0.11107,1.043052 0.27692,2.198043 0.29657,3.320799 0.006,0.39139 -0.0616,0.570131 -0.0549,0.951866 0.004,0.252797 -0.0135,2.823166 -0.0697,2.835213 -0.0317,0.0067 -0.0558,-0.220374 -0.027,-0.182222 0.30445,0.403607 -0.0321,0.671984 0.50234,0.08041 0.12025,-0.133127 0.23005,-1.127664 0.28603,-1.377407 0.1836,-0.819332 0.25247,-1.802952 0.50404,-2.552218 0.15589,-0.464308 0.65872,-0.790979 0.91046,-1.13513 0.10962,-0.149868 0.24721,-0.415042 0.44827,-0.284044 0.28126,0.183276 0.45319,2.392916 0.52772,2.895249 0.0634,0.427112 0.0337,0.949091 0.0401,0.931509 0.0887,-0.264262 -0.0127,-1.080527 5.4e-4,-1.316317 0.0218,-0.377259 0.1595,-0.665973 0.24504,-0.992592 0.13357,-0.509863 0.15247,-0.379926 0.36716,-0.83072 0.16752,-0.351758 0.24061,-0.863792 0.40813,-1.215543 0.46928,-0.985447 0.8963,-1.773358 1.48167,-2.573633 0.30165,-0.412391 0.36349,-0.668919 0.74739,-0.912178 0.16838,-0.106686 0.51646,-0.193624 0.69246,0.03967 0.0627,0.08306 1.02868,5.593796 1.01443,6.17533 -0.01,0.418347 0.15928,1.121396 0.12121,1.478182 -0.0822,0.77216 -0.0421,1.03845 0.0802,1.862997 0.18169,1.224424 0.16852,2.457469 0.35067,3.685252 0.0721,0.485938 0.1442,0.971872 0.21631,1.457814 0.027,0.182222 0.10812,0.728906 0.0811,0.546679 -0.42695,-2.877402 1.04614,-5.461833 1.29496,-7.798154 0.009,-0.08746 0.20534,-1.007992 0.24504,-0.992588 0.53526,0.207673 1.09096,2.954819 1.32829,3.663848 0.0798,0.238341 0.21849,0.449823 0.29829,0.688172 0.0928,0.277403 0.31317,0.906572 0.39332,0.667815 0.0518,-0.154041 -0.19351,-1.105114 -0.18926,-1.275585 0.005,-0.215514 0.10885,-0.370099 0.10894,-0.587408 4.3e-4,-0.241057 -0.0863,-0.484426 -0.10812,-0.728908 -0.0983,-1.099989 0.01,-2.393257 0.30082,-3.260756 0.18306,-0.545175 1.44381,-3.832868 1.82179,-3.586585 0.37265,0.242811 0.30738,1.07351 0.43347,1.599313 0.27514,1.147442 1.37075,7.458383 1.39296,8.726492 0.006,0.342976 0.009,1.38008 0.0531,1.680766 0.0325,0.219008 0.10885,-0.3701 0.10904,-0.587404 6.3e-4,-0.08526 -0.076,-1.509917 -0.0531,-1.680769 0.0481,-0.361102 0.18051,-0.644859 0.24504,-0.992584 0.25542,-1.37638 0.61234,-4.662188 1.36128,-5.368123 0.36007,-0.339387 0.3976,0.501474 0.51543,0.829682 0.11412,0.317725 0.3063,0.532301 0.42038,0.850037 0.24232,0.674899 0.18201,1.611721 0.44652,2.348588 0.15586,0.434185 0.31913,0.585023 0.44741,1.032271 0.0519,0.181147 0.10864,0.650717 0.17621,0.526302 0.23741,-0.437149 0.0815,-0.511993 0.0549,-0.95186 -0.0322,-0.535688 0.14485,-2.937887 0.39588,-3.281124 0.13134,-0.17956 0.37753,-0.296936 0.51629,-0.486636 0.0345,-0.047 0.0232,-0.192989 0.068,-0.202577 0.21933,-0.04699 0.31546,0.916529 0.35236,1.052629 0.23884,0.88126 0.51236,1.610522 0.75878,2.469717 0.15745,0.548801 0.13544,1.259499 0.27038,1.82226 0.37236,1.552856 -0.081,-1.207018 0.23031,0.89076 0.074,0.498074 -0.0622,-0.263324 0.27124,0.505953 0.0667,0.153888 -0.0145,0.56704 0.0811,0.546678 0.005,-0.001 0.22228,-1.683563 0.23196,-1.741856 0.13732,-0.82693 0.16097,-1.687265 0.31392,-2.511493 0.0687,-0.3701 0.29898,-0.626669 0.34011,-1.012948 0.0183,-0.172094 -0.0855,-0.367359 -0.0811,-0.546679 0.0123,-0.495951 0.57351,-1.906776 0.74821,-2.228495 0.13293,-0.244758 0.34692,-0.326986 0.51629,-0.486633 0.12858,-0.121177 0.42573,-0.514933 0.6384,-0.324771 0.66613,0.59566 0.84372,1.974313 1.12507,2.955302 -0.009,0.342079 0.20428,0.30592 0.27125,0.50595 0.32322,0.965638 0.28043,2.398865 0.29657,3.320806 0.009,0.528898 0.23407,1.111143 0.24335,1.640037 0.0151,0.860965 -0.0888,0.06171 -0.0135,0.567047 0.11685,0.787912 0.11227,1.843615 0.0934,2.612261 -0.007,0.298663 0.048,0.609332 0.0401,0.931505 -0.002,0.05979 0.017,0.236519 0.027,0.18222 0.2223,-1.197975 -0.12738,-2.511354 -0.0655,-3.746349 0.0305,-0.60878 0.15067,-1.164201 0.23195,-1.741857 0.0676,-0.480681 0.33063,-0.923995 0.3811,-1.397769 0.0193,-0.181406 -0.0175,-0.395314 0.0145,-0.567043 0.0757,-0.407694 0.46211,0.537813 0.48839,0.647455 0.1948,0.812194 0.34398,2.549343 0.58181,3.2597 0.0669,0.200035 0.19107,0.321011 0.27123,0.50595 0.0765,0.176431 0.28638,1.269335 0.31133,1.437462 0.0203,0.136369 0.41268,1.834471 0.46049,1.781533 0.29333,-0.324684 0.62506,-1.949537 0.81627,-2.431084 0.53313,-1.342628 -0.11652,0.514555 0.5843,-0.689227 0.12499,-0.214673 0.15586,-0.579393 0.27209,-0.810362 0.17151,-0.340838 0.53062,-0.287035 0.7064,-0.527361 0.0877,-0.119848 0.13299,-0.33307 0.2311,-0.425544 0.19431,-0.183147 0.74403,-0.11203 0.97765,-0.02145 0.60497,0.234724 1.51407,5.338795 2.10101,5.566516 0.59887,0.232355 0.81345,-1.588667 1.06046,-2.10736 0.42,-0.881976 0.98929,-1.486377 1.56279,-2.026949 0.10326,-0.09733 0.27699,0.01584 0.38023,-0.08146 0.14721,-0.138747 0.14992,-0.342547 0.35321,-0.26368 0.20397,0.07914 0.37842,0.765378 0.44741,1.032267 0.29185,1.129051 0.81728,2.12532 1.24717,3.117164 0.22263,0.513613 0.35465,1.297576 0.55557,1.761173 0.20544,0.473958 0.3844,0.607564 0.47446,1.214488 0.0515,0.34661 0.12229,1.535817 0.33846,1.619669 0.49682,0.192759 0.88758,-0.490419 1.24972,-0.831775 0.14734,-0.13886 1.10471,-1.188153 1.16861,-1.378456 0.0935,-0.278433 0.0565,-0.693789 0.14999,-0.972223 0.37383,-1.113415 0.85193,-2.210944 1.15636,-3.444031 0.0984,-0.398683 0.0662,-0.985348 0.19097,-1.357043 0.14357,-0.427617 0.47293,0.604371 0.48839,0.64745 0.21073,0.586891 0.48852,1.113636 0.65064,1.740808 0.11505,0.445041 0.85015,4.07215 1.00212,4.109754 0.68049,0.168368 0.28351,-1.995746 0.47701,-2.734448 0.16215,-0.619063 0.40085,-0.920052 0.42207,-1.782583 0.009,-0.344923 -0.0788,-1.341682 0.0418,-1.701132 0.0474,-0.141088 0.43026,-1.063723 0.53023,-1.053677 0.53713,0.05399 1.66324,2.159631 2.00766,2.954255 0.16879,0.389432 0.40073,0.588467 0.54247,1.0119 0.007,0.02425 0.043,0.489092 0.14919,0.344076 0.23839,-0.325908 0.12993,-1.791394 0.2459,-2.308898 0.0703,-0.31353 0.45149,-1.788889 0.61218,-1.823312 0.0326,-0.0071 0.40565,0.44361 0.46136,0.465223 1.44417,0.56031 1.56216,2.782652 2.27805,4.776516 0.0706,0.196469 0.20428,0.305922 0.27125,0.505951 0.12325,0.368436 0.0659,0.907174 0.18926,1.275586 0.0525,0.156923 0.18132,0.178646 0.24419,0.323724 0.1333,0.307407 0.72127,4.199519 0.8522,5.081964 0.0608,0.409885 0.20133,2.18879 0.44652,2.348592 0.33157,0.216052 -0.0201,-1.397119 -0.0262,-1.498538 -0.052,-0.861288 0.8836,-5.103242 1.13018,-4.942573 0.5994,0.390565 1.97759,4.088802 2.07483,4.067974 0.29209,-0.06257 0.14606,-1.290271 0.16393,-1.539264 0.0395,-0.551505 0.30608,-1.565712 0.36799,-2.147042 0.0569,-0.533649 0.19805,-4.268558 0.23363,-4.374479 0.0865,-0.257757 0.52009,0.250311 0.52939,0.262632 0.814,1.07909 1.64338,2.402562 2.401,3.622067 0.51006,0.821038 -0.0511,-0.214204 0.58344,0.627089 0.14087,0.186743 0.32028,0.7951 0.44742,1.032267 0.004,0.0066 0.28582,0.232506 0.33925,0.303359 0.19673,0.260792 0.13269,0.543442 0.32532,0.870404 0.25613,0.434861 0.22276,0.158223 0.39333,0.667812 0.0415,0.124039 0.1459,0.477737 0.1491,0.344102 0.005,-0.239109 -0.0904,-0.484543 -0.10814,-0.728908 -0.052,-0.715053 0.0869,-1.379129 0.0828,-2.08595 -0.005,-0.800368 -0.43184,-2.93089 -0.37769,-3.86748 0.0507,-0.879671 0.72402,-1.736417 0.91131,-2.451445 0.0719,-0.274692 3.1e-4,-0.659432 0.0549,-0.951859 0.0391,-0.2105 0.27259,-0.81181 0.34013,-1.012955 0.0506,-0.150994 0.20744,-0.09233 0.25814,-0.243316 0.0828,-0.246745 -0.0162,-0.416665 0.10904,-0.587406 0.28747,-0.393009 0.55294,0.436854 0.70556,0.788953 0.22723,0.524276 1.13515,3.615256 1.34138,4.413114 0.13429,0.519332 0.16939,1.349493 0.3655,1.801889 0.14779,0.340935 0.0699,0.309955 0.20325,0.708529 0.0705,0.21052 0.29582,0.275066 0.3663,0.485589 0.10446,0.311941 0.14478,0.559952 0.2303,0.890762 0.45183,1.748012 0.12331,0.349616 0.14918,0.344076 0.0317,-0.0068 0.036,0.24297 0.027,0.182221 -0.0761,-0.513378 -0.33768,-1.650636 -0.32447,-2.186716 0.0211,-0.879056 -0.0142,-2.629195 0.001,-2.632633 0.25767,-0.05519 1.60591,3.910078 1.66924,1.334579 0.0198,-0.804504 0.15921,-1.649011 0.12375,-2.470764 -0.0307,-0.710506 -0.13916,-0.0015 -0.0401,-0.931505 0.0647,-0.607652 0.13907,-1.225536 0.10988,-1.903719 -0.006,-0.142544 -0.0623,-1.425355 0.218,-1.174815 0.0197,0.01755 1.45198,2.192553 1.51927,2.306807 0.13008,0.220909 -0.0178,0.415711 0.20317,0.708549 0.0643,0.08533 0.1528,0.05618 0.21715,0.141495 0.0809,0.107372 0.22274,0.69625 0.32531,0.870402 0.14835,0.25185 0.35245,0.372566 0.48839,0.647454 0.0332,0.06722 0.26582,0.88315 0.42038,0.850042 0.0417,-0.0089 -0.14328,-0.566886 -0.2163,-1.457813 -0.0991,-1.207847 0.22286,-4.963646 1.26537,-4.031441 0.20975,0.187558 1.21506,1.917145 1.4242,2.327166 0.25611,0.502181 0.79198,2.23071 1.24802,1.800852 0.24252,-0.228609 0.25346,-0.734386 0.43517,-1.033313 0.6653,-1.094548 1.18645,-2.418177 1.36041,-4.051806 0.0291,-0.273694 -0.25312,-3.518129 -0.13352,-3.543757 0.27459,-0.05882 1.16838,3.01831 1.30125,3.481615 0.0464,0.162014 0.18133,0.178645 0.2442,0.323728 0.0744,0.172046 -0.0409,0.384804 0.0811,0.54668 0.0407,0.05397 0.0537,-0.125794 0.0681,-0.202599 0.0171,-0.09197 -0.003,-0.475093 0.0145,-0.56704 0.1758,-0.947316 0.24499,-0.98976 0.27294,-2.126676 0.005,-0.179314 -0.0994,-0.37459 -0.0811,-0.546678 0.0245,-0.230891 0.17948,-0.37688 0.20407,-0.607773 0.0228,-0.214438 -0.002,-1.302363 5.3e-4,-1.316309 0.11829,-0.637509 0.16114,-0.143667 0.17704,-0.790001 1.49175,-2.702914 -1.70479,-5.292235 -8.74043,-6.02439 -0.0737,0.08162 -0.0757,0.293906 -0.13605,0.405183 -0.13275,0.244439 -0.58699,-6.07e-4 -0.76048,0.162909 -0.27167,0.256058 -2.37871,1.309674 -2.7707,1.1576 -0.61106,-0.237089 -1.28385,-1.083469 -1.88639,-1.476081 -0.21971,-0.143167 -0.49271,0.0068 -0.7195,-0.221909 -0.0872,-0.08803 -0.56413,-0.947386 -0.67852,-0.606718 -0.0506,0.150994 0.005,0.385642 -0.0135,0.567047 -0.0584,0.548954 -0.23934,2.957505 -0.49094,3.301485 -0.0507,0.06918 -0.33796,0.0724 -0.38025,0.08146 -0.0951,0.02037 -0.18807,0.124359 -0.28519,0.0611 -0.51922,-0.338321 -1.13617,-1.127764 -1.66923,-1.334577 -0.36929,-0.143273 -0.004,0.305611 -0.40728,-0.100771 -0.18784,-0.189414 -0.38405,-0.497158 -0.58347,-0.627087 -0.18733,-0.12207 -0.35138,0.01797 -0.50234,-0.08041 -0.0916,-0.05964 -0.15263,-0.264063 -0.24418,-0.323721 -0.2847,-0.185508 -1.66027,0.355664 -1.99627,0.427638 -0.45234,0.09691 -0.8376,-0.07381 -1.28986,-0.09972 -0.54365,-0.03114 -1.16548,0.578232 -1.71108,0.366552 -0.30731,-0.11923 -0.58916,0.11495 -0.88258,0.001 -0.29554,-0.114667 -0.54035,-0.309232 -0.84159,-0.383769 -0.23837,-0.05899 -0.44822,0.119443 -0.69246,-0.03967 -0.21271,-0.138602 -1.91281,-1.417169 -2.00851,-1.637939 -0.0445,-0.102591 -0.0164,-0.253512 -0.0541,-0.364458 -0.0811,-0.2423 -0.24288,-0.139724 -0.33926,-0.303361 -0.28492,-0.48373 -0.3557,-1.213675 -0.71865,-1.538216 -0.40586,-0.362913 -1.33111,1.134008 -1.64393,1.48027 -0.25432,0.281552 -1.53811,0.719879 -1.87415,0.589502 -1.36098,-0.528038 -2.67514,-3.155976 -3.97603,-3.660697 -0.12328,-0.04782 -0.2442,-0.406033 -0.36629,-0.485587 -0.54089,-0.352444 -1.19319,-0.176711 -1.72418,-0.382723 -0.25007,-0.09702 -0.58881,-0.28569 -0.8416,-0.383766 -0.0988,-0.0383 -0.18806,0.12436 -0.28518,0.0611 -0.0916,-0.05965 -0.15548,-0.244398 -0.2442,-0.323724 -0.38163,-0.341244 -0.83022,-0.239626 -1.22183,-0.30231 -0.22413,-0.03587 -0.27564,-0.344204 -0.46136,-0.465223 -0.22898,-0.149203 -0.55065,0.07256 -0.78753,-0.01926 -1.38454,-0.537177 -2.79242,-1.905736 -4.13995,-2.121431 -0.29764,-0.04764 -0.533,-0.66475 -0.80062,-0.768581 -0.28339,-0.109967 -0.94764,0.07792 -1.11368,0.426588 -0.0846,0.177662 -0.0829,0.517325 -0.20407,0.60777 -0.24673,0.184184 -2.1033,0.615089 -2.37649,0.509097 -0.11295,-0.04381 -0.40858,-0.561658 -0.48841,-0.647449 -0.29722,-0.31947 -0.83934,-0.738093 -1.07184,-1.274541 -0.23187,-0.534977 -0.29222,-0.862212 -0.7326,-0.971175 -0.60692,-0.150166 -1.19921,0.537085 -1.80615,0.386915 -0.29628,-0.07332 -0.33423,-0.358652 -0.55639,-0.44486 -0.60087,-0.233119 -1.74518,0.489771 -2.40356,0.326874 -0.31608,-0.07822 -0.56705,-0.146752 -0.9096,-0.181181 -0.25263,-0.02538 -0.50644,0.225777 -0.7605,0.162913 -0.16331,-0.04042 -0.79721,-0.437155 -0.96368,-0.545629 -0.31296,-0.20392 -0.84646,0.141637 -1.16777,0.06215 -0.0694,-0.01718 -0.62105,-0.527184 -0.77357,-0.586358 -0.90543,-0.351285 -1.97193,-1.012076 -2.86405,-1.454666 -0.39702,-0.196973 -0.7661,-0.737727 -1.13988,-1.071945 -5.9e-4,-3.88e-4 -0.74608,-0.190581 -0.81455,-0.201542 -0.26326,-0.04213 -0.52432,0.0458 -0.78752,-0.01926 -0.28929,-0.07157 -0.46932,-0.335537 -0.74654,-0.404131 -0.22361,-0.05532 -0.44182,0.197861 -0.66541,0.142548 -0.30737,-0.07604 -0.68631,-0.03728 -1.00469,-0.160812 -0.0932,-0.03611 -0.15264,-0.264067 -0.2442,-0.323729 -0.23858,-0.155449 -0.63546,0.09691 -0.88257,0.0011 -0.34285,-0.133016 -0.65224,-0.596526 -0.99075,-0.727854 -0.16797,-0.06518 -0.47043,-0.104568 -0.62442,-0.242269 -0.28105,-0.251303 -0.58783,-0.628783 -0.89568,-0.748224 -0.1561,-0.06057 -0.068,0.202578 -0.28518,0.06109 -0.18173,-0.118427 -0.3927,-0.502789 -0.58346,-0.627083 -0.10425,-0.06788 -0.28029,0.120242 -0.38025,0.08146 -0.44666,-0.173305 -0.4825,0.04269 -0.93664,-0.363405 -0.19644,-0.175657 -2.06515,0.442399 -2.3765,0.509095 -0.91411,0.195824 -1.75792,0.188571 -2.68872,0.387965 -1.15272,0.246937 -2.48779,0.775917 -3.63933,0.591604 -0.45659,-0.07309 -0.86625,-0.507824 -1.27591,-0.666761 -0.30307,-0.117588 -0.66192,0.303726 -0.97764,0.02145 -0.13307,-0.118991 -0.22666,-0.431411 -0.36629,-0.485585 -0.24712,-0.09587 -1.32504,0.0419 -1.47998,-0.05901 -0.39829,-0.259521 -0.86325,-0.38913 -1.24887,-0.484543 -0.24612,-0.0609 -0.51426,0.25844 -0.76049,0.162913 -0.28738,-0.111506 -0.61631,0.133059 -0.88258,0.0011 -0.0927,-0.04598 -0.15548,-0.244398 -0.2442,-0.323724 -0.064,-0.05729 -1.49868,0.105481 -1.76516,0.0021 -0.33179,-0.128729 -0.70599,-0.388408 -1.05875,-0.525266 -0.23149,-0.08981 -1.02484,0.03193 -1.19479,-0.120092 -0.40213,-0.359574 -0.71444,-0.571715 -1.18086,-0.687126 -0.0658,-0.01632 -0.12539,0.08293 -0.19013,0.04071 -0.0916,-0.05965 -0.15547,-0.2444 -0.24419,-0.323726 -0.13683,-0.122362 -1.16588,-0.126284 -1.28985,-0.09973 z"
       id="path5652"
       inkscape:connector-curvature="0"
       inkscape:transform-center-x="3.086352"
       inkscape:transform-center-y="15.19263"
       sodipodi:nodetypes="ccccccccccccccccscsccccccccccccccccccccccccccccccccccccccccccccccccccccccccccccccccccccccccccccccccccccccccccccccccccccccccccccccccccccccccccccccccccccccccccccccccccccccccccccccccccccccccccccccccccccccccccccccccccccccccccccccccccccccccccccccccccccccccccccccccccccccccccccccsccccccccccccccccccccccsccccccccccccccccccccccccccccccccccc" />
    <path
       style="fill:#5a5161;fill-opacity:1;fill-rule:evenodd;stroke:none;stroke-width:0.79375005;stroke-miterlimit:4;stroke-dasharray:none;stroke-opacity:1"
       d="m 121.39422,49.920473 c -0.1933,0.09665 -0.38661,0.193302 -0.57991,0.289955 -0.0644,0.06443 -0.11418,0.148092 -0.1933,0.193302 -0.45225,0.258429 -1.01837,0.460859 -1.44977,0.67656 -0.50688,0.253437 -1.06973,1.165067 -1.54643,1.546424 -0.36607,0.292862 -0.79432,0.480811 -1.15981,0.77321 -0.17327,0.138615 -0.29875,0.360249 -0.48326,0.483259 -0.66325,0.442166 -0.48171,0.675013 -0.86987,1.063165 -0.0509,0.05094 -0.14236,0.04571 -0.1933,0.09665 -0.10389,0.103891 -0.28995,0.442304 -0.28995,0.579908 0,0.03222 -0.0228,0.119433 0,0.09665 0.0509,-0.05094 0.0457,-0.142365 0.0966,-0.193305 0.11291,-0.112913 1.33912,-0.667229 1.64307,-0.869863 0.58678,-0.391183 -0.30262,0.278228 0.48326,-0.193302 0.0781,-0.04688 0.1118,-0.15255 0.1933,-0.193304 0.0288,-0.01442 0,0.06444 0,0.09665 0,0.659207 -0.86975,1.224103 -1.25647,1.739726 -0.18727,0.2497 -0.1003,0.537067 -0.1933,0.67656 -0.0863,0.129498 -0.24165,0.241697 -0.28995,0.386607 -0.067,0.201157 0.0419,0.467257 0,0.676561 -0.16276,0.813773 -0.002,0.003 -0.19331,0.386604 -0.0296,0.05916 -0.0413,1.063167 -0.48325,1.063167 -0.21393,0 0.23939,-0.455745 0.3866,-0.676561 0.0898,-0.134631 0.33094,-0.676561 0.48326,-0.676561 0.14978,0 0.0966,0.336892 0.0966,0.386607 0,0.512617 -0.49978,2.079257 -0.67656,2.609588 -0.10765,0.322956 -0.10816,1.956051 -0.1933,2.126332 -0.11222,0.224438 -0.38661,0.851151 -0.38661,1.063167 0,0.332404 -0.12001,0.383421 -0.1933,0.676561 -0.0358,0.143187 0.0537,0.349017 0,0.483256 -0.0508,0.12691 -0.15327,0.289954 -0.28995,0.289954 -0.15155,0 0.3228,-0.790112 0.77321,-1.353118 0.20976,-0.262208 0.11873,-0.21539 0.3866,-0.483259 0.032,-0.03202 0.0573,-0.541729 0.28996,-0.386607 0.4806,0.320403 0.23151,1.27445 0.3866,1.739728 0.0288,0.08645 0.14276,0.117483 0.19331,0.193302 0.0357,0.05361 -0.0288,0.135671 0,0.193302 0.0585,0.117118 0.55488,0.70698 0.67656,0.676561 0.11269,-0.02817 0.20781,-0.111165 0.28995,-0.193302 0.0859,-0.08593 0.10944,-0.508836 0.1933,-0.676561 0.14566,-0.291309 0.33178,-0.637542 0.38661,-0.966515 0.11553,-0.693203 -0.11231,-1.039672 0.28995,-1.643073 0.2079,-0.311843 0.005,-0.386606 0.48326,-0.386606 0.31918,0 0.43101,0.04179 0.57991,0.289954 0.0598,0.09961 0.12887,0.193302 0.1933,0.289954 0.0322,0.128868 0.0307,0.271272 0.0966,0.386607 0.13563,0.237352 0.42827,0.352448 0.57991,0.579908 0.1343,0.201451 0.17586,0.583054 0.28996,0.77321 0.23493,0.39156 0.51806,0.680443 0.77321,1.063168 0.0818,0.122708 0.31573,0.579908 0.48326,0.579908 0.20835,0 0.0966,-0.752353 0.0966,-0.869863 0,-0.587549 0.15009,-1.987605 0,-2.512938 -0.23887,-0.836028 -0.1933,0.320077 -0.1933,-0.386607 0,-0.220366 -0.0967,-0.433935 -0.0967,-0.676558 0,-0.132836 -0.003,-0.480536 -0.0966,-0.386606 -0.32724,0.327244 1.05102,0.823232 1.15982,0.869863 0.41292,0.176963 0.574,0.574005 0.86986,0.869862 0.34295,0.34295 0.74248,0.564539 1.15982,0.773211 0.0408,0.02037 0.0511,0.09665 0.0966,0.09665 0.18368,0 -0.66069,-1.514692 -0.67656,-1.546424 -0.2209,-0.441803 -0.42353,-0.980627 -0.57991,-1.449771 -0.052,-0.155845 -0.0121,-0.342392 -0.0966,-0.483256 -0.35727,-0.595453 -0.86567,-1.466551 -0.67656,-2.222984 0.053,-0.212143 0.20687,-0.220435 0.28996,-0.386607 0.0288,-0.05763 -0.0288,-0.13567 0,-0.193302 0.0626,-0.125163 0.27796,-0.12088 0.3866,-0.193302 0.16952,-0.113014 0.20789,-0.03708 0.38661,-0.09665 0.59432,-0.198109 0.4144,-0.358815 0.96651,0.193302 0.0633,0.06329 0.80267,0.570087 0.48326,0.676561 -0.19891,0.0663 -1.19022,-0.864399 -1.25647,-1.063165 -0.0876,-0.26293 -0.11373,-1.222314 0,-1.449774 0.25513,-0.510251 1.18491,-1.007094 1.64307,-1.159817 0.13714,-0.04571 0.35505,0.0641 0.48326,0 0.40224,-0.20112 -0.10332,0.0067 0.0966,-0.193302 0.0885,-0.08855 0.74598,-0.110714 0.86987,-0.193304 0.11373,-0.07582 0.16028,-0.246729 0.28995,-0.289954 0.0917,-0.03056 0.20351,0.04322 0.28996,0 0.30207,-0.151035 0.91395,-0.764739 1.06316,-1.063165 0.0971,-0.194212 0,-0.650449 0,-0.869863 0,-1.165238 -0.6474,-1.50269 -1.25647,-2.416286 -0.0808,-0.121235 -0.14264,-0.312949 -0.28995,-0.386606 -0.6623,-0.33115 -3.24646,-0.299879 -4.05936,-0.09665 -0.28127,0.07032 -0.27692,0.221176 -0.48326,0.289955 -0.12225,0.04075 -0.26435,-0.04075 -0.38661,0 -0.17821,0.05941 -0.20594,0.315235 -0.28995,0.483258 z"
       id="path5641"
       inkscape:connector-curvature="0" />
  </g>
  <g
     inkscape:groupmode="layer"
     id="layer8"
     inkscape:label="front ear"
     style="display:inline"
     transform="translate(-71.872139,41.01042)">
    <path
       transform="translate(0,-11.249983)"
       style="display:inline;fill:#835642;fill-opacity:1;fill-rule:evenodd;stroke:none;stroke-width:0.79375005;stroke-miterlimit:4;stroke-dasharray:none;stroke-opacity:1"
       d="m 130.98613,69.558743 v -2.363867 l 0.0927,-0.834308 0.32445,-2.224818 0.4635,-2.317517 0.0463,-2.317517 -0.60255,-2.781022 -1.01971,-2.039417 -0.83431,-1.34416 -1.39051,-1.25146 -1.29781,-0.648907 h -0.88066 l -0.7416,0.0927 -0.50986,0.463502 -0.13905,0.509855 0.27811,0.695256 v 1.622264 l -0.27811,0.787956 c 0,0 -0.0464,1.066056 -0.0464,1.29781 0,0.231751 -0.0927,1.39051 -0.0927,1.39051 l 0.13905,0.834308 -0.13905,0.927007 0.2781,1.483212 0.23175,0.741606 0.37081,0.927005 c 0,0 0.32445,0.695256 0.32445,0.927007 0,0.231754 0.13905,1.01971 0.13905,1.01971 l -0.23175,0.834305 -0.13905,0.741606 0.0927,0.787958 1.06606,1.158759 c 0,0 0.1854,0.509852 0.4635,0.602554 0.2781,0.0927 1.11241,0.324453 1.11241,0.324453 l 1.85401,0.13905 0.37081,-0.0927 z"
       id="path4519"
       inkscape:connector-curvature="0" />
  </g>
  <g
     inkscape:groupmode="layer"
     id="layer9"
     inkscape:label="face"
     style="display:inline"
     transform="translate(-71.872139,41.01042)">
    <path
       style="fill:#000000;fill-opacity:1;fill-rule:evenodd;stroke:none;stroke-width:0.79375005;stroke-miterlimit:4;stroke-dasharray:none;stroke-opacity:1"
       d="m 119.05443,72.799074 c 0.50624,0 1.01248,0 1.51872,0 0.46364,0.369554 0.88311,0.789308 1.32062,1.188564 0.13206,0.242115 0.26413,0.48423 0.39619,0.726345 -0.44846,0.44055 -0.87487,0.904677 -1.36025,1.30577 -0.42392,0.381602 -0.86312,0.744937 -1.31228,1.096375 -0.10661,0.07697 -0.20309,0.178881 -0.31583,0.240747 -0.68216,0.06271 -1.36499,0.138711 -2.04672,0.193115 -0.54857,-0.114129 -1.1039,-0.211957 -1.64825,-0.336266 -0.12734,-0.08489 -0.25468,-0.169785 -0.38202,-0.254677 0.14567,-0.654084 0.22814,-1.319222 0.33016,-1.980939 0.11893,-0.272101 0.21985,-0.554212 0.34996,-0.820095 0.2135,-0.298907 0.42701,-0.597813 0.64051,-0.89672 0.452,-0.130092 0.90033,-0.281138 1.35463,-0.398077 0.38485,-0.02138 0.76971,-0.04276 1.15456,-0.06414 z"
       id="path4525"
       inkscape:connector-curvature="0" />
    <path
       style="fill:#000000;fill-opacity:1;fill-rule:evenodd;stroke:none;stroke-width:0.79375005;stroke-miterlimit:4;stroke-dasharray:none;stroke-opacity:1"
       d="m 98.518694,105.41854 c 0.510745,0.54615 1.028616,1.08579 1.518726,1.65078 -0.005,0.59248 0.003,1.1847 0.0328,1.77649 0.0111,0.28826 0.0222,0.57651 0.0332,0.86476 -0.154075,0.26413 -0.308149,0.52825 -0.462224,0.79238 -0.418198,0.2201 -0.836395,0.44021 -1.254593,0.66031 -0.378159,-0.0705 -0.761516,-0.12684 -1.136429,-0.2062 -0.523618,-0.30544 -1.047236,-0.61089 -1.570854,-0.91633 -0.130865,-0.34147 -0.282426,-0.67752 -0.400443,-1.02236 -0.03933,-0.33028 -0.09738,-0.66009 -0.125136,-0.99065 0.03349,-0.43007 0.06573,-0.86029 0.144087,-1.28505 0.03138,-0.16209 0.02356,-0.33787 0.131153,-0.47335 0.237518,-0.41565 0.475037,-0.83131 0.712556,-1.24697 0.247289,-0.0618 0.494578,-0.14622 0.741866,-0.19387 0.338179,0.0993 0.689048,0.16214 1.006573,0.32062 0.209573,0.0898 0.419145,0.17963 0.628718,0.26944 z"
       id="path4527"
       inkscape:connector-curvature="0" />
    <path
       style="fill:none;fill-opacity:1;fill-rule:evenodd;stroke:#000000;stroke-width:0.79375005;stroke-miterlimit:4;stroke-dasharray:none;stroke-opacity:1"
       d="m 102.41454,116.84195 0.92444,-0.66031 0.85841,-0.72635 0.8584,-1.0565 0.85841,-1.12253 0.85841,-0.99047 0.46222,-0.85841 0.59428,-0.79237 0.39619,-0.52825 0.066,-0.066"
       id="path4529"
       inkscape:connector-curvature="0" />
  </g>
</svg>
